<?xml version="1.0" encoding="UTF-8"?>
<svg id="Layer_2" data-name="Layer 2" xmlns="http://www.w3.org/2000/svg" viewBox="0 0 836.3 307.31">
  <defs>
    <style>
      .cls-1 {
        fill: #c89040;
      }
    </style>
  </defs>
  <g id="Layer_1-2" data-name="Layer 1">
    <g>
      <path class="cls-1" d="M389.42,37.29c-8.7,0-9.94,7.81-9.94,7.81,0,0,3.55-6.04,10.83-6.04s11.21,8.7,11.21,8.7c0,0-1.63-10.47-12.1-10.47Z"/>
      <path class="cls-1" d="M445.33,37.29c-10.47,0-12.1,10.47-12.1,10.47,0,0,3.93-8.7,11.21-8.7s10.83,6.04,10.83,6.04c0,0-1.24-7.81-9.94-7.81Z"/>
      <path class="cls-1" d="M32.61,188.97c-.5-10.39-.5-60.24,0-70.62.96-20.05-6.03-34.53-18.64-34.53S0,91.39,0,94.32s.82,9.59,8.5,9.41c6.58-.16,6.94-5.3,6.94-6.76s.18-6.39-5.3-6.39-4.57,6.58-4.57,6.58c-5.12-2.74,1.14-9.59,7.49-9.5,6.39.09,17.19,6.39,15.91,31.06-1.47,28.34-1.47,41.54,0,69.89,1.28,24.66-9.51,30.97-15.91,31.06-6.35.09-12.61-6.76-7.49-9.5,0,0-.91,6.58,4.57,6.58s5.3-4.93,5.3-6.39-.37-6.6-6.94-6.76c-7.67-.18-8.5,6.49-8.5,9.41s1.37,10.51,13.98,10.51,19.6-14.48,18.64-34.53Z"/>
      <path class="cls-1" d="M827.8,203.58c-6.58.16-6.94,5.3-6.94,6.76s-.18,6.39,5.3,6.39,4.57-6.58,4.57-6.58c5.12,2.74-1.14,9.59-7.49,9.5-6.39-.09-17.19-6.39-15.91-31.06,1.47-28.34,1.47-41.54,0-69.89-1.28-24.66,9.51-30.97,15.91-31.06,6.35-.09,12.61,6.76,7.49,9.5,0,0,.91-6.58-4.57-6.58s-5.3,4.93-5.3,6.39.37,6.6,6.94,6.76c7.67.18,8.5-6.49,8.5-9.41s-1.37-10.51-13.98-10.51-19.59,14.48-18.64,34.53c.5,10.39.5,60.24,0,70.62-.96,20.05,6.03,34.53,18.64,34.53s13.98-7.58,13.98-10.51-.82-9.59-8.5-9.41Z"/>
      <path class="cls-1" d="M785.41,220.71c-11.83.57-150.01,2.58-253.37,3.01.79-1.74,1.3-3.58,1.55-5.45h231.64c18.01,0,32.66-14.65,32.66-32.66v-62.86c0-18.01-14.65-32.66-32.66-32.66h-231.39c-.17-2.23-.72-4.43-1.66-6.5,98.44.42,241.34,2.45,253.24,3.02,20.05.96,34.53-6.03,34.53-18.64s-7.58-13.98-10.51-13.98-9.59.82-9.41,8.5c.16,6.58,5.3,6.94,6.76,6.94s6.39.18,6.39-5.3-6.58-4.57-6.58-4.57c2.74-5.12,9.59,1.14,9.5,7.49-.09,6.39-6.39,16.63-31.06,15.35-33.11-1.72-164.14-1.63-254.31-1.44-.15-.23-.29-.45-.45-.68-3.52-4.93-8.93-7.76-14.84-7.76h-.03c-.43.02-8.11.41-17.07,6.69.2-6.84-2.38-11.24-4.69-13.73-3.68-3.97-8.39-5.39-11.58-5.39-7.19,0-14.47,4.18-14.47,12.16,0,6.75,6.41,9.87,9.06,10.87-3.24,2.62-9.28,2.89-9.33,2.89-12.42,0-13.89-9.05-13.94-9.43-.15-1.13-.23-4.44,1.2-6.07.6-.68,1.4-1.02,2.45-1.02,5,0,7.09,2.6,7.18,2.7l1.36,1.78.07-2.24c.12-3.66-1.52-9.18-4.87-12.64-2.07-2.14-4.6-3.27-7.29-3.27-4.12,0-6.85,1.81-8.54,3.61.23-2.07.15-4.46-.98-5.99-.74-1-1.86-1.53-3.26-1.53-2.55,0-4.66.93-6.25,2.75-1.57,1.8-2.47,4.27-2.97,6.82.31-6.28,2.43-11.41,4.77-14.51,2.26-2.99,4.97-4.64,7.64-4.64,7.86,0,10.85,7.35,10.97,7.66l.36.9.82-.52c.31-.2,7.65-4.93,7.65-12.21,0-9.24-8.72-19.97-19.97-19.97-7.41,0-11.6,2.49-13.59,4.17-.31-4.48-2.34-8.37-5.22-11.06-5.08-4.74-6.76-11.26-6.78-11.33h-1.55c-.02.07-1.68,6.57-6.78,11.33-2.88,2.69-4.91,6.58-5.22,11.06-1.98-1.68-6.17-4.17-13.59-4.17-11.25,0-19.97,10.73-19.97,19.97,0,7.28,7.34,12.02,7.65,12.21l.82.52.36-.9c.12-.31,3.12-7.66,10.97-7.66,2.67,0,5.39,1.65,7.64,4.64,2.34,3.11,4.46,8.23,4.77,14.51-.5-2.54-1.4-5.02-2.97-6.81-1.6-1.83-3.7-2.75-6.25-2.75-1.39,0-2.52.53-3.26,1.53-1.13,1.53-1.21,3.92-.98,5.99-1.7-1.79-4.43-3.61-8.54-3.61-2.7,0-5.22,1.13-7.29,3.27-3.35,3.46-4.98,8.98-4.87,12.64l.07,2.24,1.36-1.78s2.13-2.7,7.18-2.7c1.05,0,1.85.33,2.45,1.01,1.72,1.96,1.2,6.03,1.2,6.06-.06.39-1.52,9.43-13.91,9.43-.07,0-6.12-.26-9.36-2.89,2.65-1,9.06-4.12,9.06-10.87,0-7.98-7.28-12.16-14.47-12.16-3.19,0-7.91,1.42-11.58,5.39-2.3,2.49-4.88,6.87-4.69,13.73-8.97-6.28-16.64-6.68-17.07-6.7h-.03c-5.91,0-11.32,2.83-14.84,7.76-.16.22-.3.45-.45.67-95.13-.18-219.79-.27-252.77,1.44-24.66,1.28-30.97-8.95-31.06-15.35-.09-6.35,6.76-12.61,9.5-7.49,0,0-6.58-.91-6.58,4.57s4.93,5.3,6.39,5.3,6.6-.37,6.76-6.94c.18-7.67-6.49-8.5-9.41-8.5s-10.51,1.37-10.51,13.98,14.48,19.6,34.53,18.64c11.83-.57,148.33-2.58,251.69-3.01-.93,2.07-1.49,4.27-1.66,6.5H71.07c-18.01,0-32.66,14.65-32.66,32.66v62.86c0,18.01,14.65,32.66,32.66,32.66h229.81c.25,1.87.76,3.71,1.55,5.45-98.44-.42-239.66-2.45-251.55-3.02-20.05-.96-34.53,6.03-34.53,18.64,0,12.61,7.58,13.98,10.51,13.98s9.59-.82,9.41-8.5c-.16-6.58-5.3-6.94-6.76-6.94s-6.39-.18-6.39,5.3,6.58,4.57,6.58,4.57c-2.74,5.12-9.59-1.14-9.5-7.49.09-6.39,6.39-16.63,31.06-15.35,33.11,1.72,162.45,1.63,252.62,1.44.15.23.29.45.45.68,3.52,4.93,8.93,7.76,14.84,7.76h.03c.43-.02,8.11-.41,17.07-6.69-.2,6.84,2.38,11.24,4.69,13.73,3.68,3.97,8.39,5.39,11.58,5.39,7.19,0,14.47-4.18,14.47-12.16,0-6.75-6.41-9.87-9.06-10.87,3.24-2.62,9.28-2.89,9.33-2.89,12.42,0,13.89,9.05,13.94,9.43.15,1.13.23,4.44-1.2,6.07-.6.68-1.4,1.02-2.45,1.02-5,0-7.09-2.6-7.18-2.7l-1.36-1.78-.07,2.24c-.12,3.66,1.52,9.18,4.87,12.64,2.07,2.14,4.6,3.27,7.29,3.27,4.12,0,6.85-1.81,8.54-3.61-.23,2.07-.15,4.46.98,5.99.74,1,1.86,1.53,3.26,1.53,2.55,0,4.66-.93,6.25-2.75,1.57-1.8,2.47-4.27,2.97-6.82-.31,6.28-2.43,11.41-4.77,14.51-2.26,2.99-4.97,4.64-7.64,4.64-7.86,0-10.85-7.35-10.97-7.66l-.36-.9-.82.52c-.31.2-7.65,4.93-7.65,12.21,0,9.24,8.72,19.97,19.97,19.97,7.41,0,11.6-2.49,13.58-4.17.31,4.48,2.34,8.37,5.22,11.06,5.08,4.74,6.76,11.26,6.78,11.33h1.55c.02-.07,1.68-6.57,6.78-11.33,2.88-2.69,4.91-6.58,5.22-11.06,1.98,1.68,6.17,4.17,13.59,4.17,11.25,0,19.97-10.73,19.97-19.97,0-7.28-7.34-12.02-7.65-12.21l-.82-.52-.36.9c-.12.31-3.12,7.66-10.97,7.66-2.67,0-5.39-1.65-7.64-4.64-2.34-3.11-4.46-8.23-4.77-14.51.5,2.54,1.4,5.02,2.97,6.81,1.6,1.83,3.7,2.75,6.25,2.75,1.39,0,2.52-.53,3.26-1.53,1.13-1.53,1.21-3.92.98-5.99,1.7,1.79,4.43,3.61,8.54,3.61,2.7,0,5.22-1.13,7.29-3.27,3.35-3.46,4.98-8.98,4.87-12.64l-.07-2.24-1.36,1.78s-2.13,2.7-7.18,2.7c-1.05,0-1.85-.33-2.45-1.01-1.72-1.96-1.2-6.03-1.2-6.06.06-.39,1.52-9.43,13.91-9.43.07,0,6.11.26,9.36,2.89-2.65,1-9.06,4.12-9.06,10.87,0,7.98,7.28,12.16,14.47,12.16,3.19,0,7.91-1.42,11.58-5.39,2.3-2.49,4.88-6.87,4.69-13.73,8.97,6.28,16.64,6.68,17.07,6.7h.03c5.91,0,11.32-2.83,14.84-7.76.16-.22.3-.45.45-.67,95.13.19,221.47.27,254.45-1.44,24.66-1.28,30.97,8.95,31.06,15.35.09,6.35-6.76,12.61-9.5,7.49,0,0,6.58.91,6.58-4.57s-4.93-5.3-6.39-5.3-6.6.37-6.76,6.94c-.18,7.67,6.49,8.5,9.41,8.5s10.51-1.37,10.51-13.98c0-12.61-14.48-19.6-34.53-18.64ZM515.47,74.13c5.39,0,10.31,2.59,13.52,7.09,2.94,4.12,3.97,9.25,2.89,14.05-1.7-2.17-6.03-5.52-16.61-5.52-1.24,0-2.34.07-3.37.19,13.19-4.29,19.88,3.81,19.88,3.81-6.72-8.73-14.87-10.78-29.11-4.82,10.74-5.77,17.2-4.71,24.67-2.28,0,0-11.1-10.08-35.27,5.1.02-.02.04-.04.06-.06,4.14-2.59,14.11-8.25,26.33-11.07,0,0-10.47,0-22.81,7.47,2.97-1.87,7.82-4.82,11.8-6.76,0,0-5.68.58-10.94,4.25.88-1.77,1.36-3.27,1.6-4.17,9-6.72,16.99-7.26,17.35-7.27ZM488.68,90.68c.32-.35.64-.68.94-1.05,2.06-2.55,4.17-4.66,6.26-6.44-.42,1.08-1.03,2.37-1.91,3.75.42-.96-1.89,1.31-5.29,3.74ZM474.69,80.4c.1,0,.19.03.29.03,6.44,0,7.37-3.38,7.45-3.7.22.05.46.08.72.08.82,0,1.67-.23,2.22-.4.03.08.05.18.05.29,0,.32-.24,1.23-2.13,2.57-.65.35-1.43.64-2.3.88h-.22c-.52,0-1.1,0-1.74.38l-.51.05-.22.52c-.2.2-.4.43-.6.7-.63-.22-1.76-.68-3-1.39ZM482.16,74.39c0-1.18.26-1.41.26-1.42l.23.11.24-.03s.11-.01.23-.01c.85,0,1.82.32,2.22,1.66h-.03c-.32.15-1.35.5-2.18.5-.91,0-.98-.35-.98-.81ZM429.76,27.76c1.21-1.06,3.17-2.47,6.33-4.13,7.1-3.73,17.57,1.06,17.57,1.06-2.78-2.65-5.68-4.11-8.47-4.79,9.48.91,16.9,10.37,16.9,18.28,0,5.12-4.39,8.98-6.17,10.34-1.18-2.23-4.83-7.76-12.02-7.76-3.19,0-6.35,1.87-8.92,5.27-5.02,6.66-6.49,17.18-3.74,26.81,0,0,.04-12.1,4.42-17.1,1.3-1.48,2.95-2.2,5.05-2.2.89,0,1.53.29,1.97.88,1.47,1.99.45,6.86-.07,8.56,0,0,3.92-5.54,10.88-5.54,2.29,0,4.36.94,6.15,2.79,2.53,2.61,3.98,6.51,4.33,9.66-1.33-.92-3.58-1.97-6.93-1.97-1.52,0-2.75.53-3.65,1.56-2.19,2.5-1.6,7.14-1.58,7.34.01.11,1.68,10.81,15.55,10.81.4-.01,9.62-.41,12.23-5.56,0,0,0,0,0,0,.37-.06.94-.16,1.6-.32h0c.7-.03,1.57-.19,2.74-.99l.09-.07c2.03-1.08,3.1-2.64,3.1-4.5,0-3.48-2.07-4.72-4-4.72-.1,0-.18,0-.25,0-.12-.03-.29-.07-.47-.07-.56,0-1.85.29-1.85,3.01,0,.57.14,1.05.39,1.43-.56.07-5.63.58-5.63-4.45,0-3.91,3.91-5.33,3.91-5.33,0,0-5.15-.89-5.15,4.79,0,7.63,6.32,5.22,6.88,4.99.31.46.81.76,1.44.89-.71.75-10.45,3.62-10.45-4.82s6.57-8.88,6.57-8.88c-1.63,0-2.98.24-4.13.61,2.24-1.28,4.96-1.94,7.68-1.94s7.08,1.28,10.41,4.88c2.24,2.42,4.78,6.77,4.24,13.73,0,0,0,.06-.02.13-2.75,2.12-5.57,4.77-8.33,8.18-.55.68-1.15,1.3-1.76,1.89,1.06-1.92.96-3.52.96-3.52,0,0-.71,5.86-16.69,5.86s-24.68-7.81-24.68-20.41c0-8.34,6.92-10.65,6.92-10.65,0,0-8.17.53-8.17,10.65,0,4.36.66,7.2,1.41,9.02-1.21-2.2-2.47-5.53-2.47-9.91,0,0-1.6,8.91,3.09,16.19-5.31-4.8-8.77-10.68-8.77-15.48,0-9.94,3.02-12.43,3.02-12.43,0,0-6.04,2.49-6.04,10.83,0,14.9,10.82,21.29,20.11,24.03.64.28,1.32.53,2.03.76-3.52-.82-6.97-2.02-10.23-3.57,1.39.59,2.84,1.16,4.42,1.68-30.36-10.47-21.83-40.83-21.83-40.83,0,0-5.14,11.89-.03,23.48-2.12-3.93-3.34-8.34-3.34-13.18,0-8.52,5.15-15.44,5.15-15.44,0,0-6.75,2.49-6.75,15.8,0,8.82,6.6,22.31,19.44,29.9-1.8-.86-3.49-1.82-5.08-2.87-9.55-6.56-15.33-16.6-15.33-28.45,0-7.36,2.11-12.26,4.49-15.91,2.17-2.37,3.8-4.47,4.86-6.31,1.27-1.69,2.12-3.28,1.88-5.03,7.24-5.25,17.26-1.5,17.26-1.5,0,0-7.38-5.66-17.89-.29-.04-.06-.08-.13-.12-.19,1.88-1.32,7.31-3.98,18.72-1.65,0,0-7.28-3.73-14.38-1.42,0,0,5.86-2.48,14.02-1.06,0,0-9.03-4.9-19.74,2.39-.04-.04-.07-.08-.11-.12l-.15-.15-.21-.06c-.11-.03-1.03-.26-2.41.09.84-1.49,3.24-4.12,10.2-6.59,0,0-4.88.46-10.86,5.25.17-.52.31-1.08.44-1.65ZM410.92,12.49c3.53-3.29,5.5-7.29,6.46-9.77.97,2.48,2.93,6.48,6.46,9.77,2.93,2.73,4.88,6.85,4.72,11.58h0v.17c0,.08,0,.17,0,.25,0,.18-.02.35-.03.53-.28,3.01-1.42,6.24-3.72,9.5,0,0,5.39-2.04,6.73-2.04.1,0,.25.01.32.08.57.51,1.18,1.14,1.24,2.28.05,1.09-.41,2.45-1.33,4.06-.4.52-.86,1.08-1.37,1.7-1.03,1.25-2.21,2.69-3.36,4.44-.07.07-.12.14-.19.22-4.85,5.23-7.01,18.31-2.07,30.32,3.02,7.34,7.9,12.53,13.47,16.18,4.25,2.91,9.21,5.14,14.72,6.58-3.28-.48-6.89-1.32-10.51-2.69-13.26-6.52-21.24-19.12-21.24-33.17,0-17.93,5.86-21.83,5.86-21.83-5.15,1.95-6.57,11.54-6.57,11.54.53-8.34,7.63-17.4,7.63-17.4,0,0-7.52,4.98-9.48,19.84-.03-.34-.06-.67-.1-1.02-.01-.11-.03-.22-.04-.33,1.82-13.99,7.49-25.59,7.49-25.59-4.26,2.66-7.1,17.22-7.1,17.22,1.6-9.23,5.15-18.64,5.15-18.64-3.76,6.18-5.39,11.46-6.65,19.12-.08-.48-.16-.95-.24-1.41.16-2.17,1-11.62,4.29-17.13,0,0-3.73,3.73-3.99,9.99,0,0,.8-13.31-.8-17.97-.4,5.19.15,18.29.15,18.29-.27-6.26-3.99-9.99-3.99-9.99,3.01,5.05,3.97,13.2,4.23,16.16-1.22-6.58-2.88-11.44-6.29-17.05,0,0,3.55,9.41,5.15,18.64,0,0-2.84-14.56-7.1-17.22,0,0,5.67,11.6,7.49,25.59-.01.11-.03.22-.04.33-.04.35-.07.68-.1,1.02-1.96-14.85-9.47-19.84-9.47-19.84,0,0,7.1,9.05,7.63,17.4,0,0-1.42-9.59-6.57-11.54,0,0,5.86,3.91,5.86,21.83,0,14.05-7.98,26.65-21.24,33.17-3.62,1.37-7.23,2.21-10.51,2.69,5.51-1.44,10.47-3.67,14.72-6.58,5.57-3.66,10.45-8.84,13.47-16.18,4.95-12.01,2.78-25.09-2.07-30.32-.07-.07-.13-.14-.19-.22-1.15-1.75-2.34-3.2-3.36-4.44-.51-.62-.97-1.18-1.37-1.7-.93-1.61-1.39-2.97-1.33-4.06.06-1.14.67-1.78,1.24-2.28.07-.07.21-.08.32-.08,1.33,0,6.73,2.04,6.73,2.04-2.3-3.25-3.44-6.48-3.72-9.49,0-.2-.03-.38-.03-.58,0-.06,0-.13,0-.19v-.18h0c-.15-4.74,1.8-8.86,4.72-11.59ZM357.07,81.8c-.21-.27-.41-.51-.6-.71l-.22-.52-.51-.05c-.65-.38-1.23-.38-1.74-.38h-.22c-.88-.24-1.65-.53-2.22-.83-1.97-1.39-2.2-2.29-2.21-2.62,0-.11.02-.21.05-.29.55.18,1.4.4,2.22.4.26,0,.49-.03.72-.08.08.32,1.01,3.7,7.45,3.7.1,0,.19-.02.29-.03-1.23.71-2.36,1.17-3,1.39ZM349.4,74.71c.4-1.34,1.37-1.66,2.22-1.66.13,0,.22,0,.23.01l.24.04.23-.11s.27.23.27,1.42c0,.46-.07.81-.98.81-.99,0-2.16-.48-2.18-.49h-.03ZM342.27,66.58c3.33-3.6,7.69-4.88,10.41-4.88s5.44.66,7.68,1.94c-1.15-.37-2.49-.61-4.13-.61,0,0,6.57.36,6.57,8.88s-9.74,5.56-10.45,4.82c.63-.13,1.13-.43,1.44-.89.56.23,6.88,2.65,6.88-4.99,0-5.68-5.15-4.79-5.15-4.79,0,0,3.91,1.42,3.91,5.33,0,5.03-5.06,4.52-5.63,4.45.25-.38.39-.86.39-1.43,0-1.01-.16-1.75-.5-2.26-.32-.48-.8-.75-1.35-.75-.18,0-.34.03-.47.07-.07,0-.15,0-.25,0-1.93,0-4,1.24-4,4.72,0,1.86,1.07,3.41,3.02,4.45l.17.12c1.17.8,2.04.96,2.74.99h0c.66.17,1.23.27,1.6.32,0,0,0,0,0,0,2.61,5.15,11.83,5.55,12.26,5.57,13.85,0,15.51-10.7,15.53-10.81.03-.2.62-4.83-1.58-7.33-.91-1.04-2.14-1.56-3.65-1.56-3.35,0-5.6,1.05-6.93,1.97.36-3.15,1.81-7.05,4.33-9.66,1.79-1.85,3.86-2.79,6.15-2.79,6.97,0,10.88,5.54,10.88,5.54-.52-1.71-1.55-6.57-.07-8.56.44-.59,1.08-.88,1.97-.88,2.1,0,3.75.72,5.05,2.2,4.37,4.99,4.42,17.1,4.42,17.1,2.75-9.63,1.28-20.15-3.74-26.81-2.57-3.4-5.73-5.27-8.92-5.27-7.2,0-10.85,5.54-12.03,7.76-1.78-1.35-6.17-5.2-6.17-10.34,0-7.92,7.42-17.38,16.91-18.28-2.79.68-5.69,2.15-8.47,4.79,0,0,10.47-4.79,17.57-1.06,3.17,1.66,5.13,3.08,6.33,4.13.12.58.27,1.13.44,1.65-5.98-4.79-10.86-5.25-10.86-5.25,6.96,2.48,9.36,5.1,10.2,6.59-1.38-.35-2.31-.12-2.41-.09l-.21.06-.15.15s-.07.08-.11.12c-10.71-7.3-19.74-2.39-19.74-2.39,8.17-1.42,14.02,1.06,14.02,1.06-7.1-2.31-14.38,1.42-14.38,1.42,11.41-2.34,16.84.32,18.72,1.65-.04.07-.08.13-.12.19-10.51-5.37-17.89.29-17.89.29,0,0,10.02-3.75,17.26,1.5-.25,1.75.61,3.34,1.88,5.03,1.06,1.84,2.69,3.94,4.86,6.31,2.39,3.65,4.49,8.55,4.49,15.91,0,11.85-5.78,21.89-15.33,28.45-1.59,1.05-3.28,2.01-5.08,2.87,12.83-7.59,19.44-21.07,19.44-29.9,0-13.31-6.75-15.8-6.75-15.8,0,0,5.15,6.92,5.15,15.44,0,4.84-1.23,9.26-3.34,13.18,5.11-11.59-.03-23.48-.03-23.48,0,0,8.52,30.36-21.83,40.83,1.58-.52,3.03-1.09,4.42-1.68-3.25,1.55-6.71,2.75-10.23,3.57.71-.23,1.39-.49,2.03-.76,9.29-2.74,20.11-9.13,20.11-24.03,0-8.34-6.04-10.83-6.04-10.83,0,0,3.02,2.49,3.02,12.43,0,4.81-3.46,10.68-8.77,15.48,4.69-7.28,3.09-16.19,3.09-16.19,0,4.37-1.27,7.71-2.47,9.91.75-1.82,1.41-4.66,1.41-9.02,0-10.12-8.17-10.65-8.17-10.65,0,0,6.92,2.31,6.92,10.65,0,12.6-8.7,20.41-24.67,20.41s-16.69-5.86-16.69-5.86c0,0-.1,1.6.96,3.52-.61-.59-1.21-1.21-1.76-1.89-2.76-3.41-5.59-6.07-8.33-8.19,0-.03,0-.06-.01-.07-.55-7.02,2-11.37,4.24-13.79ZM340.93,87.27c-1.01-1.53-1.67-2.96-2.11-4.13,2.11,1.79,4.24,3.91,6.31,6.48.3.37.62.71.94,1.05-3.39-2.43-5.64-4.51-5.14-3.41ZM305.76,81.22c3.21-4.5,8.14-7.08,13.52-7.09.36.02,8.35.55,17.35,7.27.23.88.7,2.38,1.59,4.17-5.26-3.67-10.93-4.25-10.93-4.25,3.98,1.93,8.83,4.88,11.8,6.76-12.34-7.46-22.81-7.47-22.81-7.47,12.2,2.82,22.16,8.46,26.31,11.06.02.02.04.04.06.06-24.15-15.16-35.25-5.09-35.25-5.09,7.47-2.43,13.93-3.48,24.67,2.28-13.93-5.83-22.03-4-28.67,4.26-.29-1.01-.47-2.05-.52-3.1h-.38c.25-3.14,1.35-6.21,3.25-8.87ZM303.66,93.98c-.08-.24-.15-.48-.23-.73,1.71-1.68,8.22-6.97,19.42-3.32-1.03-.11-2.12-.19-3.37-.19-10.58,0-14.91,3.34-16.61,5.52-.1-.42-.17-.85-.23-1.28h1.02ZM300.77,214.38H71.07c-15.86,0-28.77-12.9-28.77-28.77v-62.86c0-15.86,12.9-28.77,28.77-28.77h229.95c.16,1.21.44,2.4.84,3.57l.82,2.39.7-2.43c.02-.06,1.95-6.17,16.1-6.17,5.65,0,8.5,1.3,12.11,2.94,5.81,2.64,13.05,5.93,35.23,5.94.31.04,2.7.36,6.39.36,11.26,0,37.34-3.19,44.17-31.72,6.83,28.53,32.91,31.72,44.17,31.72,3.69,0,6.08-.32,6.39-.36,22.18,0,29.42-3.3,35.23-5.94,3.61-1.64,6.45-2.94,12.11-2.94,14.01,0,16.08,6.11,16.1,6.17l.7,2.43.82-2.39c.4-1.17.68-2.36.84-3.57h231.49c15.86,0,28.77,12.9,28.77,28.77v62.86c0,15.86-12.9,28.77-28.77,28.77h-231.53c-.12-1.56-.43-3.11-.95-4.62l-.82-2.39-.7,2.43c-.02.06-1.95,6.17-16.1,6.17-5.65,0-8.5-1.3-12.11-2.94-5.81-2.64-13.05-5.93-35.23-5.94-.31-.04-2.7-.36-6.39-.36-11.26,0-37.34,3.19-44.17,31.72-6.83-28.53-32.91-31.72-44.17-31.72-3.69,0-6.08.32-6.39.36-22.18,0-29.42,3.3-35.23,5.94-3.61,1.64-6.45,2.94-12.11,2.94-14.01,0-16.08-6.11-16.1-6.17l-.7-2.43-.82,2.39c-.52,1.5-.83,3.06-.95,4.62ZM493.68,220.04c1.01,1.53,1.67,2.96,2.11,4.13-2.11-1.79-4.24-3.91-6.31-6.48-.3-.37-.62-.71-.94-1.05,3.39,2.43,5.64,4.51,5.14,3.41ZM345.93,216.63c-.32.35-.64.68-.94,1.05-2.06,2.55-4.17,4.66-6.26,6.44.42-1.08,1.03-2.37,1.91-3.75-.42.96,1.89-1.31,5.29-3.74ZM319.15,233.18c-5.39,0-10.31-2.59-13.52-7.09-2.94-4.12-3.97-9.25-2.89-14.05,1.7,2.17,6.03,5.52,16.61,5.52,1.24,0,2.34-.07,3.37-.19-13.19,4.29-19.88-3.81-19.88-3.81,6.72,8.73,14.87,10.78,29.11,4.82-10.74,5.77-17.2,4.71-24.67,2.28,0,0,11.1,10.08,35.27-5.1-.02.02-.04.04-.06.06-4.14,2.59-14.11,8.25-26.33,11.07,0,0,10.47,0,22.81-7.47-2.97,1.87-7.82,4.82-11.8,6.76,0,0,5.68-.58,10.94-4.25-.88,1.77-1.36,3.27-1.6,4.17-9,6.72-16.99,7.26-17.35,7.27ZM359.93,226.91c-.1,0-.19-.03-.29-.03-6.44,0-7.37,3.38-7.45,3.7-.22-.05-.46-.08-.72-.08-.82,0-1.67.23-2.22.4-.03-.08-.05-.18-.05-.29,0-.32.24-1.23,2.13-2.57.65-.35,1.43-.64,2.3-.88h.22c.52,0,1.1,0,1.74-.38l.51-.05.22-.52c.2-.2.4-.43.6-.7.63.22,1.76.68,3,1.39ZM352.45,232.92c0,1.18-.26,1.41-.26,1.42l-.23-.11-.24.03s-.11.01-.23.01c-.85,0-1.82-.32-2.22-1.66h.03c.33-.15,1.35-.5,2.18-.5.91,0,.98.35.98.81ZM404.85,279.55c-1.21,1.06-3.17,2.47-6.33,4.13-7.1,3.73-17.57-1.06-17.57-1.06,2.78,2.65,5.68,4.11,8.47,4.79-9.48-.91-16.9-10.37-16.9-18.28,0-5.12,4.39-8.98,6.17-10.34,1.18,2.23,4.83,7.76,12.02,7.76,3.19,0,6.35-1.87,8.92-5.27,5.02-6.66,6.49-17.18,3.74-26.81,0,0-.04,12.1-4.42,17.1-1.3,1.48-2.95,2.2-5.05,2.2-.89,0-1.53-.29-1.97-.88-1.47-1.99-.45-6.86.07-8.56,0,0-3.92,5.54-10.88,5.54-2.29,0-4.36-.94-6.15-2.79-2.53-2.61-3.98-6.51-4.33-9.66,1.33.92,3.58,1.97,6.93,1.97,1.52,0,2.74-.53,3.65-1.56,2.19-2.5,1.6-7.13,1.58-7.34-.01-.11-1.68-10.81-15.55-10.81-.4.01-9.62.41-12.23,5.56,0,0,0,0,0,0-.37.06-.94.16-1.6.32h0c-.7.03-1.57.19-2.74.99l-.09.07c-2.03,1.08-3.1,2.64-3.1,4.5,0,3.48,2.07,4.72,4,4.72.1,0,.18,0,.25,0,.12.04.29.07.47.07.56,0,1.85-.29,1.85-3.01,0-.57-.14-1.05-.39-1.43.56-.07,5.63-.58,5.63,4.45,0,3.91-3.91,5.33-3.91,5.33,0,0,5.15.89,5.15-4.79,0-7.63-6.32-5.22-6.88-4.99-.31-.46-.81-.76-1.44-.89.71-.75,10.45-3.62,10.45,4.82,0,8.52-6.57,8.88-6.57,8.88,1.63,0,2.98-.24,4.13-.61-2.24,1.28-4.96,1.94-7.68,1.94s-7.08-1.28-10.41-4.88c-2.24-2.42-4.78-6.77-4.24-13.73,0,0,0-.06.02-.13,2.75-2.12,5.57-4.77,8.33-8.18.55-.68,1.15-1.3,1.76-1.89-1.06,1.92-.96,3.52-.96,3.52,0,0,.71-5.86,16.69-5.86s24.67,7.81,24.67,20.41c0,8.34-6.92,10.65-6.92,10.65,0,0,8.17-.53,8.17-10.65,0-4.36-.66-7.2-1.41-9.02,1.21,2.2,2.47,5.53,2.47,9.91,0,0,1.6-8.91-3.09-16.19,5.31,4.8,8.77,10.68,8.77,15.48,0,9.94-3.02,12.43-3.02,12.43,0,0,6.04-2.49,6.04-10.83,0-14.9-10.82-21.29-20.11-24.03-.64-.28-1.32-.53-2.03-.76,3.52.82,6.97,2.02,10.23,3.57-1.39-.59-2.84-1.16-4.42-1.68,30.36,10.47,21.83,40.83,21.83,40.83,0,0,5.14-11.89.03-23.48,2.12,3.93,3.34,8.34,3.34,13.18,0,8.52-5.15,15.44-5.15,15.44,0,0,6.75-2.49,6.75-15.8,0-8.82-6.6-22.31-19.44-29.9,1.8.86,3.49,1.82,5.08,2.87,9.55,6.56,15.33,16.6,15.33,28.45,0,7.36-2.11,12.26-4.49,15.91-2.17,2.37-3.79,4.47-4.86,6.31-1.27,1.69-2.12,3.28-1.88,5.03-7.24,5.25-17.26,1.5-17.26,1.5,0,0,7.38,5.66,17.89.29.04.06.08.13.12.19-1.88,1.32-7.31,3.98-18.72,1.65,0,0,7.28,3.73,14.38,1.42,0,0-5.86,2.49-14.02,1.07,0,0,9.03,4.9,19.74-2.39.04.04.07.08.11.12l.15.15.21.06c.11.03,1.03.26,2.41-.09-.84,1.49-3.24,4.12-10.2,6.59,0,0,4.88-.46,10.86-5.25-.17.52-.31,1.08-.44,1.65ZM423.7,294.82c-3.53,3.29-5.5,7.29-6.46,9.77-.97-2.48-2.93-6.48-6.46-9.77-2.93-2.73-4.88-6.85-4.72-11.58h0v-.17c0-.08,0-.17,0-.25,0-.18.02-.35.03-.53.28-3.01,1.42-6.24,3.72-9.5,0,0-5.39,2.04-6.73,2.04-.1,0-.25-.01-.32-.08-.57-.51-1.18-1.14-1.24-2.28-.05-1.09.41-2.45,1.33-4.06.4-.52.86-1.08,1.37-1.7,1.03-1.25,2.21-2.69,3.36-4.44.07-.07.12-.14.19-.22,4.85-5.23,7.01-18.31,2.07-30.32-3.02-7.34-7.9-12.53-13.47-16.18-4.25-2.91-9.21-5.14-14.72-6.58,3.28.48,6.89,1.32,10.51,2.69,13.26,6.52,21.24,19.12,21.24,33.17,0,17.93-5.86,21.83-5.86,21.83,5.15-1.95,6.57-11.54,6.57-11.54-.53,8.34-7.63,17.4-7.63,17.4,0,0,7.52-4.98,9.48-19.84.03.34.06.67.1,1.02.01.11.03.22.04.33-1.82,13.99-7.49,25.59-7.49,25.59,4.26-2.66,7.1-17.22,7.1-17.22-1.6,9.23-5.15,18.64-5.15,18.64,3.76-6.18,5.39-11.46,6.65-19.12.08.48.16.95.24,1.41-.16,2.17-1,11.62-4.29,17.13,0,0,3.73-3.73,3.99-9.99,0,0-.8,13.31.8,17.97.4-5.19-.15-18.29-.15-18.29.27,6.26,3.99,9.99,3.99,9.99-3.01-5.05-3.97-13.2-4.23-16.16,1.22,6.58,2.88,11.44,6.29,17.05,0,0-3.55-9.41-5.15-18.64,0,0,2.84,14.56,7.1,17.22,0,0-5.67-11.6-7.49-25.59.01-.11.03-.22.04-.33.04-.35.07-.68.1-1.02,1.96,14.85,9.47,19.84,9.47,19.84,0,0-7.1-9.05-7.63-17.4,0,0,1.42,9.59,6.57,11.54,0,0-5.86-3.91-5.86-21.83,0-14.05,7.98-26.65,21.24-33.17,3.62-1.37,7.23-2.21,10.51-2.69-5.51,1.44-10.47,3.67-14.72,6.58-5.57,3.66-10.45,8.84-13.47,16.18-4.95,12.01-2.78,25.09,2.07,30.32.07.07.13.14.19.22,1.15,1.75,2.34,3.2,3.36,4.44.51.62.97,1.18,1.37,1.7.93,1.61,1.39,2.97,1.33,4.06-.06,1.14-.67,1.78-1.24,2.28-.07.07-.21.08-.32.08-1.33,0-6.73-2.04-6.73-2.04,2.3,3.25,3.44,6.48,3.72,9.49,0,.2.03.38.03.58,0,.06,0,.13,0,.19v.18h0c.15,4.74-1.8,8.86-4.72,11.59ZM477.54,225.52c.21.27.41.51.6.71l.22.52.51.05c.65.38,1.23.38,1.74.38h.22c.88.24,1.65.53,2.22.83,1.97,1.39,2.2,2.29,2.21,2.62,0,.11-.02.21-.05.29-.55-.18-1.4-.4-2.22-.4-.26,0-.49.03-.72.08-.08-.32-1.01-3.7-7.45-3.7-.1,0-.19.02-.29.03,1.23-.71,2.36-1.17,3-1.39ZM485.21,232.6c-.4,1.34-1.37,1.66-2.22,1.66-.13,0-.22,0-.23-.01l-.24-.03-.23.11s-.27-.23-.27-1.42c0-.46.07-.81.98-.81.99,0,2.16.48,2.18.49h.03ZM492.34,240.73c-3.33,3.6-7.69,4.88-10.41,4.88s-5.44-.66-7.68-1.94c1.15.37,2.49.61,4.13.61,0,0-6.57-.35-6.57-8.88s9.74-5.56,10.45-4.82c-.63.13-1.13.43-1.44.89-.56-.23-6.88-2.65-6.88,4.99,0,5.68,5.15,4.79,5.15,4.79,0,0-3.91-1.42-3.91-5.33,0-5.03,5.06-4.52,5.63-4.45-.25.38-.39.86-.39,1.43,0,1.01.16,1.75.5,2.26.32.48.8.75,1.35.75.18,0,.34-.03.47-.07.07,0,.15,0,.25,0,1.93,0,4-1.24,4-4.72,0-1.86-1.07-3.41-3.02-4.44l-.17-.12c-1.17-.8-2.04-.96-2.74-.99h0c-.66-.17-1.23-.27-1.6-.33,0,0,0,0,0,0-2.61-5.15-11.83-5.55-12.26-5.57-13.85,0-15.51,10.7-15.52,10.81-.03.2-.62,4.83,1.58,7.33.91,1.04,2.14,1.56,3.65,1.56,3.35,0,5.6-1.05,6.93-1.97-.36,3.15-1.81,7.05-4.33,9.66-1.79,1.85-3.86,2.79-6.15,2.79-6.97,0-10.88-5.54-10.88-5.54.52,1.71,1.55,6.57.07,8.56-.44.59-1.08.88-1.97.88-2.1,0-3.75-.72-5.05-2.2-4.37-4.99-4.42-17.1-4.42-17.1-2.75,9.63-1.28,20.15,3.74,26.81,2.57,3.4,5.73,5.27,8.92,5.27,7.2,0,10.85-5.54,12.03-7.76,1.78,1.35,6.17,5.2,6.17,10.34,0,7.92-7.42,17.38-16.91,18.28,2.79-.68,5.69-2.15,8.47-4.79,0,0-10.47,4.79-17.57,1.06-3.17-1.66-5.13-3.08-6.33-4.13-.12-.58-.27-1.13-.44-1.65,5.98,4.79,10.86,5.25,10.86,5.25-6.96-2.48-9.36-5.1-10.2-6.59,1.38.35,2.31.12,2.41.09l.21-.06.15-.15s.07-.08.11-.12c10.71,7.3,19.74,2.39,19.74,2.39-8.17,1.42-14.02-1.07-14.02-1.07,7.1,2.31,14.38-1.42,14.38-1.42-11.41,2.34-16.84-.32-18.72-1.65.04-.06.08-.13.12-.19,10.51,5.37,17.89-.29,17.89-.29,0,0-10.02,3.75-17.26-1.5.25-1.75-.61-3.34-1.88-5.03-1.06-1.84-2.69-3.94-4.86-6.31-2.39-3.65-4.49-8.55-4.49-15.91,0-11.85,5.78-21.89,15.33-28.45,1.59-1.05,3.28-2.01,5.08-2.87-12.84,7.59-19.44,21.07-19.44,29.9,0,13.31,6.75,15.8,6.75,15.8,0,0-5.15-6.92-5.15-15.44,0-4.84,1.23-9.26,3.34-13.18-5.11,11.59.03,23.48.03,23.48,0,0-8.52-30.36,21.83-40.83-1.58.52-3.03,1.09-4.42,1.68,3.25-1.55,6.71-2.75,10.23-3.57-.71.23-1.39.49-2.03.76-9.29,2.74-20.11,9.13-20.11,24.03,0,8.34,6.04,10.83,6.04,10.83,0,0-3.02-2.49-3.02-12.43,0-4.81,3.46-10.68,8.77-15.48-4.69,7.28-3.09,16.19-3.09,16.19,0-4.37,1.27-7.71,2.47-9.91-.75,1.82-1.41,4.66-1.41,9.02,0,10.12,8.17,10.65,8.17,10.65,0,0-6.92-2.31-6.92-10.65,0-12.6,8.7-20.41,24.67-20.41s16.69,5.86,16.69,5.86c0,0,.1-1.6-.96-3.52.61.59,1.21,1.21,1.76,1.89,2.76,3.41,5.59,6.07,8.33,8.19,0,.03,0,.06.01.07.55,7.02-2,11.37-4.24,13.79ZM528.85,226.09c-3.21,4.5-8.14,7.08-13.52,7.09-.36-.02-8.35-.55-17.35-7.27-.23-.88-.7-2.38-1.59-4.17,5.26,3.67,10.93,4.25,10.93,4.25-3.98-1.93-8.83-4.88-11.8-6.76,12.34,7.46,22.81,7.47,22.81,7.47-12.2-2.82-22.16-8.46-26.31-11.06-.02-.02-.04-.04-.06-.06,24.15,15.16,35.25,5.09,35.25,5.09-7.47,2.43-13.93,3.48-24.67-2.28,14.23,5.96,22.39,3.92,29.11-4.82,0,0-6.69,8.1-19.88,3.81,1.03.11,2.12.19,3.37.19,10.58,0,14.91-3.34,16.61-5.52.17.77.29,1.55.35,2.33h-.43c-.05,1.29-.22,2.59-.51,3.9h.83c-.39,2.77-1.45,5.46-3.13,7.82Z"/>
      <path class="cls-1" d="M445.19,270.02c8.7,0,9.94-7.81,9.94-7.81,0,0-3.55,6.04-10.83,6.04s-11.21-8.7-11.21-8.7c0,0,1.63,10.47,12.1,10.47Z"/>
      <path class="cls-1" d="M389.28,270.02c10.47,0,12.1-10.47,12.1-10.47,0,0-3.93,8.7-11.21,8.7s-10.83-6.04-10.83-6.04c0,0,1.24,7.81,9.94,7.81Z"/>
    </g>
  </g>
</svg>