<?xml version="1.0" encoding="UTF-8"?>
<svg id="Layer_2" data-name="Layer 2" xmlns="http://www.w3.org/2000/svg" viewBox="0 0 469.86 60.88">
    <defs>
        <style>
            .cls-1 {
            fill: #ffde9c;
            }
        </style>
    </defs>
    <g id="Layer_1-2">
        <path class="cls-1"
              d="M6.36.04C.19,3.73-.36,13.6.14,19.95c.69,8.65,5.37,15.48,11.35,21.5s14.34,8.81,22.85,10.69c9.68,2.13,19.61,2.85,29.51,2.54,42.32-1.33,81.94-19.62,124.07-22.53,11.41-.79,23.3-.57,34.49,2.05,3.93.92,7.77,2.33,11.24,4.4,5.56,3.32,7.34,8.91,8.7,14.99.38,1.71,2.63,3.62,3.79,4.86.39.42,2.85,2.64,2.76,2.22-3.38-15.08-15.51-29.11-30.57-33.37-18.87-5.34-39.95-3.24-58.96.12-40.74,7.2-81.7,24.63-123.73,18.63-6-.86-12-2.18-17.73-4.17-2.33-.81-4.63-1.77-6.72-3.08s-2.64-2.96-3.43-5.61c-2.15-7.24-2.38-21.07,5.17-25.6.14-.08-5.46-8.2-6.58-7.53h0Z"/>
        <path class="cls-1"
              d="M463.2,7.52c-4.19-2.51-1.87-3.07-1.6-.7.1.92.6,1.94.81,2.86.45,2.01.68,4.07.75,6.12.13,4.11-.35,8.38-1.92,12.21-3.56,8.72-11.34,12.65-19.92,15.09-19.16,5.47-39.3,4.78-58.8,1.67-39.69-6.35-78.59-22.91-119.38-20.26-8.87.58-18.33,1.67-26.25,6.02-8.81,4.84-13.87,13.17-16.04,22.81-.23,1.05,2.29,3.38,2.91,4.09.3.34,3.68,3.4,3.67,3.44,2.07-9.23,6.77-17.33,15.05-22.25,7.68-4.57,16.93-5.8,25.68-6.48,22.14-1.71,44.2,2.65,65.64,7.74s42.74,11.18,64.67,13.72c10.29,1.19,20.71,1.56,31.03.52,9.63-.98,20.91-2.65,29.28-7.86,16.02-9.98,13.95-36.77-1.74-46.18-.45-.27,1.61,2.76,1.84,3.03,1.22,1.49,2.62,3.39,4.31,4.4h0Z"/>
    </g>
</svg>