<?xml version="1.0" encoding="UTF-8"?>
<svg id="Layer_2" data-name="Layer 2" xmlns="http://www.w3.org/2000/svg" viewBox="0 0 455.49 635.44">
  <defs>
    <style>
      .cls-1 {
        fill: #c89040;
        fill-rule: evenodd;
      }
    </style>
  </defs>
  <g id="Layer_1-2" data-name="Layer 1">
    <g>
      <path class="cls-1" d="M8.3,7.65h438.9v620.15H8.3V7.65ZM2.42,2.23h450.65v630.98H2.42V2.23ZM0,0h455.49v635.44H0V0ZM5.88,5.42h443.74v624.61H5.88V5.42Z"/>
      <path class="cls-1" d="M142.4,56.91h0s0,0,0,0c0,.56.23,1.07.61,1.44.38.37.9.6,1.48.6h0s0,0,0,0h0c.58,0,1.1-.23,1.48-.6.38-.37.61-.88.61-1.44h0s0,0,0,0c0-1.07-.83-2.07-2.07-2.08-1.23-.01-2.12.99-2.12,2.08h0ZM50.21,149.69c-7.56,3.39-17.59,2.34-24.32-2.34-6.12-4.25-9.62-11.5-8.81-20.35,1.74-.13,2.9-1.51,2.9-3.22h0s0,0,0,0c0-1.26-.58-2.32-1.73-2.85,1.21-4.07,3.19-7.75,5.76-10.91-1.86,2.93-2.94,6.34-.37,8.32,2.53,1.96,6.47-.38,6.5-3.48-2.72,1.69-4.32.74-4.76-1.31-.8-3.81,1.24-6.62,4.01-8.88,1.57-1.28,3.11-2.49,4.85-3.53,2.72,2.39,5.68,4.61,8.65,6.83,4.29,3.22,8.6,6.45,12.21,10.22-1.44-.99-3.05-1.85-4.84-2.58-2.21-.9-4.71-1.27-7.16-1.13-2.4.14-4.76.77-6.74,1.89-2.01,1.13-3.63,2.76-4.54,4.87-.58,1.35-.86,2.9-.76,4.63.05.79.21,1.54.47,2.23.53,1.43,1.92,3.04,3.15,4.26,2.06,2.02,4.08,3.55,3.83,5.7-.07.61-.28,1.2-.62,1.72-.58.89-1.56,1.62-2.98,2.02-.33.1-.52.44-.43.76.03.09.07.17.13.24,1.3,1.62,3.07,2.23,4.81,2.11,1.02-.07,2.02-.38,2.92-.89.89-.5,1.68-1.2,2.27-2.03.71-1,1.12-2.19,1.06-3.47,1.46.53,3.52.21,5.43-.09,1.22-.19,2.36-.37,3.13-.29,1.87.21,3.26.87,4.22,1.91.4.43.73.92,1,1.49-1.98,3.59-5.47,6.48-9.23,8.17ZM219.27,5.48c-.7.63-1.6,1.07-2.61,1.36.99.29,1.87.71,2.57,1.32-.17-.4-.27-.83-.27-1.29h0s0,0,0,0c0-.5.11-.97.31-1.39ZM220.22,6.86h0s0,0,0,0c0,.56.24,1.07.62,1.44.38.37.9.6,1.48.6h0s0,0,0,0h0s0,0,0,0c.58,0,1.1-.23,1.48-.6.38-.37.61-.88.61-1.44h0s0,0,0,0h0s0,0,0,0c0-.56-.23-1.07-.61-1.44-.38-.37-.9-.6-1.48-.6h0s0,0,0,0h0s0,0,0,0c-.56,0-1.07.22-1.44.57-.01.01-.02.02-.03.03-.38.37-.62.88-.62,1.44ZM124.87,23.11c3.24.33,10.16-1.31,8.33-5.07-.64-1.31-2.59-1.58-5.42-.66,2.65-3.59,9.42-3.94,7.8,1.56,1.23-.38,2.33-1.25,3.26-2.49,1.5,5.35-4.64,8.23-9.91,7.96,5.75,1.58,11.55,2.4,17.14,1.96,1.15-.09,2.3-.25,3.43-.49,3.95-.82,7.68-2.53,10.34-5.08,3.56-3.42,4.85-8.42,3.17-12.99h-18.24s-.01.02-.01.02v.02s-.02.03-.02.03v.02c-.74,1.82-.63,3.42.04,5,1.99,4.71,11.36,4.2,11.38-.71.13-3.34-5.23-4.19-6.82-.86-.35.73-1.22.24-.87-.49.72-2.37,2.32-3.06,4.27-3,.32,0,.65.05,1,.13h.02c2.12.48,3.63,2.09,3.66,4.21.04,3.78-3.23,5.93-6.67,5.97-3.16.04-5.88-1.83-7.13-4.77-.75-1.75-.91-3.55-.19-5.57h-49.62c.52.24,1.03.5,1.54.76,2.43,1.25,4.17,2.42,6.53,3.78,5.17,2.98,10.88,6,16.82,8.48.14-.22.31-.43.5-.62.61-.59,1.44-.96,2.37-.96h0s0,0,0,0h0c.93,0,1.76.37,2.37.96.6.59.98,1.41.98,2.31h0s0,0,0,0c0,.19-.02.38-.05.56ZM107.36,38.92c-4.49,6.94,2.03,12.01,4.49,5.43-1.82,1.29-3.2.43-3.78-1.32-.95-2.85.84-6.32,3.97-8.17.99-.59,2.07-1.09,3.22-1.48l.05.16c.98,2.97,1.63,6.07,1.97,9.24-2.59,1.24-4.45,3.64-4.49,6.53-.03,2.69,1.47,5.75,4.04,6.93-.53,2.98-1.39,6.07-2.46,8.76-5.75-2.01-9.05-6.22-10.32-10.72-.69-2.46-.77-5.09-.27-7.63.5-2.55,1.56-5.01,3.15-7.16.14-.19.29-.38.43-.56ZM126.31,74.65c1.78-1.57,2.31-3.72.26-6.05,0,0,4.57.37,4.29,3.58-.22,2.57-2.32,3.91-4.83,4.58,1.26-.24,2.49-.59,3.68-1.03,6.7-2.49,11.79-8.04,13.54-15.79-.42-.17-.8-.41-1.11-.72-.61-.59-.98-1.41-.98-2.31h0s0,0,0,0c0-.9.38-1.72.98-2.31.48-.47,1.1-.79,1.8-.91.02-5.31-1.44-9.92-4.2-13.49-5.02-6.47-15.22-9.38-23.26-7.19l.05.16c.97,2.93,1.62,6,1.98,9.13l.14-.04c7.64-2.21,14.77,1.81,15.7,9.56.23,1.75.08,3.56-.42,5.3-.5,1.74-1.35,3.41-2.51,4.86-3.97,4.97-10.41,6.35-16.38,4.61-1.36,3.17-2.95,5.81-4.97,8.48,1.21.51,2.5.93,3.86,1.26,4.19,1.02,8.91,1.37,12.39-1.69ZM86,50.15c2.25,1.38,6.59.4,8.17-4.02-.85-.05-1.62-.4-2.18-.95-.6-.59-.98-1.41-.98-2.31h0s0,0,0,0c0-.9.38-1.72.98-2.31.26-.26.57-.47.91-.63-4.81-13.67-21.17-18.14-34.59-13.21.55,3.34.58,6.53.37,9.82-.13,2.11-.39,4.16-.77,6.12,2.96-3.73,7.69-6.08,12.5-6.38.16,0,.32-.02.47-.02.1-.29.19-.57.26-.84.52-2.08-.17-3.73-3.74-4.58-.34-.08-.54-.41-.46-.74.15-.72,1.87-.54,3.41-.21,2.85.62,5.42,1.91,6.34,4.87.26.83.36,1.7.35,2.61,7.59,1.85,9.33,12.55,5.08,18.04-.7.9-1.57,1.66-2.6,2.24-1.94,1.09-3.89,1.22-5.78,2.65-1.66,1.27-2.47,3.02-1.1,5.83-2.64-.86-3.81-2.22-3.66-3.9.17-1.91,1.87-2.92,3.87-3.48-2.93-.36-5.47-1.82-6.57-4.62-.58-1.48-.72-3.18-.57-4.9.24-2.57,1.15-5.22,2.28-7.3.17-.32.42-.76.66-1.2.62-1.11.91-1.59,1.38-2.61-2.21.16-4.32.71-6.22,1.61-6.57,3.11-8.8,10.55-6.86,17.12,1.95,6.6,7.89,11.02,14.85,11.85,7.74.92,16.14-2.51,19.93-9.88.99-1.92,1.7-4.05,2.12-6.34.29-1.59.42-3.25.4-4.96v-.2c-.92,6.04-6.1,8.17-8.27,2.85ZM97.98,84.43c-.2-.42-.37-1.02-.37-1.51h0s0,0,0,0c0-.9.38-1.72.98-2.31.61-.59,1.44-.96,2.37-.96h0s0,0,0,0h0c.87,0,1.67.33,2.26.86.68-.57,1.33-1.17,1.97-1.79,1.02-1,1.99-2.06,2.9-3.17-2.13-1.06-4.02-2.38-5.67-3.94-.83-.79-1.6-1.63-2.3-2.53-.71-.9-1.35-1.86-1.93-2.86v-.02c-1.65-2.85-3.01-6.88-3.62-11.19-.42,1.49-.98,2.9-1.64,4.23-4.22,8.52-12.97,12.43-21.24,11.37-7.29-.93-14.21-6-16.33-12.97-.79-2.58-.95-5.44-.41-8.44.78-4.35,2.18-8.24,2.45-12.73.19-3.11.18-6.11-.32-9.27-11.26,4.7-18.14,14.99-18.57,26.8,5.35-.71,11.1,1.14,15.08,4.77,6.49,5.9,6.99,19.21-1.36,24.1,2.45,1.7,4.71,2.84,7.48,3.91,2.25.87,4.59,1.56,6.94,2.06,2.35.5,4.72.82,7.04.98h.02c.86.06,1.71.09,2.55.1-3.64-.62-6.64-1.8-8.61-3.11-1.06-.7-1.84-1.46-2.28-2.21-.51-.85-.61-1.7-.23-2.47.37-.77,1.2-1.42,2.57-1.88-.8-1.09-.99-2.26-.76-3.31.14-.64.45-1.24.87-1.75.01-.01.02-.03.03-.04.44-.51,1-.93,1.64-1.22,1.25-.55,2.81-.59,4.35.23.75-.84,1.72-1.26,2.73-1.32.77-.04,1.55.12,2.28.46.71.34,1.37.84,1.89,1.49.97,1.21,1.45,2.89.94,4.84h0c-.03.1-.08.2-.16.28-.25.24-.65.24-.89,0-1.24-1.21-2.61-1.65-3.8-1.55-.61.05-1.18.24-1.65.55-.46.3-.84.71-1.07,1.19-.38.79-.4,1.79.14,2.87,1.72,3.48,7.44,4.39,12.46,4.37,4.6-.02,7.61-1,11.24-2.89ZM28.63,87.39c.78-1.93,2.36-2.76,4.49-.34.05-3.15-2.48-7.5-5.7-4.44-1.95,1.85-1.65,5.35-.5,8.25-2.49-4.11-4.02-8.91-4.03-14.86,0-3.43.57-6.38,1.61-8.95,2.21-5.49,6.33-9.56,12.35-10.86.02,3.26.46,5.73,1.11,8.48-4.66,2.28-6.12,8.09-4.31,12.63.79,2,2.21,3.63,4,4.82,3.74,2.48,9.23,3.13,13.36,1.36,2.67,1.93,5.21,3.23,8.28,4.42,2.33.91,4.73,1.61,7.14,2.12,2.05.44,4.12.74,6.16.92-1.52.16-3.04.3-4.56.45-11.63,1.11-23.13,2.2-33.63,8.21-.96-.87-1.88-1.76-2.76-2.68-2.74-2.87-4.68-5.39-3-9.54ZM145.5,5.9h16.87c-3.49-5.36-13.21-5.65-16.87,0ZM8.2,310.14c-.65-.68-1.1-1.56-1.39-2.54-.29.96-.73,1.83-1.35,2.5.41-.17.85-.26,1.32-.27h0s0,0,0,0h0c.51,0,.99.11,1.42.31ZM6.78,311.06h0s0,0,0,0h0c-.57,0-1.1.23-1.48.6-.38.37-.61.88-.61,1.44h0s0,0,0,0c0,.56.23,1.07.61,1.44.38.37.9.6,1.48.6h0s0,0,0,0h0c.58,0,1.1-.23,1.48-.6.38-.37.61-.88.61-1.44h0s0,0,0,0c0-.55-.22-1.04-.58-1.41-.01,0-.02-.02-.03-.03-.38-.37-.9-.6-1.48-.6ZM6.78,70.03h0s0,0,0,0h0c-.87,0-1.65.34-2.22.9-.57.55-.92,1.32-.92,2.17h0s0,0,0,0c0,1.68,1.42,3.07,3.14,3.07h0s0,0,0,0h0c1.73,0,3.14-1.38,3.14-3.06h0s0,0,0,0c0-.84-.35-1.61-.92-2.17-.57-.55-1.35-.9-2.22-.9ZM94.36,40.82h0s0,0,0,0h0c-.58,0-1.1.23-1.48.6-.38.37-.61.88-.61,1.44h0s0,0,0,0c0,.56.24,1.07.61,1.44.38.37.9.6,1.48.6h0s0,0,0,0h0c.57,0,1.1-.23,1.48-.6h0s0,0,0,0c.38-.37.61-.88.61-1.44h0s0,0,0,0c0-.55-.22-1.04-.58-1.41-.01,0-.02-.02-.03-.03-.38-.37-.9-.6-1.48-.6ZM121.57,20.5h0s0,0,0,0h0c-.58,0-1.1.23-1.48.6-.38.37-.61.88-.61,1.44h0s0,0,0,0c0,.56.23,1.07.61,1.44.38.37.9.6,1.48.6h0s0,0,0,0h0c.58,0,1.1-.23,1.48-.6.38-.37.61-.88.61-1.44h0s0,0,0,0c0-.56-.24-1.07-.62-1.44-.38-.37-.9-.6-1.48-.6ZM54.03,13.86h0s0,0,0,0h0c-.56,0-1.07.22-1.45.57l-.03.03c-.38.37-.62.88-.62,1.44h0s0,0,0,0c0,.56.24,1.07.62,1.44.38.37.9.6,1.48.6h0s0,0,0,0h0c.57,0,1.1-.23,1.48-.6.38-.37.61-.88.61-1.44h0s0,0,0,0c0-.56-.24-1.07-.62-1.44-.38-.37-.9-.6-1.48-.6ZM100.97,80.87h0s0,0,0,0h0c-.58,0-1.1.23-1.48.6-.38.37-.61.88-.61,1.44h0s0,0,0,0c0,.55.22,1.05.58,1.41l.03.03c.38.37.9.6,1.48.6h0s0,0,0,0h0c.58,0,1.1-.23,1.48-.6.38-.37.61-.88.61-1.44h0s0,0,0,0c0-.56-.23-1.07-.61-1.44-.38-.37-.9-.6-1.48-.6ZM16.62,121.74h0s0,0,0,0h0c-.58,0-1.1.23-1.48.6-.38.37-.61.88-.61,1.44h0s0,0,0,0c0,.55.22,1.05.58,1.41l.03.03c.38.37.9.6,1.48.6h0s0,0,0,0h0c.56,0,1.07-.22,1.45-.57l.03-.03c.38-.37.62-.88.62-1.44h0s0,0,0,0c0-.56-.23-1.07-.61-1.44-.38-.37-.9-.6-1.48-.6ZM58.88,123.25c-1.16-1.35-2.47-2.57-3.96-3.66-1.51-1.1-3.22-2.06-5.15-2.84-2.03-.83-4.34-1.17-6.61-1.04-2.21.13-4.38.71-6.18,1.73-1.78,1-3.21,2.43-4,4.28-.51,1.19-.75,2.55-.66,4.08.21,3.53,4.85,6.98,7.88,5.94,1.08-.38,1.75-1.04,2.06-2.09.17-.6.21-1.24.12-1.85-.09-.59-.31-1.15-.66-1.59-.5-.63-1.27-1.04-2.35-1.03-.21,0-.42-.09-.54-.27-.2-.28-.12-.66.17-.85,1.96-1.29,3.93-1.76,5.63-1.58,1.16.12,2.18.54,3,1.21.82.67,1.43,1.58,1.72,2.67.35,1.29.27,2.84-.39,4.54.98.05,1.89.16,2.76.35,3.25.69,5.74,2.31,7.41,4.54.66.87,1.19,1.84,1.59,2.88.71-2.09,1.03-4.32.91-6.6-.05-.98-.18-1.98-.4-2.97-.09,0-.19.01-.28.01h0s0,0,0,0h0c-.93,0-1.76-.37-2.37-.96-.6-.59-.98-1.41-.98-2.31h0s0,0,0,0c0-.9.38-1.72.98-2.31.1-.09.2-.18.31-.27ZM60.94,123.78h0s0,0,0,0h0c-.58,0-1.1.23-1.48.6-.38.37-.61.88-.61,1.44h0s0,0,0,0c0,.56.24,1.07.62,1.44.38.37.9.6,1.48.6h0s0,0,0,0h0c.57,0,1.1-.23,1.48-.6.38-.37.61-.88.61-1.44h0s0,0,0,0c0-.56-.24-1.07-.61-1.44h0s0,0,0,0c-.38-.37-.9-.6-1.48-.6ZM59.71,139.61c-.38-1.14-.92-2.19-1.62-3.12-1.5-1.99-3.73-3.44-6.66-4.06-1.06-.23-2.21-.35-3.43-.35-.35,0-.63-.27-.63-.61,0-.09.02-.18.06-.26h0c.86-1.76,1.02-3.32.69-4.56-.23-.84-.69-1.53-1.31-2.04-.63-.51-1.43-.83-2.33-.93-1.01-.11-2.15.07-3.32.58.64.27,1.16.68,1.56,1.18.48.61.78,1.37.9,2.16.12.77.06,1.59-.16,2.36-.4,1.41-1.37,2.66-2.88,3.18-.44.16-.91.25-1.39.27-.31.02-.63.01-.95-.02.6.74,1.04,1.56,1.29,2.4.24.79.32,1.6.23,2.38-.09.79-.36,1.55-.81,2.24-.6.91-1.51,1.69-2.77,2.22.92.8,2.04,1.1,3.15,1.03.82-.05,1.64-.31,2.37-.73.74-.42,1.39-.99,1.86-1.66.82-1.17,1.13-2.66.5-4.21-.13-.32.03-.67.36-.8.32-.12.69.03.82.35h0c.7,1.37,3.31.95,5.65.58,1.31-.21,2.54-.4,3.47-.3,2.19.25,3.84,1.04,5.01,2.3.12.13.23.26.34.4ZM57.04,117.9c-.19-.77-.33-1.55-.39-2.29-.07-.95,0-1.85.28-2.64.3-.84.82-1.53,1.65-1.98.52-.28,1.16-.47,1.93-.52.34-.02.66-.02.97.02,1.22.14,2.14.7,2.76,1.53.56.75.89,1.7.99,2.73.95-1.37,1.36-3,1.31-4.59-.04-1.23-.37-2.44-.93-3.47-.56-1.02-1.35-1.87-2.33-2.41-1.29-.71-2.93-.9-4.85-.26-.33.11-.69-.06-.8-.39h0s0-.02,0-.02c-.26-.81-.64-1.38-1.08-1.74-.41-.34-.87-.5-1.33-.51-.48-.01-.98.13-1.43.4-.55.33-1.04.86-1.36,1.54h0c-2.27,4.76,1.51,10.48,4.62,14.59ZM87.22,89.83c-2.79.85-10.71,3.16-11.52,6.49-.08.34-.07.65.04.92.1.26.3.49.58.66.57.35,1.46.47,2.62.23.34-.07.68.14.75.47.05.24-.04.48-.23.62-1.45,1.3-2.41,2.59-2.97,3.84-.57,1.27-.72,2.48-.55,3.56.18,1.07.67,2.02,1.4,2.8.58.62,1.32,1.13,2.16,1.49.57.25,1.21.42,1.87.53h0c1.91.3,4.12.03,6.13-.93,1.93-.92,3.68-2.49,4.79-4.78-.6.48-1.29.87-2.02,1.15-1.9.73-4.12.76-6.03-.21-2.21-1.12-3.09-3.33-3.17-5.72-.01-.46,0-.92.04-1.36.04-.43.1-.87.18-1.31,0-.02,0-.03,0-.05h0s0,0,0,0c.62-3.24,3.32-6.33,5.92-8.36ZM88.78,88.36c-4.56-.09-13.19-.08-15.56-4.88-.72-1.45-.76-2.82-.23-3.92.34-.69.86-1.27,1.51-1.69.64-.42,1.41-.68,2.24-.75,1.24-.1,2.61.23,3.9,1.16.05-1.09-.3-2.03-.87-2.74-.4-.5-.9-.88-1.44-1.14-.53-.25-1.11-.37-1.66-.34-.81.05-1.58.43-2.11,1.24-.19.28-.58.37-.87.18l-.03-.02c-1.29-.84-2.6-.86-3.62-.41-.47.21-.88.51-1.2.88l-.02.03c-.3.36-.51.78-.61,1.23-.21.92.07,1.99,1.09,2.94.25.23.26.62.02.87-.09.09-.2.15-.31.17h0c-1.54.35-2.4.87-2.69,1.47-.18.39-.11.85.18,1.34.35.59,1.03,1.41,1.93,2.01,5.16,3.44,13.16,4.2,20.36,2.39ZM38.51,55.89c0,3.17.34,5.55.95,8.23,3.92-1.27,9.31.26,10.66,4.51,1.05,3.3-.7,7.68-4.54,8.24,1.54,1.87,3.29,3.51,5.17,4.94,8.22-4.26,8.25-16.47,2-22.15-3.76-3.42-9.21-4.48-14.25-3.77ZM39.92,66.03c1.06,3.91,2.44,6.57,4.58,9.45,3.59.11,5.37-3.49,4.42-6.49-1.14-3.61-5.73-4.06-9-2.96ZM49.44,82.37c-2.02-1.59-3.87-3.42-5.48-5.5-1.19-.17-2.49-.69-3.88-1.7-.28-.2-.34-.59-.13-.86.21-.27.6-.33.88-.13.69.5,1.21.66,1.83.9-1.82-2.69-3.29-4.97-4.25-8.46-3.89,2.07-5.15,6.36-3.6,10.24.7,1.75,1.96,3.19,3.54,4.24,3.2,2.13,7.47,2.55,11.09,1.27ZM115.57,65.38c5.43,1.55,11.23.37,14.84-4.15,1.06-1.33,1.84-2.85,2.29-4.44.45-1.59.59-3.23.38-4.82-.85-6.48-8.26-10.71-14.43-8.05.1,1.14.13,1.92.15,3.06.03,1.52,0,3-.11,4.45-.1,1.35-.15,2.12-.36,3.43,3.91.99,6.85-1.81,4.9-5.22-.4-.7.44-1.13.84-.43.63,1.11.9,2.13.89,3.05-.05,3.37-3.82,5.11-6.92,4.39-.54,2.97-1.41,6.04-2.47,8.73ZM117.44,44.46c-1.95,1.08-3.35,2.61-3.38,4.85-.03,2.08,1.17,4,3.08,5.06.17-1.18.22-1.81.3-3.03.1-1.44.14-2.89.11-4.35-.02-.97-.03-1.57-.11-2.53ZM33.88,13.27c-.26.18-.52.36-.77.55-2.98,2.16-5.42,4.3-7.81,6.86,1.46,1.02,3.18,1.43,4.88.97.79-.21,1.05.69.26.9-2.11.57-4.42.59-6.21-.71-1.73,1.94-3,3.49-4.42,5.61,4.13,2.62,8.74,2.83,12.23.94,4.78-2.6,7.44-8.66,3.87-13.39-.58-.68-1.26-1.26-2.01-1.73ZM18.58,26.6c1.46-2.16,2.86-3.84,4.62-5.81-2.3-2.56-1.77-6.68.98-8.77,2.78-2.12,6.51-1.77,9.44-.27,3.19-2.14,6.54-3.96,10.13-5.39-3.57-2.03-7.58-3.04-11.75-3.19-6.02-.22-12.68,1.65-16.04,6.9-3.23,5.44-2.81,12.35,2.62,16.55ZM24.28,19.62c2.48-2.65,5.21-4.96,8.17-7.07-2.03-.79-4.74-.63-6.82.53-2.78,1.56-3.32,4.21-1.35,6.53ZM76.85,39.11c-.11.94-.22,1.43-.48,2.36.78-.34,1.53-.35,2.18-.13,1,.33,1.76,1.18,2.12,2.19.36,1,.34,2.16-.22,3.14-.51.89-1.45,1.62-2.93,1.88.45.42.78.87.99,1.33,0,.02.01.04.02.05.21.48.29.97.26,1.47-.04.5-.2,1-.47,1.48-.66,1.15-1.99,2.22-3.84,3.02-.32.14-.69,0-.83-.31-.08-.17-.07-.35,0-.51.53-1.37.4-2.27-.04-2.78-.36-.41-.95-.57-1.55-.49-.62.08-1.24.43-1.62,1.02-.56.87-.6,2.27.54,4.21.71.26,1.52.43,2.45.51,1.26.11,2.4.03,3.41-.22,1.83-.44,3.25-1.41,4.25-2.7,3.95-5.1,1.83-12.99-4.26-15.53ZM69.13,56c-.55-1.62-.33-2.91.26-3.82.59-.92,1.56-1.45,2.52-1.58,1-.13,2.02.16,2.67.91.53.6.81,1.48.64,2.65.95-.57,1.64-1.21,2.01-1.87.18-.32.29-.65.31-.97.02-.3-.03-.6-.15-.89,0-.01-.01-.03-.02-.04-.28-.62-.91-1.24-1.93-1.79-.22-.11-.37-.33-.35-.59.02-.34.32-.6.66-.58,2.01.11,3.13-.51,3.61-1.35.37-.65.38-1.45.13-2.14-.24-.67-.72-1.23-1.33-1.43-.66-.22-1.51,0-2.45.94-.16.18-.42.25-.67.18-.33-.11-.51-.45-.4-.78.86-2.59,1.55-5.47.84-7.75-.49-1.58-1.69-2.91-4.04-3.71.54.51.86,1.09,1.02,1.73.68,2.74-1.44,5.93-2.69,8.19-.19.35-.39.71-.66,1.2-1.07,1.95-1.92,4.43-2.14,6.82-.14,1.55-.02,3.06.49,4.36.35.9.89,1.69,1.67,2.33ZM67,3.28c3.36.76,6.18,2.04,8.16,3.54,1.3.99,2.25,2.1,2.76,3.23.54,1.19.6,2.41.09,3.58-.47,1.08-1.44,2.09-2.97,2.95.69.14,1.38.22,2.05.22.99,0,1.9-.16,2.64-.55.7-.36,1.24-.94,1.54-1.78,0-.02.01-.03.02-.05.15-.45.24-.98.24-1.59,0-.34.28-.61.63-.61.22,0,.42.11.53.28h0c.62.94,1.61,1.41,2.5,1.44.34.01.66-.04.94-.16h.03c.24-.12.43-.28.57-.49.29-.45.31-1.15-.11-2.13-.14-.31.01-.67.33-.81.22-.09.46-.05.64.08h0c1.17.91,2.15,1.16,2.77.98.27-.08.45-.24.55-.47.11-.27.1-.64-.06-1.07-.27-.72-.92-1.54-2.05-2.33-2.96-2.07-7.13-2.81-10.59-3.4-3.67-.62-7.44-.91-11.19-.88ZM313.09,56.91h0s0,0,0,0c0,.56-.24,1.07-.61,1.44-.38.37-.9.6-1.48.6h0s0,0,0,0h0c-.58,0-1.1-.23-1.48-.6-.38-.37-.61-.88-.61-1.44h0s0,0,0,0c0-1.07.83-2.07,2.07-2.08,1.23-.01,2.12.99,2.12,2.08ZM405.28,149.69c7.56,3.39,17.59,2.34,24.32-2.34,6.12-4.25,9.62-11.5,8.81-20.35-1.74-.13-2.9-1.51-2.9-3.22h0s0,0,0,0c0-1.26.58-2.32,1.73-2.85-1.21-4.07-3.19-7.75-5.76-10.91,1.86,2.93,2.94,6.34.37,8.32-2.53,1.96-6.47-.38-6.5-3.48,2.72,1.69,4.32.74,4.76-1.31.8-3.81-1.24-6.62-4.01-8.88-1.57-1.28-3.11-2.49-4.85-3.53-2.72,2.39-5.68,4.61-8.65,6.83-4.29,3.22-8.6,6.45-12.21,10.22,1.44-.99,3.05-1.85,4.84-2.58,2.21-.9,4.71-1.27,7.16-1.13,2.4.14,4.76.77,6.74,1.89,2.01,1.13,3.63,2.76,4.54,4.87.58,1.35.86,2.9.76,4.63-.05.79-.21,1.54-.47,2.23-.53,1.43-1.91,3.04-3.15,4.26-2.06,2.02-4.08,3.55-3.83,5.7.07.61.27,1.2.62,1.72.58.89,1.56,1.62,2.99,2.02.33.1.53.44.43.76-.03.09-.07.17-.13.24-1.3,1.62-3.07,2.23-4.81,2.11-1.02-.07-2.02-.38-2.92-.89-.89-.5-1.68-1.2-2.27-2.03-.71-1-1.12-2.19-1.06-3.47-1.46.53-3.52.21-5.43-.09-1.21-.19-2.36-.37-3.12-.29-1.87.21-3.26.87-4.22,1.91-.4.43-.73.92-1,1.49,1.98,3.59,5.47,6.48,9.23,8.17ZM236.22,5.48c.7.63,1.6,1.07,2.61,1.36-.99.29-1.87.71-2.57,1.32.17-.4.27-.83.27-1.29h0s0,0,0,0c0-.5-.11-.97-.32-1.39ZM235.28,6.86h0s0,0,0,0c0,.56-.23,1.07-.61,1.44-.38.37-.9.6-1.48.6h0s0,0,0,0h0s0,0,0,0c-.58,0-1.1-.23-1.48-.6-.38-.37-.61-.88-.61-1.44h0s0,0,0,0h0s0,0,0,0c0-.56.23-1.07.61-1.44.38-.37.9-.6,1.48-.6h0s0,0,0,0h0s0,0,0,0c.56,0,1.07.22,1.45.57.01.01.02.02.03.03.38.37.62.88.62,1.44ZM330.62,23.11c-3.23.33-10.16-1.31-8.33-5.07.64-1.31,2.59-1.58,5.42-.66-2.65-3.59-9.42-3.94-7.8,1.56-1.23-.38-2.33-1.25-3.26-2.49-1.5,5.35,4.64,8.23,9.91,7.96-5.75,1.58-11.55,2.4-17.14,1.96-1.15-.09-2.3-.25-3.43-.49-3.95-.82-7.68-2.53-10.33-5.08-3.56-3.42-4.85-8.42-3.17-12.99h18.24s0,.02,0,.02v.02s.02.03.02.03v.02c.74,1.82.63,3.42-.05,5-1.99,4.71-11.36,4.2-11.38-.71-.13-3.34,5.23-4.19,6.82-.86.35.73,1.22.24.87-.49-.72-2.37-2.32-3.06-4.27-3-.32,0-.65.05-1,.13h-.02c-2.12.48-3.64,2.09-3.66,4.21-.04,3.78,3.23,5.93,6.67,5.97,3.16.04,5.88-1.83,7.13-4.77.75-1.75.91-3.55.19-5.57h49.62c-.52.24-1.03.5-1.54.76-2.42,1.25-4.17,2.42-6.53,3.78-5.17,2.98-10.88,6-16.83,8.48-.14-.22-.31-.43-.5-.62-.6-.59-1.44-.96-2.37-.96h0s0,0,0,0h0c-.93,0-1.77.37-2.37.96-.61.59-.98,1.41-.98,2.31h0s0,0,0,0c0,.19.02.38.05.56ZM348.13,38.92c4.49,6.94-2.03,12.01-4.49,5.43,1.82,1.29,3.2.43,3.78-1.32.95-2.85-.84-6.32-3.97-8.17-.99-.59-2.07-1.09-3.22-1.48l-.05.16c-.98,2.97-1.63,6.07-1.97,9.24,2.59,1.24,4.45,3.64,4.49,6.53.03,2.69-1.47,5.75-4.04,6.93.53,2.98,1.39,6.07,2.46,8.76,5.75-2.01,9.05-6.22,10.32-10.72.69-2.46.77-5.09.27-7.63-.5-2.55-1.56-5.01-3.15-7.16-.14-.19-.29-.38-.44-.56ZM329.19,74.65c-1.78-1.57-2.31-3.72-.25-6.05,0,0-4.57.37-4.29,3.58.22,2.57,2.32,3.91,4.83,4.58-1.27-.24-2.49-.59-3.68-1.03-6.7-2.49-11.79-8.04-13.54-15.79.42-.17.8-.41,1.11-.72.6-.59.98-1.41.98-2.31h0s0,0,0,0c0-.9-.38-1.72-.98-2.31-.48-.47-1.1-.79-1.8-.91-.02-5.31,1.43-9.92,4.2-13.49,5.02-6.47,15.22-9.38,23.26-7.19l-.05.16c-.97,2.93-1.62,6-1.98,9.13l-.13-.04c-7.64-2.21-14.77,1.81-15.71,9.56-.23,1.75-.08,3.56.42,5.3.5,1.74,1.35,3.41,2.51,4.86,3.97,4.97,10.41,6.35,16.38,4.61,1.36,3.17,2.95,5.81,4.97,8.48-1.21.51-2.5.93-3.86,1.26-4.19,1.02-8.91,1.37-12.39-1.69ZM369.5,50.15c-2.25,1.38-6.59.4-8.17-4.02.85-.05,1.62-.4,2.18-.95.6-.59.98-1.41.98-2.31h0s0,0,0,0c0-.9-.38-1.72-.98-2.31-.26-.26-.57-.47-.9-.63,4.82-13.67,21.17-18.14,34.59-13.21-.54,3.34-.58,6.53-.37,9.82.13,2.11.4,4.16.77,6.12-2.96-3.73-7.69-6.08-12.5-6.38-.16,0-.32-.02-.47-.02-.11-.29-.19-.57-.26-.84-.52-2.08.17-3.73,3.74-4.58.34-.08.54-.41.46-.74-.15-.72-1.87-.54-3.41-.21-2.85.62-5.42,1.91-6.34,4.87-.26.83-.36,1.7-.35,2.61-7.6,1.85-9.34,12.55-5.08,18.04.7.9,1.57,1.66,2.6,2.24,1.94,1.09,3.89,1.22,5.78,2.65,1.67,1.27,2.47,3.02,1.1,5.83,2.64-.86,3.81-2.22,3.66-3.9-.17-1.91-1.87-2.92-3.88-3.48,2.93-.36,5.47-1.82,6.57-4.62.58-1.48.72-3.18.57-4.9-.24-2.57-1.14-5.22-2.28-7.3-.17-.32-.42-.76-.66-1.2-.62-1.11-.91-1.59-1.38-2.61,2.21.16,4.32.71,6.22,1.61,6.57,3.11,8.8,10.55,6.85,17.12-1.95,6.6-7.89,11.02-14.85,11.85-7.74.92-16.14-2.51-19.93-9.88-.99-1.92-1.71-4.05-2.12-6.34-.28-1.59-.42-3.25-.4-4.96v-.2c.92,6.04,6.1,8.17,8.27,2.85ZM357.52,84.43c.2-.42.37-1.02.37-1.51h0s0,0,0,0c0-.9-.38-1.72-.98-2.31-.61-.59-1.44-.96-2.37-.96h0s0,0,0,0h0c-.87,0-1.66.33-2.26.86-.67-.57-1.33-1.17-1.96-1.79-1.02-1-1.99-2.06-2.9-3.17,2.13-1.06,4.02-2.38,5.67-3.94.83-.79,1.6-1.63,2.3-2.53.71-.9,1.35-1.86,1.93-2.86v-.02c1.65-2.85,3.01-6.88,3.62-11.19.42,1.49.98,2.9,1.64,4.23,4.22,8.52,12.97,12.43,21.24,11.37,7.29-.93,14.21-6,16.33-12.97.79-2.58.95-5.44.41-8.44-.78-4.35-2.18-8.24-2.45-12.73-.19-3.11-.18-6.11.31-9.27,11.26,4.7,18.14,14.99,18.57,26.8-5.35-.71-11.1,1.14-15.08,4.77-6.48,5.9-6.99,19.21,1.36,24.1-2.45,1.7-4.71,2.84-7.48,3.91-2.25.87-4.59,1.56-6.94,2.06-2.35.5-4.72.82-7.04.98h-.02c-.86.06-1.71.09-2.55.1,3.64-.62,6.64-1.8,8.61-3.11,1.06-.7,1.84-1.46,2.28-2.21.51-.85.61-1.7.23-2.47-.37-.77-1.2-1.42-2.57-1.88.8-1.09.99-2.26.76-3.31-.14-.64-.45-1.24-.88-1.75,0-.01-.02-.03-.03-.04-.44-.51-1-.93-1.64-1.22-1.25-.55-2.81-.59-4.35.23-.75-.84-1.72-1.26-2.73-1.32-.77-.04-1.55.12-2.28.46-.71.34-1.37.84-1.89,1.49-.96,1.21-1.45,2.89-.94,4.84h0c.03.1.08.2.17.28.25.24.65.24.89,0,1.24-1.21,2.61-1.65,3.8-1.55.61.05,1.18.24,1.65.55.46.3.83.71,1.07,1.19.38.79.4,1.79-.14,2.87-1.72,3.48-7.44,4.39-12.47,4.37-4.6-.02-7.61-1-11.24-2.89ZM426.87,87.39c-.78-1.93-2.36-2.76-4.49-.34-.05-3.15,2.48-7.5,5.7-4.44,1.95,1.85,1.65,5.35.5,8.25,2.49-4.11,4.02-8.91,4.03-14.86,0-3.43-.57-6.38-1.61-8.95-2.21-5.49-6.33-9.56-12.35-10.86-.02,3.26-.46,5.73-1.11,8.48,4.66,2.28,6.12,8.09,4.31,12.63-.79,2-2.22,3.63-4,4.82-3.74,2.48-9.23,3.13-13.36,1.36-2.67,1.93-5.21,3.23-8.27,4.42-2.33.91-4.73,1.61-7.14,2.12-2.05.44-4.12.74-6.16.92,1.52.16,3.04.3,4.56.45,11.63,1.11,23.12,2.2,33.63,8.21.96-.87,1.88-1.76,2.76-2.68,2.74-2.87,4.67-5.39,3-9.54ZM309.99,5.9h-16.87c3.49-5.36,13.21-5.65,16.87,0ZM447.29,310.14c.65-.68,1.1-1.56,1.39-2.54.29.96.73,1.83,1.35,2.5-.4-.17-.85-.26-1.32-.27h0s0,0,0,0h0c-.51,0-.99.11-1.42.31ZM448.71,311.06h0s0,0,0,0h0c.58,0,1.1.23,1.48.6.38.37.61.88.61,1.44h0s0,0,0,0c0,.56-.24,1.07-.61,1.44-.38.37-.9.6-1.48.6h0s0,0,0,0h0c-.58,0-1.1-.23-1.48-.6-.38-.37-.61-.88-.61-1.44h0s0,0,0,0c0-.55.22-1.04.58-1.41.01,0,.02-.02.03-.03.38-.37.9-.6,1.48-.6ZM448.71,70.03h0s0,0,0,0h0c.87,0,1.65.34,2.22.9.57.55.92,1.32.92,2.17h0s0,0,0,0c0,1.68-1.42,3.07-3.14,3.07h0s0,0,0,0h0c-1.73,0-3.14-1.38-3.14-3.06h0s0,0,0,0c0-.84.35-1.61.92-2.17.57-.55,1.35-.9,2.22-.9ZM361.14,40.82h0s0,0,0,0h0c.58,0,1.1.23,1.48.6.38.37.61.88.61,1.44h0s0,0,0,0c0,.56-.24,1.07-.61,1.44-.38.37-.9.6-1.48.6h0s0,0,0,0h0c-.57,0-1.1-.23-1.48-.6h0s0,0,0,0c-.38-.37-.61-.88-.61-1.44h0s0,0,0,0c0-.55.22-1.04.58-1.41.01,0,.02-.02.03-.03.38-.37.9-.6,1.48-.6ZM333.92,20.5h0s0,0,0,0h0c.58,0,1.1.23,1.48.6.38.37.61.88.61,1.44h0s0,0,0,0c0,.56-.24,1.07-.61,1.44-.38.37-.9.6-1.48.6h0s0,0,0,0h0c-.57,0-1.1-.23-1.48-.6-.38-.37-.61-.88-.61-1.44h0s0,0,0,0c0-.56.24-1.07.61-1.44.38-.37.9-.6,1.48-.6ZM401.46,13.86h0s0,0,0,0h0c.56,0,1.07.22,1.45.57l.03.03c.38.37.61.88.61,1.44h0s0,0,0,0c0,.56-.23,1.07-.61,1.44-.38.37-.9.6-1.48.6h0s0,0,0,0h0c-.58,0-1.1-.23-1.48-.6-.38-.37-.61-.88-.61-1.44h0s0,0,0,0c0-.56.24-1.07.61-1.44.38-.37.9-.6,1.48-.6ZM354.53,80.87h0s0,0,0,0h0c.58,0,1.1.23,1.48.6.38.37.61.88.61,1.44h0s0,0,0,0c0,.55-.22,1.05-.59,1.41l-.03.03c-.38.37-.9.6-1.48.6h0s0,0,0,0h0c-.58,0-1.1-.23-1.48-.6-.38-.37-.61-.88-.61-1.44h0s0,0,0,0c0-.56.24-1.07.61-1.44.38-.37.9-.6,1.48-.6ZM438.87,121.74h0s0,0,0,0h0c.57,0,1.1.23,1.48.6.38.37.61.88.61,1.44h0s0,0,0,0c0,.55-.22,1.05-.59,1.41l-.03.03c-.38.37-.9.6-1.48.6h0s0,0,0,0h0c-.56,0-1.07-.22-1.45-.57l-.03-.03c-.38-.37-.62-.88-.62-1.44h0s0,0,0,0c0-.56.24-1.07.61-1.44.38-.37.9-.6,1.48-.6ZM396.62,123.25c1.16-1.35,2.47-2.57,3.96-3.66,1.51-1.1,3.22-2.06,5.15-2.84,2.03-.83,4.34-1.17,6.61-1.04,2.21.13,4.37.71,6.18,1.73,1.78,1,3.21,2.43,4,4.28.51,1.19.75,2.55.66,4.08-.21,3.53-4.85,6.98-7.88,5.94-1.08-.38-1.76-1.04-2.06-2.09-.17-.6-.22-1.24-.12-1.85.09-.59.31-1.15.66-1.59.49-.63,1.27-1.04,2.35-1.03.21,0,.42-.09.54-.27.19-.28.12-.66-.17-.85-1.96-1.29-3.93-1.76-5.63-1.58-1.15.12-2.18.54-3,1.21-.82.67-1.43,1.58-1.72,2.67-.35,1.29-.27,2.84.39,4.54-.98.05-1.9.16-2.76.35-3.25.69-5.74,2.31-7.42,4.54-.66.87-1.19,1.84-1.59,2.88-.71-2.09-1.03-4.32-.91-6.6.05-.98.18-1.98.4-2.97.09,0,.19.01.28.01h0s0,0,0,0h0c.93,0,1.76-.37,2.37-.96.6-.59.98-1.41.98-2.31h0s0,0,0,0c0-.9-.38-1.72-.98-2.31-.1-.09-.2-.18-.31-.27ZM394.55,123.78h0s0,0,0,0h0c.58,0,1.1.23,1.48.6.38.37.61.88.61,1.44h0s0,0,0,0c0,.56-.24,1.07-.61,1.44-.38.37-.9.6-1.48.6h0s0,0,0,0h0c-.58,0-1.1-.23-1.48-.6-.38-.37-.61-.88-.61-1.44h0s0,0,0,0c0-.56.24-1.07.61-1.44h0s0,0,0,0c.38-.37.9-.6,1.48-.6ZM395.78,139.61c.38-1.14.92-2.19,1.62-3.12,1.5-1.99,3.73-3.44,6.67-4.06,1.06-.23,2.21-.35,3.43-.35.35,0,.63-.27.63-.61,0-.09-.02-.18-.06-.26h0c-.86-1.76-1.02-3.32-.69-4.56.23-.84.68-1.53,1.31-2.04.63-.51,1.43-.83,2.33-.93,1.01-.11,2.14.07,3.32.58-.64.27-1.16.68-1.56,1.18-.48.61-.78,1.37-.9,2.16-.12.77-.06,1.59.16,2.36.4,1.41,1.37,2.66,2.88,3.18.44.16.91.25,1.39.27.31.02.63.01.95-.02-.6.74-1.04,1.56-1.29,2.4-.24.79-.32,1.6-.23,2.38.09.79.36,1.55.81,2.24.6.91,1.51,1.69,2.76,2.22-.92.8-2.04,1.1-3.15,1.03-.82-.05-1.64-.31-2.37-.73-.74-.42-1.39-.99-1.86-1.66-.82-1.17-1.14-2.66-.5-4.21.13-.32-.03-.67-.36-.8-.32-.12-.69.03-.82.35h0c-.7,1.37-3.31.95-5.65.58-1.31-.21-2.54-.4-3.47-.3-2.19.25-3.84,1.04-5.01,2.3-.12.13-.23.26-.34.4ZM398.45,117.9c.19-.77.33-1.55.39-2.29.07-.95,0-1.85-.28-2.64-.3-.84-.82-1.53-1.65-1.98-.52-.28-1.16-.47-1.93-.52-.34-.02-.66-.02-.97.02-1.22.14-2.14.7-2.76,1.53-.57.75-.89,1.7-.99,2.73-.95-1.37-1.36-3-1.3-4.59.04-1.23.37-2.44.93-3.47.56-1.02,1.35-1.87,2.33-2.41,1.29-.71,2.93-.9,4.85-.26.33.11.69-.06.8-.39h0s0-.02,0-.02c.26-.81.64-1.38,1.08-1.74.41-.34.87-.5,1.33-.51.48-.01.98.13,1.43.4.55.33,1.04.86,1.36,1.54h0c2.27,4.76-1.51,10.48-4.62,14.59ZM368.28,89.83c2.79.85,10.71,3.16,11.52,6.49.08.34.07.65-.04.92-.1.26-.3.49-.58.66-.57.35-1.46.47-2.62.23-.34-.07-.68.14-.75.47-.05.24.05.48.23.62,1.45,1.3,2.41,2.59,2.97,3.84.57,1.27.72,2.48.55,3.56-.18,1.07-.67,2.02-1.4,2.8-.58.62-1.32,1.13-2.16,1.49-.57.25-1.21.42-1.87.53h0c-1.91.3-4.12.03-6.13-.93-1.93-.92-3.68-2.49-4.79-4.78.6.48,1.29.87,2.02,1.15,1.9.73,4.12.76,6.03-.21,2.2-1.12,3.09-3.33,3.17-5.72.01-.46,0-.92-.04-1.36-.04-.43-.1-.87-.18-1.31,0-.02,0-.03,0-.05h0s0,0,0,0c-.62-3.24-3.32-6.33-5.92-8.36ZM366.71,88.36c4.56-.09,13.19-.08,15.56-4.88.72-1.45.76-2.82.23-3.92-.33-.69-.86-1.27-1.51-1.69-.65-.42-1.41-.68-2.24-.75-1.24-.1-2.61.23-3.9,1.16-.05-1.09.3-2.03.87-2.74.4-.5.9-.88,1.44-1.14.53-.25,1.11-.37,1.66-.34.81.05,1.58.43,2.11,1.24.19.28.58.37.87.18l.03-.02c1.29-.84,2.6-.86,3.62-.41.47.21.88.51,1.19.88l.02.03c.3.36.51.78.61,1.23.21.92-.07,1.99-1.09,2.94-.25.23-.26.62-.02.87.09.09.2.15.31.17h0c1.54.35,2.4.87,2.69,1.47.18.39.11.85-.18,1.34-.35.59-1.03,1.41-1.93,2.01-5.16,3.44-13.16,4.2-20.36,2.39ZM416.99,55.89c0,3.17-.34,5.55-.96,8.23-3.92-1.27-9.31.26-10.66,4.51-1.05,3.3.7,7.68,4.54,8.24-1.54,1.87-3.29,3.51-5.17,4.94-8.22-4.26-8.25-16.47-2-22.15,3.76-3.42,9.21-4.48,14.25-3.77ZM415.58,66.03c-1.06,3.91-2.44,6.57-4.58,9.45-3.59.11-5.37-3.49-4.42-6.49,1.14-3.61,5.73-4.06,9-2.96ZM406.05,82.37c2.02-1.59,3.87-3.42,5.48-5.5,1.19-.17,2.49-.69,3.88-1.7.28-.2.34-.59.13-.86-.21-.27-.6-.33-.88-.13-.7.5-1.21.66-1.84.9,1.82-2.69,3.29-4.97,4.25-8.46,3.89,2.07,5.15,6.36,3.6,10.24-.7,1.75-1.96,3.19-3.54,4.24-3.2,2.13-7.47,2.55-11.09,1.27ZM339.92,65.38c-5.43,1.55-11.23.37-14.84-4.15-1.06-1.33-1.84-2.85-2.29-4.44-.46-1.59-.59-3.23-.39-4.82.85-6.48,8.26-10.71,14.43-8.05-.1,1.14-.13,1.92-.15,3.06-.03,1.52.01,3,.11,4.45.1,1.35.15,2.12.36,3.43-3.91.99-6.85-1.81-4.9-5.22.4-.7-.44-1.13-.84-.43-.63,1.11-.9,2.13-.89,3.05.05,3.37,3.82,5.11,6.92,4.39.54,2.97,1.4,6.04,2.47,8.73ZM338.06,44.46c1.95,1.08,3.35,2.61,3.38,4.85.03,2.08-1.17,4-3.08,5.06-.17-1.18-.21-1.81-.3-3.03-.1-1.44-.14-2.89-.11-4.35.02-.97.03-1.57.11-2.53ZM421.61,13.27c.26.18.52.36.77.55,2.98,2.16,5.42,4.3,7.82,6.86-1.46,1.02-3.18,1.43-4.88.97-.79-.21-1.05.69-.26.9,2.11.57,4.42.59,6.21-.71,1.73,1.94,2.99,3.49,4.42,5.61-4.13,2.62-8.74,2.83-12.23.94-4.78-2.6-7.44-8.66-3.87-13.39.58-.68,1.26-1.26,2.01-1.73ZM436.91,26.6c-1.46-2.16-2.86-3.84-4.62-5.81,2.3-2.56,1.77-6.68-.98-8.77-2.78-2.12-6.51-1.77-9.44-.27-3.19-2.14-6.54-3.96-10.13-5.39,3.57-2.03,7.58-3.04,11.75-3.19,6.01-.22,12.68,1.65,16.04,6.9,3.23,5.44,2.81,12.35-2.62,16.55ZM431.21,19.62c-2.48-2.65-5.21-4.96-8.17-7.07,2.03-.79,4.74-.63,6.82.53,2.78,1.56,3.32,4.21,1.35,6.53ZM378.64,39.11c.11.94.22,1.43.48,2.36-.78-.34-1.53-.35-2.19-.13-1,.33-1.76,1.18-2.12,2.19-.36,1-.34,2.16.22,3.14.51.89,1.45,1.62,2.93,1.88-.45.42-.78.87-.99,1.33,0,.02-.01.04-.02.05-.21.48-.29.97-.26,1.47.04.5.2,1,.47,1.48.66,1.15,1.99,2.22,3.84,3.02.32.14.69,0,.83-.31.08-.17.07-.35,0-.51-.53-1.37-.4-2.27.04-2.78.36-.41.95-.57,1.55-.49.62.08,1.25.43,1.62,1.02.56.87.6,2.27-.54,4.21-.71.26-1.52.43-2.45.51-1.26.11-2.39.03-3.41-.22-1.83-.44-3.25-1.41-4.25-2.7-3.95-5.1-1.83-12.99,4.26-15.53ZM386.36,56c.55-1.62.33-2.91-.26-3.82-.59-.92-1.55-1.45-2.52-1.58-1-.13-2.02.16-2.67.91-.53.6-.81,1.48-.64,2.65-.95-.57-1.64-1.21-2.01-1.87-.18-.32-.29-.65-.31-.97-.02-.3.03-.6.15-.89,0-.01.01-.03.02-.04.28-.62.91-1.24,1.93-1.79.22-.11.37-.33.35-.59-.02-.34-.32-.6-.66-.58-2.01.11-3.13-.51-3.61-1.35-.37-.65-.38-1.45-.13-2.14.24-.67.72-1.23,1.33-1.43.66-.22,1.51,0,2.45.94.16.18.42.25.66.18.33-.11.51-.45.41-.78-.86-2.59-1.56-5.47-.84-7.75.49-1.58,1.69-2.91,4.04-3.71-.54.51-.86,1.09-1.02,1.73-.68,2.74,1.44,5.93,2.69,8.19.19.35.39.71.66,1.2,1.07,1.95,1.92,4.43,2.14,6.82.14,1.55.02,3.06-.49,4.36-.35.9-.89,1.69-1.66,2.33ZM388.5,3.28c-3.36.76-6.18,2.04-8.16,3.54-1.3.99-2.25,2.1-2.76,3.23-.54,1.19-.6,2.41-.09,3.58.47,1.08,1.44,2.09,2.97,2.95-.69.14-1.38.22-2.05.22-.99,0-1.9-.16-2.64-.55-.7-.36-1.24-.94-1.54-1.78,0-.02-.01-.03-.02-.05-.15-.45-.24-.98-.24-1.59,0-.34-.28-.61-.63-.61-.22,0-.42.11-.53.28h0c-.62.94-1.61,1.41-2.5,1.44-.34.01-.66-.04-.94-.16h-.03c-.24-.12-.44-.28-.57-.49-.29-.45-.31-1.15.11-2.13.14-.31-.01-.67-.33-.81-.22-.09-.46-.05-.64.08h0c-1.17.91-2.15,1.16-2.77.98-.27-.08-.46-.24-.55-.47-.11-.27-.1-.64.06-1.07.27-.72.91-1.54,2.05-2.33,2.96-2.07,7.13-2.81,10.59-3.4,3.68-.62,7.43-.91,11.19-.88ZM313.09,578.53h0s0,0,0,0c0-.56-.24-1.07-.61-1.44-.38-.37-.9-.6-1.48-.6h0s0,0,0,0h0c-.58,0-1.1.23-1.48.6-.38.37-.61.88-.61,1.44h0s0,0,0,0c0,1.07.83,2.07,2.07,2.08,1.23.01,2.12-.99,2.12-2.08ZM405.28,485.75c7.56-3.39,17.59-2.33,24.32,2.34,6.12,4.25,9.62,11.5,8.81,20.35-1.74.13-2.9,1.51-2.9,3.22h0s0,0,0,0c0,1.26.58,2.32,1.73,2.85-1.21,4.07-3.19,7.75-5.76,10.91,1.86-2.93,2.94-6.34.37-8.32-2.53-1.96-6.47.38-6.5,3.48,2.72-1.69,4.32-.74,4.76,1.31.8,3.81-1.24,6.62-4.01,8.88-1.57,1.28-3.11,2.49-4.85,3.53-2.72-2.39-5.68-4.61-8.65-6.83-4.29-3.22-8.6-6.45-12.21-10.22,1.44.99,3.05,1.85,4.84,2.58,2.21.9,4.71,1.27,7.16,1.13,2.4-.14,4.76-.77,6.74-1.89,2.01-1.13,3.63-2.76,4.54-4.87.58-1.35.86-2.9.76-4.63-.05-.79-.21-1.54-.47-2.23-.53-1.43-1.91-3.04-3.15-4.25-2.06-2.03-4.08-3.55-3.83-5.7.07-.61.27-1.2.62-1.72.58-.89,1.56-1.62,2.99-2.02.33-.09.53-.44.43-.76-.03-.09-.07-.17-.13-.23-1.3-1.62-3.07-2.23-4.81-2.11-1.02.07-2.02.38-2.92.89-.89.5-1.68,1.2-2.27,2.03-.71,1-1.12,2.19-1.06,3.47-1.46-.53-3.52-.21-5.43.09-1.21.19-2.36.37-3.12.29-1.87-.21-3.26-.87-4.22-1.91-.4-.43-.73-.92-1-1.49,1.98-3.59,5.47-6.48,9.23-8.17ZM236.22,629.97c.7-.63,1.6-1.07,2.61-1.36-.99-.29-1.87-.71-2.57-1.32.17.4.27.83.27,1.29h0s0,0,0,0c0,.5-.11.96-.32,1.39ZM235.28,628.58h0s0,0,0,0c0-.56-.23-1.07-.61-1.44-.38-.37-.9-.6-1.48-.6h0s0,0,0,0h0s0,0,0,0c-.58,0-1.1.23-1.48.6-.38.37-.61.88-.61,1.44h0s0,0,0,0c0,.56.23,1.07.61,1.44.38.37.9.6,1.48.6h0s0,0,0,0h0s0,0,0,0c.56,0,1.07-.22,1.45-.57.01-.01.02-.02.03-.03.38-.37.62-.88.62-1.44ZM330.62,612.33c-3.23-.33-10.16,1.31-8.33,5.07.64,1.31,2.59,1.58,5.42.66-2.65,3.59-9.42,3.94-7.8-1.56-1.23.38-2.33,1.25-3.26,2.49-1.5-5.35,4.64-8.23,9.91-7.96-5.75-1.58-11.55-2.4-17.14-1.96-1.15.09-2.3.25-3.43.49-3.95.82-7.68,2.53-10.33,5.08-3.56,3.42-4.85,8.42-3.17,12.99h18.24v-.02s.02-.03.02-.03v-.03s.02-.02.02-.02c.73-1.82.62-3.42-.05-5-1.99-4.72-11.36-4.2-11.38.71-.13,3.34,5.23,4.19,6.82.86.35-.73,1.22-.24.87.49-.72,2.37-2.32,3.06-4.27,3-.32,0-.65-.05-1-.13h-.02c-2.12-.48-3.64-2.09-3.66-4.21-.04-3.78,3.23-5.93,6.67-5.97,3.16-.04,5.88,1.83,7.13,4.77.75,1.75.91,3.55.19,5.57h49.62c-.52-.24-1.03-.5-1.54-.76-2.42-1.25-4.17-2.42-6.53-3.78-5.17-2.98-10.88-6-16.83-8.48-.14.23-.31.43-.5.62-.6.59-1.44.96-2.37.96h0s0,0,0,0h0c-.93,0-1.77-.37-2.37-.96-.61-.59-.98-1.41-.98-2.31h0s0,0,0,0c0-.19.02-.38.05-.56ZM348.13,596.53c4.49-6.94-2.03-12.01-4.49-5.43,1.82-1.29,3.2-.43,3.78,1.32.95,2.85-.84,6.32-3.97,8.17-.99.59-2.07,1.09-3.22,1.48l-.05-.16c-.98-2.97-1.63-6.07-1.97-9.24,2.59-1.24,4.45-3.64,4.49-6.53.03-2.68-1.47-5.75-4.04-6.93.53-2.98,1.39-6.07,2.46-8.76,5.75,2.01,9.05,6.22,10.32,10.72.69,2.46.77,5.09.27,7.63-.5,2.55-1.56,5.01-3.15,7.16-.14.19-.29.38-.44.56ZM329.19,560.79c-1.78,1.57-2.31,3.72-.25,6.05,0,0-4.57-.37-4.29-3.58.22-2.57,2.32-3.91,4.83-4.58-1.27.24-2.49.59-3.68,1.03-6.7,2.49-11.79,8.04-13.54,15.79.42.17.8.41,1.11.72.6.59.98,1.41.98,2.31h0s0,0,0,0c0,.9-.38,1.72-.98,2.31-.48.47-1.1.79-1.8.91-.02,5.31,1.43,9.92,4.2,13.49,5.02,6.47,15.22,9.38,23.26,7.19l-.05-.15c-.97-2.93-1.62-6-1.98-9.13l-.13.04c-7.64,2.21-14.77-1.81-15.71-9.56-.23-1.75-.08-3.56.42-5.31.5-1.74,1.35-3.41,2.51-4.86,3.97-4.97,10.41-6.35,16.38-4.61,1.36-3.17,2.95-5.81,4.97-8.48-1.21-.51-2.5-.93-3.86-1.26-4.19-1.02-8.91-1.38-12.39,1.68ZM369.5,585.3c-2.25-1.38-6.59-.4-8.17,4.02.85.05,1.62.4,2.18.95.6.59.98,1.41.98,2.31h0s0,0,0,0c0,.9-.38,1.72-.98,2.31-.26.26-.57.47-.9.63,4.82,13.67,21.17,18.14,34.59,13.21-.54-3.34-.58-6.53-.37-9.82.13-2.11.4-4.16.77-6.12-2.96,3.72-7.69,6.08-12.5,6.38-.16.01-.32.02-.47.02-.11.29-.19.57-.26.84-.52,2.08.17,3.73,3.74,4.58.34.08.54.41.46.74-.15.73-1.87.54-3.41.21-2.85-.62-5.42-1.91-6.34-4.87-.26-.83-.36-1.71-.35-2.61-7.6-1.85-9.34-12.55-5.08-18.04.7-.9,1.57-1.66,2.6-2.24,1.94-1.09,3.89-1.22,5.78-2.65,1.67-1.27,2.47-3.02,1.1-5.83,2.64.86,3.81,2.22,3.66,3.9-.17,1.91-1.87,2.92-3.88,3.48,2.93.36,5.47,1.82,6.57,4.62.58,1.48.72,3.18.57,4.9-.24,2.57-1.14,5.22-2.28,7.29-.17.32-.42.76-.66,1.2-.62,1.11-.91,1.59-1.38,2.61,2.21-.16,4.32-.71,6.22-1.61,6.57-3.11,8.8-10.55,6.85-17.12-1.95-6.6-7.89-11.02-14.85-11.85-7.74-.92-16.14,2.51-19.93,9.88-.99,1.92-1.71,4.05-2.12,6.34-.28,1.59-.42,3.25-.4,4.96v.2c.92-6.04,6.1-8.17,8.27-2.85ZM357.52,551.01c.2.42.37,1.02.37,1.51h0s0,0,0,0c0,.9-.38,1.72-.98,2.31-.61.59-1.44.96-2.37.96h0s0,0,0,0h0c-.87,0-1.66-.33-2.26-.86-.67.57-1.33,1.17-1.96,1.79-1.02,1-1.99,2.06-2.9,3.17,2.13,1.06,4.02,2.38,5.67,3.94.83.79,1.6,1.63,2.3,2.53.71.9,1.35,1.86,1.93,2.86v.02c1.65,2.85,3.01,6.88,3.62,11.19.42-1.49.98-2.9,1.64-4.23,4.22-8.52,12.97-12.43,21.24-11.37,7.29.93,14.21,6,16.33,12.97.79,2.58.95,5.44.41,8.44-.78,4.35-2.18,8.24-2.45,12.73-.19,3.11-.18,6.11.31,9.27,11.26-4.7,18.14-14.99,18.57-26.8-5.35.71-11.1-1.14-15.08-4.77-6.48-5.91-6.99-19.21,1.36-24.1-2.45-1.7-4.71-2.84-7.48-3.91-2.25-.87-4.59-1.55-6.94-2.06-2.35-.5-4.72-.82-7.04-.98h-.02c-.86-.06-1.71-.09-2.55-.1,3.64.62,6.64,1.79,8.61,3.11,1.06.7,1.84,1.46,2.28,2.21.51.85.61,1.7.23,2.47-.37.77-1.2,1.42-2.57,1.88.8,1.09.99,2.25.76,3.31-.14.64-.45,1.24-.88,1.75,0,.01-.02.03-.03.04-.44.51-1,.93-1.64,1.22-1.25.55-2.81.59-4.35-.23-.75.85-1.72,1.26-2.73,1.32-.77.04-1.55-.12-2.28-.46-.71-.34-1.37-.84-1.89-1.49-.96-1.21-1.45-2.89-.94-4.84h0c.03-.1.08-.2.17-.28.25-.24.65-.24.89,0,1.24,1.21,2.61,1.65,3.8,1.55.61-.05,1.18-.24,1.65-.55.46-.3.83-.71,1.07-1.19.38-.79.4-1.79-.14-2.87-1.72-3.48-7.44-4.39-12.47-4.37-4.6.02-7.61,1-11.24,2.89ZM426.87,548.06c-.78,1.93-2.36,2.76-4.49.34-.05,3.15,2.48,7.5,5.7,4.44,1.95-1.85,1.65-5.35.5-8.25,2.49,4.11,4.02,8.91,4.03,14.86,0,3.43-.57,6.38-1.61,8.95-2.21,5.49-6.33,9.56-12.35,10.86-.02-3.27-.46-5.73-1.11-8.48,4.66-2.28,6.12-8.09,4.31-12.63-.79-2-2.22-3.63-4-4.81-3.74-2.48-9.23-3.13-13.36-1.36-2.67-1.93-5.21-3.23-8.27-4.42-2.33-.91-4.73-1.61-7.14-2.12-2.05-.44-4.12-.74-6.16-.92,1.52-.16,3.04-.3,4.56-.45,11.63-1.11,23.12-2.2,33.63-8.21.96.87,1.88,1.75,2.76,2.68,2.74,2.87,4.67,5.39,3,9.54ZM309.99,629.55h-16.87c3.49,5.36,13.21,5.65,16.87,0ZM447.29,325.31c.65.68,1.1,1.56,1.39,2.54.29-.96.73-1.83,1.35-2.5-.4.17-.85.26-1.32.27h0s0,0,0,0h0c-.51,0-.99-.11-1.42-.31ZM448.71,324.39h0s0,0,0,0h0c.58,0,1.1-.23,1.48-.6.38-.37.61-.88.61-1.44h0s0,0,0,0c0-.56-.24-1.07-.61-1.44-.38-.37-.9-.6-1.48-.6h0s0,0,0,0h0c-.58,0-1.1.23-1.48.6-.38.37-.61.88-.61,1.44h0s0,0,0,0c0,.55.22,1.04.58,1.41.01,0,.02.02.03.03.38.37.9.6,1.48.6ZM448.71,565.41h0s0,0,0,0h0c.87,0,1.65-.34,2.22-.9.57-.55.92-1.32.92-2.17h0s0,0,0,0c0-1.68-1.42-3.07-3.14-3.07h0s0,0,0,0h0c-1.73,0-3.14,1.38-3.14,3.06h0s0,0,0,0c0,.85.35,1.61.92,2.17.57.55,1.35.9,2.22.9ZM361.14,594.62h0s0,0,0,0h0c.58,0,1.1-.23,1.48-.6.38-.37.61-.88.61-1.44h0s0,0,0,0c0-.56-.24-1.07-.61-1.44-.38-.37-.9-.6-1.48-.6h0s0,0,0,0h0c-.57,0-1.1.23-1.48.6h0s0,0,0,0c-.38.37-.61.88-.61,1.44h0s0,0,0,0c0,.55.22,1.04.58,1.41.01,0,.02.02.03.03.38.37.9.6,1.48.6ZM333.92,614.94h0s0,0,0,0h0c.58,0,1.1-.23,1.48-.6.38-.37.61-.88.61-1.44h0s0,0,0,0c0-.56-.24-1.07-.61-1.44-.38-.37-.9-.6-1.48-.6h0s0,0,0,0h0c-.57,0-1.1.23-1.48.6-.38.37-.61.88-.61,1.44h0s0,0,0,0c0,.56.24,1.07.61,1.44.38.37.9.6,1.48.6ZM401.46,621.59h0s0,0,0,0h0c.56,0,1.07-.21,1.45-.57l.03-.03c.38-.37.61-.88.61-1.44h0s0,0,0,0c0-.56-.23-1.07-.61-1.44-.38-.37-.9-.6-1.48-.6h0s0,0,0,0h0c-.58,0-1.1.23-1.48.6-.38.37-.61.88-.61,1.44h0s0,0,0,0c0,.56.24,1.07.61,1.44.38.37.9.6,1.48.6ZM354.53,554.57h0s0,0,0,0h0c.58,0,1.1-.23,1.48-.6s.61-.88.61-1.44h0s0,0,0,0c0-.55-.22-1.05-.59-1.41l-.03-.03c-.38-.37-.9-.6-1.48-.6h0s0,0,0,0h0c-.58,0-1.1.23-1.48.6-.38.37-.61.88-.61,1.44h0s0,0,0,0c0,.56.24,1.07.61,1.44.38.37.9.6,1.48.6ZM438.87,513.7h0s0,0,0,0h0c.57,0,1.1-.23,1.48-.6.38-.37.61-.88.61-1.44h0s0,0,0,0c0-.55-.22-1.05-.59-1.41l-.03-.03c-.38-.37-.9-.6-1.48-.6h0s0,0,0,0h0c-.56,0-1.07.22-1.45.57l-.03.03c-.38.37-.62.88-.62,1.44h0s0,0,0,0c0,.56.24,1.07.61,1.44.38.37.9.6,1.48.6ZM396.62,512.2c1.16,1.35,2.47,2.57,3.96,3.66,1.51,1.1,3.22,2.06,5.15,2.84,2.03.83,4.34,1.17,6.61,1.04,2.21-.13,4.37-.71,6.18-1.73,1.78-1,3.21-2.43,4-4.28.51-1.19.75-2.55.66-4.09-.21-3.52-4.85-6.98-7.88-5.93-1.08.38-1.76,1.04-2.06,2.09-.17.6-.22,1.25-.12,1.85.09.59.31,1.15.66,1.59.49.63,1.27,1.04,2.35,1.03.21,0,.42.09.54.27.19.28.12.66-.17.85-1.96,1.29-3.93,1.76-5.63,1.58-1.15-.12-2.18-.54-3-1.21-.82-.67-1.43-1.58-1.72-2.67-.35-1.29-.27-2.84.39-4.54-.98-.05-1.9-.16-2.76-.35-3.25-.69-5.74-2.31-7.42-4.54-.66-.88-1.19-1.84-1.59-2.88-.71,2.09-1.03,4.32-.91,6.6.05.98.18,1.98.4,2.97.09,0,.19-.01.28-.01h0s0,0,0,0h0c.93,0,1.76.37,2.37.96.6.59.98,1.41.98,2.31h0s0,0,0,0c0,.9-.38,1.72-.98,2.31-.1.09-.2.18-.31.27ZM394.55,511.66h0s0,0,0,0h0c.58,0,1.1-.23,1.48-.6.38-.37.61-.88.61-1.44h0s0,0,0,0c0-.56-.24-1.07-.61-1.44-.38-.37-.9-.6-1.48-.6h0s0,0,0,0h0c-.58,0-1.1.23-1.48.6-.38.37-.61.88-.61,1.44h0s0,0,0,0c0,.56.24,1.07.61,1.44h0s0,0,0,0c.38.37.9.6,1.48.6ZM395.78,495.83c.38,1.14.92,2.19,1.62,3.12,1.5,1.99,3.73,3.44,6.67,4.06,1.06.23,2.21.35,3.43.35.35,0,.63.27.63.61,0,.09-.02.18-.06.26h0c-.86,1.76-1.02,3.32-.69,4.56.23.84.68,1.53,1.31,2.04.63.51,1.43.83,2.33.93,1.01.11,2.14-.07,3.32-.58-.64-.26-1.16-.68-1.56-1.18-.48-.62-.78-1.37-.9-2.16-.12-.77-.06-1.59.16-2.36.4-1.41,1.37-2.66,2.88-3.18.44-.16.91-.24,1.39-.27.31-.02.63-.01.95.02-.6-.74-1.04-1.56-1.29-2.4-.24-.79-.32-1.6-.23-2.38.09-.79.36-1.55.81-2.24.6-.91,1.51-1.69,2.76-2.22-.92-.8-2.04-1.1-3.15-1.03-.82.05-1.64.31-2.37.73-.74.42-1.39.99-1.86,1.66-.82,1.16-1.14,2.66-.5,4.21.13.32-.03.67-.36.8-.32.12-.69-.03-.82-.35h0c-.7-1.37-3.31-.95-5.65-.58-1.31.21-2.54.4-3.47.3-2.19-.25-3.84-1.04-5.01-2.31-.12-.13-.23-.26-.34-.4ZM398.45,517.55c.19.77.33,1.55.39,2.29.07.95,0,1.85-.28,2.64-.3.84-.82,1.53-1.65,1.98-.52.28-1.16.47-1.93.52-.34.02-.66.02-.97-.02-1.22-.14-2.14-.7-2.76-1.53-.57-.75-.89-1.7-.99-2.73-.95,1.37-1.36,3-1.3,4.59.04,1.23.37,2.44.93,3.47.56,1.02,1.35,1.87,2.33,2.41,1.29.71,2.93.9,4.85.26.33-.11.69.06.8.39h0s0,.02,0,.02c.26.81.64,1.38,1.08,1.74.41.33.87.5,1.33.51.48.01.98-.13,1.43-.4.55-.33,1.04-.86,1.36-1.54h0c2.27-4.76-1.51-10.48-4.62-14.59ZM368.28,545.61c2.79-.85,10.71-3.16,11.52-6.49.08-.34.07-.65-.04-.92-.1-.26-.3-.49-.58-.66-.57-.35-1.46-.47-2.62-.23-.34.07-.68-.14-.75-.47-.05-.24.05-.48.23-.62,1.45-1.3,2.41-2.59,2.97-3.84.57-1.27.72-2.48.55-3.56-.18-1.07-.67-2.02-1.4-2.8-.58-.62-1.32-1.13-2.16-1.49-.57-.25-1.21-.42-1.87-.53h0c-1.91-.3-4.12-.03-6.13.93-1.93.92-3.68,2.49-4.79,4.78.6-.48,1.29-.87,2.02-1.15,1.9-.73,4.12-.76,6.03.21,2.2,1.12,3.09,3.33,3.17,5.73.01.46,0,.92-.04,1.36-.04.43-.1.87-.18,1.31,0,.02,0,.03,0,.05h0s0,0,0,0c-.62,3.24-3.32,6.33-5.92,8.36ZM366.71,547.08c4.56.09,13.19.08,15.56,4.88.72,1.45.76,2.82.23,3.92-.33.69-.86,1.27-1.51,1.69-.65.42-1.41.69-2.24.75-1.24.1-2.61-.23-3.9-1.16-.05,1.09.3,2.03.87,2.74.4.5.9.88,1.44,1.14.53.25,1.11.37,1.66.34.81-.04,1.58-.43,2.11-1.24.19-.28.58-.36.87-.18l.03.02c1.29.84,2.6.86,3.62.41.47-.2.88-.51,1.19-.88l.02-.03c.3-.36.51-.78.61-1.23.21-.92-.07-1.99-1.09-2.94-.25-.23-.26-.62-.02-.87.09-.09.2-.15.31-.17h0c1.54-.35,2.4-.87,2.69-1.47.18-.39.11-.85-.18-1.34-.35-.59-1.03-1.41-1.93-2.01-5.16-3.44-13.16-4.19-20.36-2.39ZM416.99,579.56c0-3.17-.34-5.55-.96-8.22-3.92,1.27-9.31-.26-10.66-4.51-1.05-3.3.7-7.68,4.54-8.24-1.54-1.87-3.29-3.51-5.17-4.94-8.22,4.26-8.25,16.47-2,22.15,3.76,3.42,9.21,4.48,14.25,3.77ZM415.58,569.41c-1.06-3.91-2.44-6.57-4.58-9.45-3.59-.11-5.37,3.49-4.42,6.49,1.14,3.61,5.73,4.06,9,2.96ZM406.05,553.07c2.02,1.59,3.87,3.42,5.48,5.5,1.19.17,2.49.7,3.88,1.7.28.2.34.59.13.86-.21.27-.6.33-.88.13-.7-.5-1.21-.66-1.84-.9,1.82,2.69,3.29,4.97,4.25,8.46,3.89-2.07,5.15-6.36,3.6-10.24-.7-1.75-1.96-3.19-3.54-4.24-3.2-2.13-7.47-2.55-11.09-1.27ZM339.92,570.07c-5.43-1.55-11.23-.37-14.84,4.15-1.06,1.33-1.84,2.85-2.29,4.44-.46,1.59-.59,3.23-.39,4.82.85,6.48,8.26,10.71,14.43,8.05-.1-1.14-.13-1.92-.15-3.06-.03-1.52.01-3,.11-4.45.1-1.35.15-2.12.36-3.43-3.91-.99-6.85,1.81-4.9,5.22.4.7-.44,1.13-.84.43-.63-1.11-.9-2.13-.89-3.05.05-3.37,3.82-5.11,6.92-4.39.54-2.97,1.4-6.04,2.47-8.73ZM338.06,590.98c1.95-1.08,3.35-2.61,3.38-4.85.03-2.08-1.17-4-3.08-5.06-.17,1.18-.21,1.81-.3,3.03-.1,1.44-.14,2.89-.11,4.35.02.97.03,1.57.11,2.53ZM421.61,622.17c.26-.18.52-.36.77-.55,2.98-2.16,5.42-4.3,7.82-6.86-1.46-1.02-3.18-1.43-4.88-.97-.79.21-1.05-.69-.26-.9,2.11-.57,4.42-.59,6.21.71,1.73-1.94,2.99-3.49,4.42-5.61-4.13-2.62-8.74-2.83-12.23-.94-4.78,2.6-7.44,8.66-3.87,13.39.58.68,1.26,1.27,2.01,1.73ZM436.91,608.84c-1.46,2.16-2.86,3.84-4.62,5.81,2.3,2.56,1.77,6.67-.98,8.77-2.78,2.12-6.51,1.77-9.44.27-3.19,2.14-6.54,3.96-10.13,5.39,3.57,2.03,7.58,3.04,11.75,3.19,6.01.22,12.68-1.65,16.04-6.9,3.23-5.44,2.81-12.35-2.62-16.55ZM431.21,615.82c-2.48,2.66-5.21,4.96-8.17,7.07,2.03.79,4.74.63,6.82-.53,2.78-1.56,3.32-4.21,1.35-6.53ZM378.64,596.34c.11-.94.22-1.43.48-2.36-.78.34-1.53.35-2.19.13-1-.33-1.76-1.18-2.12-2.19-.36-1-.34-2.16.22-3.14.51-.89,1.45-1.62,2.93-1.88-.45-.42-.78-.87-.99-1.33,0-.02-.01-.04-.02-.05-.21-.48-.29-.97-.26-1.47.04-.5.2-1,.47-1.48.66-1.15,1.99-2.22,3.84-3.02.32-.14.69,0,.83.31.08.17.07.35,0,.5-.53,1.37-.4,2.28.04,2.78.36.41.95.57,1.55.49.62-.08,1.25-.43,1.62-1.02.56-.87.6-2.27-.54-4.21-.71-.26-1.52-.43-2.45-.51-1.26-.11-2.39-.03-3.41.22-1.83.44-3.25,1.41-4.25,2.7-3.95,5.1-1.83,12.99,4.26,15.53ZM386.36,579.44c.55,1.62.33,2.91-.26,3.82-.59.91-1.55,1.45-2.52,1.58-1,.13-2.02-.16-2.67-.91-.53-.6-.81-1.48-.64-2.65-.95.57-1.64,1.21-2.01,1.87-.18.32-.29.65-.31.97-.02.3.03.6.15.89,0,.01.01.03.02.04.28.62.91,1.24,1.93,1.79.22.11.37.33.35.59-.02.34-.32.6-.66.58-2.01-.11-3.13.51-3.61,1.35-.37.65-.38,1.45-.13,2.14.24.67.72,1.23,1.33,1.43.66.22,1.51,0,2.45-.94.16-.18.42-.25.66-.18.33.11.51.45.41.78-.86,2.59-1.56,5.47-.84,7.75.49,1.58,1.69,2.91,4.04,3.71-.54-.51-.86-1.09-1.02-1.73-.68-2.74,1.44-5.93,2.69-8.19.19-.35.39-.71.66-1.2,1.07-1.95,1.92-4.43,2.14-6.82.14-1.55.02-3.06-.49-4.36-.35-.9-.89-1.69-1.66-2.33ZM388.5,632.16c-3.36-.75-6.18-2.03-8.16-3.54-1.3-.99-2.25-2.1-2.76-3.23-.54-1.19-.6-2.41-.09-3.58.47-1.08,1.44-2.09,2.97-2.95-.69-.14-1.38-.22-2.05-.22-.99,0-1.9.16-2.64.55-.7.36-1.24.94-1.54,1.78,0,.02-.01.03-.02.05-.15.45-.24.98-.24,1.59,0,.34-.28.61-.63.61-.22,0-.42-.11-.53-.28h0c-.62-.94-1.61-1.41-2.5-1.44-.34-.01-.66.04-.94.16h-.03c-.24.12-.44.28-.57.49-.29.45-.31,1.15.11,2.13.14.31-.01.67-.33.81-.22.09-.46.05-.64-.08h0c-1.17-.91-2.15-1.16-2.77-.98-.27.08-.46.24-.55.47-.11.27-.1.64.06,1.07.27.72.91,1.54,2.05,2.33,2.96,2.07,7.13,2.81,10.59,3.4,3.68.62,7.43.91,11.19.88ZM353.5,621c-.99-1.55-1.9-3.35-2.46-5.1-.48-1.5-.71-2.97-.54-4.24.18-1.36.82-2.5,2.07-3.2.69-.39,1.56-.63,2.64-.71-.74-.57-1.58-1-2.43-1.22-.56-.14-1.12-.19-1.64-.12-.5.07-.96.25-1.35.57-.51.41-.92,1.05-1.16,1.96-.09.33-.43.53-.77.44-.15-.04-.27-.13-.36-.24-.64-.84-1.2-1.19-1.62-1.17-.16,0-.31.08-.43.22-.16.18-.29.45-.36.8-.89,4.23,5.75,9.89,8.39,12.01ZM353.5,14.44c-.99,1.55-1.9,3.35-2.46,5.1-.48,1.5-.71,2.97-.54,4.24.18,1.36.82,2.5,2.07,3.2.69.39,1.56.64,2.64.71-.74.57-1.58,1-2.43,1.22-.56.14-1.12.19-1.64.12-.5-.07-.96-.25-1.35-.57-.51-.41-.92-1.05-1.16-1.96-.09-.33-.43-.52-.77-.44-.15.04-.27.13-.36.24-.64.84-1.2,1.19-1.62,1.17-.16,0-.31-.08-.43-.22-.16-.18-.29-.45-.36-.8-.89-4.23,5.75-9.89,8.39-12.01ZM142.4,578.53h0s0,0,0,0c0-.56.24-1.07.61-1.44s.9-.6,1.48-.6h0s0,0,0,0h0c.58,0,1.1.23,1.48.6.38.37.61.88.61,1.44h0s0,0,0,0c0,1.07-.83,2.07-2.07,2.08-1.23.01-2.12-.99-2.12-2.08ZM50.21,485.75c-7.56-3.39-17.59-2.33-24.32,2.34-6.12,4.25-9.62,11.5-8.81,20.35,1.74.13,2.9,1.51,2.9,3.22h0s0,0,0,0c0,1.26-.58,2.32-1.73,2.85,1.21,4.07,3.19,7.75,5.76,10.91-1.86-2.93-2.94-6.34-.37-8.32,2.53-1.96,6.47.38,6.5,3.48-2.72-1.69-4.32-.74-4.76,1.31-.8,3.81,1.24,6.62,4.01,8.88,1.57,1.28,3.11,2.49,4.85,3.53,2.73-2.39,5.68-4.61,8.65-6.83,4.29-3.22,8.6-6.45,12.21-10.22-1.44.99-3.05,1.85-4.84,2.58-2.21.9-4.71,1.27-7.16,1.13-2.4-.14-4.76-.77-6.74-1.89-2.01-1.13-3.63-2.76-4.54-4.87-.58-1.35-.86-2.9-.76-4.63.05-.79.21-1.54.47-2.23.53-1.43,1.91-3.04,3.15-4.25,2.06-2.03,4.08-3.55,3.83-5.7-.07-.61-.27-1.2-.62-1.72-.58-.89-1.56-1.62-2.99-2.02-.33-.09-.52-.44-.43-.76.03-.09.07-.17.13-.23,1.3-1.62,3.07-2.23,4.81-2.11,1.02.07,2.02.38,2.92.89.89.5,1.68,1.2,2.27,2.03.71,1,1.12,2.19,1.06,3.47,1.46-.53,3.52-.21,5.43.09,1.21.19,2.36.37,3.12.29,1.87-.21,3.26-.87,4.22-1.91.4-.43.73-.92,1-1.49-1.98-3.59-5.47-6.48-9.23-8.17ZM219.27,629.97c-.7-.63-1.6-1.07-2.61-1.36.99-.29,1.87-.71,2.57-1.32-.17.4-.27.83-.27,1.29h0s0,0,0,0h0s0,0,0,0c0,.5.11.96.32,1.39ZM220.22,628.58h0s0,0,0,0c0-.56.24-1.07.62-1.44.38-.37.9-.6,1.48-.6h0s0,0,0,0h0c.58,0,1.1.23,1.48.6.38.37.61.88.61,1.44h0,0s0,0,0,0h0c0,.56-.24,1.07-.61,1.44-.38.37-.9.6-1.48.6h0s0,0,0,0h0s0,0,0,0c-.56,0-1.07-.22-1.45-.57,0-.01-.02-.02-.03-.03-.38-.37-.62-.88-.62-1.44ZM124.88,612.33c3.23-.33,10.16,1.31,8.33,5.07-.64,1.31-2.59,1.58-5.42.66,2.65,3.59,9.42,3.94,7.8-1.56,1.23.38,2.33,1.25,3.26,2.49,1.5-5.35-4.64-8.23-9.91-7.96,5.74-1.58,11.54-2.4,17.14-1.96,1.15.09,2.3.25,3.43.49,3.95.82,7.68,2.53,10.34,5.08,3.56,3.42,4.85,8.42,3.17,12.99h-18.24v-.02s-.02-.03-.02-.03v-.03s-.02-.02-.02-.02c-.73-1.82-.62-3.42.05-5,1.99-4.72,11.36-4.2,11.38.71.13,3.34-5.23,4.19-6.82.86-.35-.73-1.22-.24-.87.49.72,2.37,2.32,3.06,4.27,3,.32,0,.65-.05,1-.13h.02c2.12-.48,3.64-2.09,3.66-4.21.05-3.78-3.23-5.93-6.67-5.97-3.17-.04-5.88,1.83-7.13,4.77-.75,1.75-.91,3.55-.19,5.57h-49.62c.52-.24,1.03-.5,1.54-.76,2.42-1.25,4.17-2.42,6.53-3.78,5.17-2.98,10.88-6,16.83-8.48.14.23.31.43.5.62.6.59,1.44.96,2.37.96h0s0,0,0,0h0c.93,0,1.77-.37,2.37-.96.61-.59.98-1.41.98-2.31h0s0,0,0,0c0-.19-.02-.38-.05-.56ZM107.36,596.53c-4.49-6.94,2.03-12.01,4.49-5.43-1.82-1.29-3.2-.43-3.78,1.32-.95,2.85.84,6.32,3.97,8.17.99.59,2.07,1.09,3.22,1.48l.05-.16c.98-2.97,1.63-6.07,1.97-9.24-2.59-1.24-4.45-3.64-4.49-6.53-.04-2.68,1.47-5.75,4.04-6.93-.53-2.98-1.39-6.07-2.46-8.76-5.75,2.01-9.05,6.22-10.32,10.72-.69,2.46-.77,5.09-.27,7.63.49,2.55,1.56,5.01,3.15,7.16.14.19.29.38.43.56ZM126.31,560.79c1.78,1.57,2.31,3.72.25,6.05,0,0,4.57-.37,4.29-3.58-.22-2.57-2.32-3.91-4.83-4.58,1.27.24,2.49.59,3.68,1.03,6.7,2.49,11.79,8.04,13.54,15.79-.42.17-.8.41-1.11.72-.6.59-.98,1.41-.98,2.31h0s0,0,0,0c0,.9.38,1.72.98,2.31.48.47,1.1.79,1.8.91.02,5.31-1.43,9.92-4.2,13.49-5.02,6.47-15.22,9.38-23.26,7.19l.05-.15c.97-2.93,1.62-6,1.98-9.13l.13.04c7.64,2.21,14.77-1.81,15.71-9.56.23-1.75.08-3.56-.42-5.31-.5-1.74-1.35-3.41-2.51-4.86-3.97-4.97-10.41-6.35-16.38-4.61-1.36-3.17-2.95-5.81-4.97-8.48,1.21-.51,2.5-.93,3.86-1.26,4.19-1.02,8.91-1.38,12.39,1.68ZM86,585.3c2.25-1.38,6.59-.4,8.17,4.02-.85.05-1.62.4-2.18.95-.6.59-.98,1.41-.98,2.31h0s0,0,0,0c0,.9.38,1.72.98,2.31.26.26.57.47.9.63-4.82,13.67-21.17,18.14-34.59,13.21.54-3.34.58-6.53.37-9.82-.13-2.11-.4-4.16-.77-6.12,2.96,3.72,7.69,6.08,12.5,6.38.16.01.31.02.47.02.1.29.19.57.26.84.52,2.08-.17,3.73-3.74,4.58-.34.08-.55.41-.46.74.15.73,1.87.54,3.41.21,2.85-.62,5.42-1.91,6.34-4.87.26-.83.36-1.71.35-2.61,7.6-1.85,9.34-12.55,5.08-18.04-.7-.9-1.57-1.66-2.6-2.24-1.94-1.09-3.89-1.22-5.78-2.65-1.67-1.27-2.47-3.02-1.1-5.83-2.64.86-3.81,2.22-3.66,3.9.17,1.91,1.87,2.92,3.88,3.48-2.93.36-5.47,1.82-6.57,4.62-.58,1.48-.72,3.18-.57,4.9.24,2.57,1.14,5.22,2.28,7.29.17.32.42.76.66,1.2.62,1.11.91,1.59,1.38,2.61-2.21-.16-4.32-.71-6.22-1.61-6.57-3.11-8.8-10.55-6.85-17.12,1.95-6.6,7.89-11.02,14.85-11.85,7.74-.92,16.14,2.51,19.93,9.88.99,1.92,1.71,4.05,2.12,6.34.28,1.59.42,3.25.4,4.96v.2c-.92-6.04-6.1-8.17-8.27-2.85ZM97.98,551.01c-.2.42-.37,1.02-.37,1.51h0s0,0,0,0c0,.9.38,1.72.98,2.31.61.59,1.44.96,2.37.96h0s0,0,0,0h0c.87,0,1.67-.33,2.26-.86.68.57,1.33,1.17,1.97,1.79,1.02,1,1.99,2.06,2.9,3.17-2.13,1.06-4.02,2.38-5.67,3.94-.83.79-1.6,1.63-2.3,2.53-.71.9-1.35,1.86-1.93,2.86v.02c-1.65,2.85-3.01,6.88-3.62,11.19-.42-1.49-.98-2.9-1.64-4.23-4.22-8.52-12.97-12.43-21.24-11.37-7.29.93-14.21,6-16.33,12.97-.79,2.58-.95,5.44-.41,8.44.78,4.35,2.18,8.24,2.45,12.73.19,3.11.18,6.11-.31,9.27-11.26-4.7-18.14-14.99-18.57-26.8,5.35.71,11.1-1.14,15.08-4.77,6.48-5.91,6.99-19.21-1.36-24.1,2.45-1.7,4.71-2.84,7.48-3.91,2.25-.87,4.59-1.55,6.94-2.06,2.35-.5,4.72-.82,7.04-.98h.02c.86-.06,1.71-.09,2.55-.1-3.64.62-6.64,1.79-8.61,3.11-1.06.7-1.84,1.46-2.28,2.21-.51.85-.61,1.7-.23,2.47.37.77,1.2,1.42,2.57,1.88-.8,1.09-.99,2.25-.76,3.31.14.64.45,1.24.88,1.75.01.01.02.03.03.04.44.51,1,.93,1.64,1.22,1.25.55,2.81.59,4.35-.23.75.85,1.72,1.26,2.73,1.32.77.04,1.55-.12,2.28-.46.71-.34,1.37-.84,1.89-1.49.96-1.21,1.45-2.89.94-4.84h0c-.03-.1-.08-.2-.17-.28-.25-.24-.65-.24-.89,0-1.24,1.21-2.61,1.65-3.8,1.55-.61-.05-1.18-.24-1.65-.55-.46-.3-.83-.71-1.07-1.19-.38-.79-.4-1.79.14-2.87,1.72-3.48,7.44-4.39,12.46-4.37,4.6.02,7.61,1,11.24,2.89ZM28.63,548.06c.78,1.93,2.36,2.76,4.49.34.05,3.15-2.48,7.5-5.7,4.44-1.95-1.85-1.65-5.35-.5-8.25-2.49,4.11-4.02,8.91-4.03,14.86,0,3.43.57,6.38,1.61,8.95,2.21,5.49,6.33,9.56,12.35,10.86.02-3.27.46-5.73,1.11-8.48-4.66-2.28-6.12-8.09-4.31-12.63.8-2,2.22-3.63,4-4.81,3.74-2.48,9.23-3.13,13.36-1.36,2.67-1.93,5.21-3.23,8.27-4.42,2.33-.91,4.73-1.61,7.14-2.12,2.05-.44,4.12-.74,6.16-.92-1.52-.16-3.04-.3-4.56-.45-11.63-1.11-23.13-2.2-33.63-8.21-.96.87-1.88,1.75-2.76,2.68-2.74,2.87-4.67,5.39-2.99,9.54ZM145.5,629.55h16.87c-3.49,5.36-13.21,5.65-16.87,0ZM8.2,325.31c-.65.68-1.1,1.56-1.39,2.54-.29-.96-.73-1.83-1.35-2.5.4.17.85.26,1.32.27h0s0,0,0,0h0c.51,0,.99-.11,1.42-.31ZM6.78,324.39h0s0,0,0,0h0c-.57,0-1.1-.23-1.48-.6-.38-.37-.61-.88-.61-1.44h0s0,0,0,0c0-.56.24-1.07.61-1.44.38-.37.9-.6,1.48-.6h0s0,0,0,0h0c.58,0,1.1.23,1.48.6.38.37.61.88.61,1.44h0s0,0,0,0c0,.55-.22,1.04-.58,1.41-.01,0-.02.02-.03.03-.38.37-.9.6-1.48.6ZM6.78,565.41h0s0,0,0,0h0c-.87,0-1.65-.34-2.22-.9-.57-.55-.92-1.32-.92-2.17h0s0,0,0,0c0-1.68,1.42-3.07,3.15-3.07h0s0,0,0,0h0c1.73,0,3.14,1.38,3.14,3.06h0s0,0,0,0c0,.85-.35,1.61-.92,2.17-.57.55-1.35.9-2.22.9ZM94.36,594.62h0s0,0,0,0h0c-.58,0-1.1-.23-1.48-.6-.38-.37-.61-.88-.61-1.44h0s0,0,0,0c0-.56.23-1.07.61-1.44.38-.37.9-.6,1.48-.6h0s0,0,0,0h0c.57,0,1.1.23,1.47.6h0s0,0,0,0c.38.37.61.88.61,1.44h0s0,0,0,0c0,.55-.22,1.04-.58,1.41-.01,0-.02.02-.03.03-.38.37-.9.6-1.48.6ZM121.57,614.94h0s0,0,0,0h0c-.58,0-1.1-.23-1.48-.6-.38-.37-.61-.88-.61-1.44h0s0,0,0,0c0-.56.23-1.07.61-1.44.38-.37.9-.6,1.48-.6h0s0,0,0,0h0c.58,0,1.1.23,1.48.6.38.37.61.88.61,1.44h0s0,0,0,0c0,.56-.24,1.07-.62,1.44-.38.37-.9.6-1.48.6ZM54.03,621.59h0s0,0,0,0h0c-.56,0-1.07-.21-1.45-.57l-.03-.03c-.38-.37-.61-.88-.61-1.44h0s0,0,0,0c0-.56.23-1.07.61-1.44.38-.37.9-.6,1.48-.6h0s0,0,0,0h0c.58,0,1.1.23,1.48.6.38.37.61.88.61,1.44h0s0,0,0,0c0,.56-.24,1.07-.61,1.44s-.9.6-1.48.6ZM100.97,554.57h0s0,0,0,0h0c-.58,0-1.1-.23-1.48-.6-.38-.37-.61-.88-.61-1.44h0s0,0,0,0c0-.55.22-1.05.59-1.41l.03-.03c.38-.37.9-.6,1.48-.6h0s0,0,0,0h0c.58,0,1.1.23,1.48.6.38.37.61.88.61,1.44h0s0,0,0,0c0,.56-.23,1.07-.61,1.44-.38.37-.9.6-1.48.6ZM16.62,513.7h0s0,0,0,0h0c-.57,0-1.1-.23-1.48-.6-.38-.37-.61-.88-.61-1.44h0s0,0,0,0c0-.55.22-1.05.59-1.41l.03-.03c.38-.37.9-.6,1.48-.6h0s0,0,0,0h0c.56,0,1.07.22,1.45.57l.03.03c.38.37.61.88.62,1.44h0s0,0,0,0c0,.56-.24,1.07-.61,1.44-.38.37-.9.6-1.48.6ZM58.88,512.2c-1.16,1.35-2.47,2.57-3.96,3.66-1.51,1.1-3.22,2.06-5.15,2.84-2.03.83-4.34,1.17-6.61,1.04-2.21-.13-4.37-.71-6.18-1.73-1.78-1-3.21-2.43-4-4.28-.51-1.19-.75-2.55-.66-4.09.21-3.52,4.85-6.98,7.88-5.93,1.08.38,1.76,1.04,2.06,2.09.17.6.22,1.25.12,1.85-.09.59-.31,1.15-.66,1.59-.5.63-1.27,1.04-2.35,1.03-.21,0-.42.09-.54.27-.19.28-.12.66.17.85,1.96,1.29,3.93,1.76,5.63,1.58,1.15-.12,2.18-.54,3-1.21.82-.67,1.43-1.58,1.72-2.67.35-1.29.27-2.84-.39-4.54.98-.05,1.9-.16,2.76-.35,3.25-.69,5.74-2.31,7.42-4.54.66-.88,1.19-1.84,1.59-2.88.71,2.09,1.03,4.32.91,6.6-.05.98-.18,1.98-.4,2.97-.09,0-.19-.01-.28-.01h0s0,0,0,0h0c-.93,0-1.76.37-2.37.96-.6.59-.98,1.41-.98,2.31h0s0,0,0,0c0,.9.38,1.72.98,2.31.1.09.2.18.31.27ZM60.94,511.66h0s0,0,0,0h0c-.58,0-1.1-.23-1.48-.6-.38-.37-.61-.88-.61-1.44h0s0,0,0,0c0-.56.24-1.07.61-1.44.38-.37.9-.6,1.48-.6h0s0,0,0,0h0c.58,0,1.1.23,1.48.6.38.37.61.88.61,1.44h0s0,0,0,0c0,.56-.24,1.07-.61,1.44h0s0,0,0,0c-.38.37-.9.6-1.48.6ZM59.71,495.83c-.38,1.14-.92,2.19-1.62,3.12-1.5,1.99-3.73,3.44-6.67,4.06-1.06.23-2.21.35-3.43.35-.35,0-.63.27-.63.61,0,.09.02.18.06.26h0c.86,1.76,1.02,3.32.69,4.56-.23.84-.68,1.53-1.31,2.04-.63.51-1.42.83-2.33.93-1.01.11-2.14-.07-3.32-.58.64-.26,1.16-.68,1.56-1.18.48-.62.78-1.37.9-2.16.12-.77.06-1.59-.16-2.36-.4-1.41-1.37-2.66-2.88-3.18-.44-.16-.91-.24-1.39-.27-.31-.02-.63-.01-.95.02.6-.74,1.04-1.56,1.29-2.4.24-.79.32-1.6.23-2.38-.09-.79-.36-1.55-.81-2.24-.6-.91-1.51-1.69-2.76-2.22.92-.8,2.04-1.1,3.15-1.03.82.05,1.64.31,2.37.73.74.42,1.39.99,1.86,1.66.82,1.16,1.14,2.66.5,4.21-.13.32.03.67.36.8.32.12.69-.03.82-.35h0c.7-1.37,3.31-.95,5.65-.58,1.31.21,2.54.4,3.47.3,2.19-.25,3.84-1.04,5.01-2.31.12-.13.23-.26.34-.4ZM57.04,517.55c-.19.77-.33,1.55-.39,2.29-.07.95,0,1.85.28,2.64.3.84.82,1.53,1.65,1.98.52.28,1.16.47,1.93.52.34.02.67.02.97-.02,1.22-.14,2.14-.7,2.76-1.53.57-.75.89-1.7.99-2.73.95,1.37,1.36,3,1.3,4.59-.04,1.23-.37,2.44-.93,3.47-.56,1.02-1.35,1.87-2.33,2.41-1.29.71-2.93.9-4.86.26-.33-.11-.69.06-.8.39h0s0,.02,0,.02c-.26.81-.64,1.38-1.08,1.74-.41.33-.87.5-1.33.51-.48.01-.98-.13-1.43-.4-.55-.33-1.04-.86-1.36-1.54h0c-2.27-4.76,1.51-10.48,4.62-14.59ZM87.22,545.61c-2.78-.85-10.71-3.16-11.52-6.49-.08-.34-.07-.65.04-.92.1-.26.3-.49.58-.66.57-.35,1.46-.47,2.62-.23.34.07.68-.14.75-.47.05-.24-.05-.48-.23-.62-1.44-1.3-2.41-2.59-2.97-3.84-.57-1.27-.72-2.48-.55-3.56.18-1.07.67-2.02,1.4-2.8.58-.62,1.32-1.13,2.16-1.49.57-.25,1.21-.42,1.87-.53h0c1.91-.3,4.12-.03,6.13.93,1.93.92,3.68,2.49,4.79,4.78-.6-.48-1.29-.87-2.02-1.15-1.9-.73-4.12-.76-6.03.21-2.2,1.12-3.09,3.33-3.16,5.73-.02.46,0,.92.04,1.36.04.43.1.87.18,1.31,0,.02,0,.03,0,.05h0s0,0,0,0c.62,3.24,3.32,6.33,5.92,8.36ZM88.78,547.08c-4.56.09-13.19.08-15.56,4.88-.72,1.45-.76,2.82-.23,3.92.33.69.86,1.27,1.51,1.69.64.42,1.41.69,2.24.75,1.24.1,2.61-.23,3.9-1.16.05,1.09-.3,2.03-.87,2.74-.4.5-.9.88-1.44,1.14-.53.25-1.11.37-1.66.34-.81-.04-1.58-.43-2.11-1.24-.19-.28-.58-.36-.87-.18l-.03.02c-1.29.84-2.6.86-3.62.41-.47-.2-.88-.51-1.19-.88l-.02-.03c-.3-.36-.51-.78-.61-1.23-.21-.92.07-1.99,1.09-2.94.25-.23.26-.62.02-.87-.09-.09-.2-.15-.31-.17h0c-1.54-.35-2.4-.87-2.69-1.47-.18-.39-.11-.85.18-1.34.35-.59,1.03-1.41,1.93-2.01,5.16-3.44,13.16-4.19,20.36-2.39ZM38.51,579.56c0-3.17.34-5.55.96-8.22,3.92,1.27,9.31-.26,10.66-4.51,1.05-3.3-.7-7.68-4.54-8.24,1.54-1.87,3.28-3.51,5.17-4.94,8.22,4.26,8.25,16.47,2,22.15-3.76,3.42-9.21,4.48-14.25,3.77ZM39.92,569.41c1.06-3.91,2.44-6.57,4.58-9.45,3.59-.11,5.37,3.49,4.42,6.49-1.15,3.61-5.73,4.06-9,2.96ZM49.44,553.07c-2.02,1.59-3.87,3.42-5.48,5.5-1.19.17-2.49.7-3.88,1.7-.28.2-.34.59-.13.86.21.27.6.33.88.13.69-.5,1.21-.66,1.83-.9-1.82,2.69-3.29,4.97-4.25,8.46-3.89-2.07-5.15-6.36-3.6-10.24.7-1.75,1.96-3.19,3.54-4.24,3.2-2.13,7.47-2.55,11.09-1.27ZM115.57,570.07c5.43-1.55,11.23-.37,14.84,4.15,1.06,1.33,1.84,2.85,2.29,4.44.46,1.59.59,3.23.39,4.82-.85,6.48-8.26,10.71-14.43,8.05.1-1.14.13-1.92.15-3.06.03-1.52-.01-3-.11-4.45-.1-1.35-.15-2.12-.36-3.43,3.91-.99,6.85,1.81,4.9,5.22-.4.7.44,1.13.84.43.63-1.11.9-2.13.89-3.05-.05-3.37-3.82-5.11-6.92-4.39-.54-2.97-1.4-6.04-2.47-8.73ZM117.44,590.98c-1.95-1.08-3.35-2.61-3.38-4.85-.03-2.08,1.17-4,3.08-5.06.18,1.18.22,1.81.3,3.03.1,1.44.14,2.89.11,4.35-.02.97-.03,1.57-.11,2.53ZM33.88,622.17c-.26-.18-.52-.36-.77-.55-2.98-2.16-5.42-4.3-7.82-6.86,1.46-1.02,3.18-1.43,4.88-.97.79.21,1.05-.69.26-.9-2.11-.57-4.42-.59-6.21.71-1.73-1.94-2.99-3.49-4.42-5.61,4.13-2.62,8.74-2.83,12.23-.94,4.78,2.6,7.44,8.66,3.87,13.39-.58.68-1.26,1.27-2.01,1.73ZM18.58,608.84c1.46,2.16,2.86,3.84,4.62,5.81-2.3,2.56-1.77,6.67.98,8.77,2.78,2.12,6.51,1.77,9.44.27,3.19,2.14,6.54,3.96,10.13,5.39-3.57,2.03-7.58,3.04-11.75,3.19-6.02.22-12.68-1.65-16.04-6.9-3.24-5.44-2.81-12.35,2.62-16.55ZM24.28,615.82c2.48,2.66,5.21,4.96,8.17,7.07-2.03.79-4.74.63-6.82-.53-2.78-1.56-3.32-4.21-1.35-6.53ZM76.86,596.34c-.11-.94-.22-1.43-.48-2.36.78.34,1.53.35,2.19.13,1-.33,1.76-1.18,2.12-2.19.36-1,.34-2.16-.22-3.14-.51-.89-1.45-1.62-2.93-1.88.45-.42.78-.87.99-1.33,0-.02.01-.04.02-.05.21-.48.29-.97.26-1.47-.04-.5-.2-1-.47-1.48-.66-1.15-1.99-2.22-3.84-3.02-.32-.14-.69,0-.83.31-.08.17-.07.35,0,.5.53,1.37.4,2.28-.04,2.78-.36.41-.95.57-1.55.49-.62-.08-1.25-.43-1.62-1.02-.56-.87-.6-2.27.54-4.21.71-.26,1.52-.43,2.45-.51,1.26-.11,2.39-.03,3.41.22,1.83.44,3.25,1.41,4.26,2.7,3.95,5.1,1.83,12.99-4.26,15.53ZM69.13,579.44c-.55,1.62-.33,2.91.26,3.82.59.91,1.56,1.45,2.52,1.58,1,.13,2.02-.16,2.67-.91.53-.6.81-1.48.64-2.65.95.57,1.64,1.21,2.01,1.87.18.32.29.65.31.97.02.3-.03.6-.15.89,0,.01-.01.03-.02.04-.28.62-.91,1.24-1.93,1.79-.22.11-.36.33-.35.59.02.34.32.6.66.58,2.01-.11,3.13.51,3.6,1.35.37.65.38,1.45.13,2.14-.24.67-.72,1.23-1.33,1.43-.66.22-1.51,0-2.45-.94-.16-.18-.42-.25-.66-.18-.33.11-.51.45-.4.78.86,2.59,1.56,5.47.84,7.75-.49,1.58-1.69,2.91-4.04,3.71.54-.51.86-1.09,1.02-1.73.68-2.74-1.44-5.93-2.69-8.19-.19-.35-.39-.71-.66-1.2-1.07-1.95-1.92-4.43-2.14-6.82-.14-1.55-.02-3.06.49-4.36.35-.9.89-1.69,1.66-2.33ZM67,632.16c3.36-.75,6.18-2.03,8.16-3.54,1.3-.99,2.25-2.1,2.76-3.23.54-1.19.6-2.41.09-3.58-.47-1.08-1.44-2.09-2.97-2.95.69-.14,1.38-.22,2.05-.22.98,0,1.9.16,2.64.55.7.36,1.24.94,1.54,1.78,0,.02.01.03.02.05.15.45.24.98.24,1.59,0,.34.28.61.63.61.22,0,.42-.11.53-.28h0c.62-.94,1.61-1.41,2.5-1.44.34-.01.66.04.94.16h.03c.24.12.44.28.57.49.29.45.31,1.15-.11,2.13-.14.31.01.67.33.81.22.09.46.05.64-.08h0c1.17-.91,2.15-1.16,2.77-.98.26.08.45.24.55.47.11.27.1.64-.06,1.07-.27.72-.91,1.54-2.05,2.33-2.96,2.07-7.13,2.81-10.59,3.4-3.68.62-7.43.91-11.19.88ZM101.99,621c.99-1.55,1.9-3.35,2.46-5.1.48-1.5.71-2.97.53-4.24-.18-1.36-.82-2.5-2.07-3.2-.69-.39-1.56-.63-2.64-.71.74-.57,1.58-1,2.43-1.22.56-.14,1.12-.19,1.64-.12.5.07.96.25,1.35.57.51.41.92,1.05,1.16,1.96.09.33.43.53.77.44.15-.04.27-.13.36-.24.64-.84,1.2-1.19,1.62-1.17.16,0,.31.08.43.22.16.18.29.45.36.8.89,4.23-5.75,9.89-8.39,12.01ZM252.22,604.83c-1.9-2.25-4.67-3.89-7.67-4.26-2.81-.35-6.04.38-8.23-2.02-1.18-1.3-.93-2.99.71-4.43-3.03.31-5.47,2.6-3.5,5.59,1,1.51,2.9,1.85,4.86,1.75-5.45,2.4-7.38,6.87-6.59,10.7.68,3.31,2.87,6.59,7.12,7.29,3.35.55,7.34-1.21,8.13-4.67.29-1.26.08-2.66-.8-4.04-1.53-2.33-4.39-2.39-6.7-1.03-.76.44-.21,1.29.55.84,1.63-.66,3.12-.03,4.04,1.1,2.53,3.14-.54,6.63-4,6.55-2.94-.07-5.67-2.47-6.54-5.54-.86-3.07.13-6.81,3.47-8.99,1.27-.84,2.74-1.44,4.27-1.71,4.29-.75,8.04,1.28,10.29,4.73,3.04,4.65,2.21,5.52,6.28,9.26,2.79,2.56,6.42,4.27,10.22,5.11,9.85,2.15,19.74-2.04,27.24-8.46,8.06-6.9,12.56-16.7,15.32-26.2.62,3.65,2,6.89,4.09,9.58,5.35,6.89,16.18,10.13,24.72,7.78.15.41.26.65.42,1.05.33.81.68,1.62,1.07,2.43v.03s.04.06.04.06c1.25,2.58,2.72,4.96,4.39,7.15,1.42,1.86,2.98,3.59,4.66,5.17-4.07-2.22-8.39-4.37-12.84-6.23.03-.18.04-.36.04-.54h0s0,0,0,0c0-.9-.38-1.72-.98-2.31-.61-.59-1.45-.96-2.37-.96h0s0,0,0,0h0c-.92,0-1.76.37-2.37.96-.17.16-.32.35-.45.54-7.23-2.44-14.65-3.85-21.79-3.3-4.26.32-9.41,1.3-14.64,5.88-3.83,3.68-5.11,8.97-3.53,13.91h-44.71c-1.43,0-2.87.01-4.28-.04-1.39-.06-3.59-.26-4.71-1.19-1.71-1.42.28-3.58,1.89-2.39.42.31.77.84.78,1.38.02.8.93.81.9,0-.06-1.78-.84-2.77-1.82-3.19-.69-.29-1.47-.28-2.17-.05-.69.23-1.31.69-1.68,1.31-.43.71-.54,1.61-.06,2.57-.57-.45-1.3-.71-2.09-.71h0s0,0,0,0h0c-.92,0-1.76.37-2.37.96-.61.59-.98,1.41-.98,2.31h0s0,0,0,0h0c0,.9.38,1.72.98,2.31.61.59,1.45.96,2.37.96h0s0,0,0,0h0c.82,0,1.56-.29,2.14-.76-.54,1-.44,1.93,0,2.68.37.61.99,1.07,1.68,1.31.7.24,1.48.25,2.17-.05.98-.42,1.76-1.41,1.82-3.19.02-.8-.74-.73-.77.07-.47,3.13-4.66,1.66-2.85-.73.94-1.23,3.34-1.53,4.78-1.59,1.43-.06,2.88-.04,4.32-.04h45.21c3.74,7.62,15.38,8.11,19.76,0h50.75c-5.78.88-5.84,5.74-.43,5.89-1.07-1.26-1.21-2.35-.79-3.22,1.76-3.68,7.45-1.48,10.62-.63,1.8.48,3.64.6,5.49.92,11.53,1.96,23.06.69,32.93-2.78,4,2.47,8.78,3.86,13.51,4.04,6.48.24,13.46-2.08,17.07-7.71,3.84-5.99,3.37-14.06-2.68-18.71h-.01c7.81-11.43,11.19-24.27,11.8-40.75,4.54-.71,4.53-7.77,0-8.48v-221.27c0-1.41,0-2.99,0-4.5,0-.95.08-2.2.27-3.33.11-.63.34-1.76.99-2.5,1.45-1.66,3.66.28,2.45,1.84-.31.4-.86.75-1.42.76-.82.03-.83.91,0,.88,1.82-.06,2.84-.82,3.27-1.77.3-.68.29-1.44.05-2.12-.24-.68-.71-1.28-1.34-1.64-.73-.42-1.65-.53-2.64-.06.46-.56.73-1.27.73-2.04h0s0,0,0,0c0-.9-.38-1.72-.98-2.31-.61-.59-1.45-.96-2.37-.96h0s0,0,0,0h0c-.93,0-1.76.37-2.37.96-.61.59-.98,1.41-.98,2.31h0s0,0,0,0c0,.79.29,1.52.78,2.09-1.02-.53-1.98-.43-2.74,0-.63.36-1.1.97-1.34,1.64-.24.68-.25,1.44.05,2.12.43.96,1.45,1.72,3.27,1.78.82.03.75-.72-.07-.75-3.21-.46-1.7-4.55.75-2.78.89.65,1.14,1.53,1.3,2.5.43,2.48.37,5.48.37,8v182.22c0,5.08.36,14.67-3.25,18.86-1.51,1.75-3.48,2.75-5.93,2.26-3.41-.68-3.98-5.02-2.41-7.31-4.39,4.08-3.03,11.23,3.26,11.36,4.98.11,7.49-4.49,8.33-10.88v24.64c-4.54.71-4.53,7.77,0,8.48-.38,4.24-1.67,10.1-4.59,14.12-3.01,4.14-7.55,5.88-11.24,1.04-1.14,7.41,5.15,9.84,10.07,4.88,2.64-2.65,4.07-6.25,5.11-10.52-1.4,10.85-4.38,21.05-10.38,30.37-.74-.47-1.52-.87-2.33-1.21-2.85-1.19-4.3-1.07-6.49-3.89-1.01-1.31-1.52-2.81-.84-4.31,1.12-2.46,5.72-2.24,6.68,1.89,2.04-4.89-5.13-8.05-8.36-5.16-4.52,4.04-.75,8.35,3.78,10.27-8.64-.46-17.02,9.44-10.51,17.16.55.65,1.18,1.22,1.87,1.7-3.23,2.11-6.71,3.85-10.33,5.22-2.62-1.72-4.74-3.83-6.44-6.19.02-.02.05-.04.07-.07.01-.01.03-.02.04-.03.61-.59.98-1.41.98-2.31h0s0,0,0,0c0-.9-.38-1.72-.98-2.31-.61-.59-1.45-.96-2.37-.96h0s0,0,0,0h0c-.28,0-.55.04-.82.1-.88-2.13-1.52-4.36-1.95-6.64,11.64-4.72,19.59-16.46,19.95-28.56,6.57-1.31,11.46-6.37,13.86-12.33,4.76-11.83-.66-25.49-10.27-33.66.33-.2.65-.4.98-.61l.03-.02c7.2-4.66,12.98-11.42,15.41-19.62.07,0,.14,0,.22,0h0s0,0,0,0h0c.92,0,1.76-.37,2.37-.96.61-.59.98-1.41.98-2.31h0s0,0,0,0c0-.88-.36-1.68-.94-2.27-.01-.01-.02-.03-.04-.04-.38-.37-.85-.65-1.38-.81.07-.72.11-1.45.13-2.18.02-.72.01-1.43-.02-2.12-.06-1.24-.21-2.42-.44-3.56-.62-3.05-1.57-5.57-.8-8.79.85-3.53,3.32-5.82,6.95-2.9.64-6.35-10.79-6.18-8.62,4.25-3.19-5.73-10.15-11.23-12.25-14.14-2.16-2.99-3.26-6.63-3.12-10.05.17-4.17,2.41-7.84,6.58-9.33,1.5-.53,3.11-.74,4.67-.64,4.09.25,6.94,3.05,7.79,6.19.85,3.14-.29,6.63-2.85,8.16-3.01,1.8-7.54.26-6.97-3.77.21-1.46,1.2-2.76,2.98-2.99.9,0,.94-1.01.04-1.02-2.75-.04-5.25,1.45-5.37,4.27-.04,1.66.5,2.99,1.42,3.96,2.52,2.66,6.97,2.21,9.63.05,3.38-2.75,3.57-6.73,2.43-9.99-1.32-3.76-5.38-6.74-11.44-6.13,1.78-.9,3.28-2.15,3.36-3.98.17-3.62-3.2-4.42-6.03-3.17,2.2.44,3.32,1.81,2.96,3.55-.66,3.22-3.89,4.19-6.19,5.91-2.88,2.15-4.54,5.68-4.68,9.13-.1,4.14,1.5,7.89,3.68,10.81,1.19,1.6,3.93,3.87,6.66,6.71-7.37-5.02-17.56-5.88-25.71-2.21-7.78,3.51-12.46,10.6-12.04,18.92.05,1.08.2,2.16.44,3.25-.32.16-.62.36-.87.61-.61.59-.98,1.41-.98,2.31h0s0,0,0,0c0,.9.38,1.72.98,2.31h0c.61.59,1.45.96,2.37.96h0s0,0,0,0h0c.24,0,.47-.03.69-.07l.02.03c.76,1.33,2.13,4.44,2.32,7.07.06.8,0,1.55-.21,2.16-.2.56-.54,1.01-1.07,1.3-.36.2-.83.32-1.4.36-.26.02-.51.01-.74-.01-.84-.09-1.47-.48-1.89-1.04-.45-.6-.7-1.4-.76-2.29h0c-.03-.43-.02-.87.03-1.32.04-.34-.21-.64-.56-.68-.21-.02-.41.06-.54.2-1.98,1.81-2.83,4.31-2.74,6.71.05,1.42.42,2.81,1.08,4.01.67,1.21,1.62,2.24,2.82,2.9,1.45.8,3.24,1.07,5.29.53.33.76.76,1.33,1.26,1.74.63.53,1.37.78,2.12.8.73.02,1.46-.19,2.12-.59.76-.46,1.42-1.17,1.84-2.06h0c1.86-3.91.25-8.21-2.04-11.93,3.03,2.76,6.35,5.25,9.67,7.74,2.84,2.13,5.66,4.25,8.28,6.52-3.43,1.92-6.98,3.32-10.6,4.36,5.15-2.97.76-9-3.64-5.76,2.76,1.16,3.13,2.78,1.86,4.32-2.61,3.19-7.31,3.47-11.12,3.96-3.06.39-6.16.68-9.26.98-4.01.38-8.04.77-12.05,1.35,1.09-.5,2.16-1.06,3.09-1.64,1.53-.96,2.37-2.1,2.63-3.15.14-.59.11-1.15-.1-1.65-.2-.5-.57-.93-1.07-1.25-.47-.29-1.08-.48-1.79-.53.95-1.04,1.64-2.07,2.1-3.09.68-1.5.85-2.94.64-4.24-.21-1.31-.82-2.49-1.71-3.43-.71-.75-1.58-1.36-2.58-1.79-.66-.28-1.4-.49-2.18-.62h0c-2.15-.34-4.63-.03-6.88,1.04-2.26,1.08-4.28,2.92-5.52,5.65-.95,2.11-1.52,4.83-.62,7.05.02.04.03.07.05.1.92,1.72,2.38,2.53,3.8,2.62.63.04,1.24-.07,1.8-.3.56-.23,1.06-.6,1.45-1.07.84-1.03,1.17-2.56.46-4.42-.12-.32-.48-.48-.81-.36-.33.12-.49.47-.37.79.53,1.4.33,2.51-.26,3.23-.26.31-.59.55-.97.71-.38.16-.8.23-1.23.2-1.01-.06-2.07-.67-2.76-1.96-.57-1.41-.44-2.71.14-3.79.31-.57.74-1.09,1.26-1.52.53-.44,1.14-.8,1.81-1.05,1.58-.61,3.42-.64,4.98.15,1.73.88,2.42,2.69,2.49,4.68.01.39,0,.8-.04,1.22-.03.41-.09.81-.16,1.2v.03s0,0,0,0h0,0c-.65,3.44-3.3,6.41-6.23,8.29-.57.36-1.15.69-1.74.97-2.74,1.32-5.47,2.27-8.17,3.88-.6-.55-1.41-.89-2.3-.89h0s0,0,0,0h0c-.93,0-1.76.37-2.37.96-.61.59-.98,1.41-.98,2.31h0s0,0,0,0c0,.51.12.99.33,1.42-.72.61-1.43,1.25-2.1,1.91-1.12,1.1-2.19,2.27-3.18,3.49-4.86-2.1-10.78-2.87-16.08-2.05-1.67.26-3.27.67-4.8,1.24-7.1,2.64-12.5,8.51-14.33,16.7h-.02s0,0,0,0h0c-.93,0-1.76.37-2.37.96-.61.59-.98,1.41-.98,2.31h0s0,0,0,0c0,.9.38,1.72.98,2.31.44.42.99.73,1.61.87-.08.41-.17.8-.28,1.19-1.01,3.57-3.39,6.27-6.31,8-2.93,1.73-6.4,2.49-9.59,2.16-3.89-.41-7.18-2.62-8.32-6.42-.41-1.36-.51-2.81-.31-4.19.48-3.62,3.27-5.99,6.26-6.55,2.99-.57,6.18.66,7.45,3.03.42.77.58,1.68.53,2.65-.21,4.47-6.84,4.42-7.1.48.06-.8-.89-.9-.95-.1-.21,2.45,1.03,4.75,3.66,5.03,3.1.28,5.13-1.62,5.68-4.17.07-.32.11-.65.13-.98.07-1.48-.38-3.09-1.38-4.43-2.36-3.17-6.08-3.81-9.18-2.93-4.39,1.25-6.64,4.53-6.44,9.96-.74-1.64-1.81-3.05-3.52-3.23-3.37-.37-4.33,2.58-3.33,5.17.55-1.93,1.89-2.84,3.5-2.41,2.97.79,3.68,3.72,5.15,5.86,1.83,2.69,4.86,4.53,8.08,4.87,6.25.55,11.53-2.11,14.73-6.47-2.77,8.39-7.94,18.73-14.5,23.24-1.55,1.06-3.36,1.53-5.87.98-2.07-.46-3.15-1.85-1.03-4.27-3.2.43-7.22,3.53-3.62,6.17,2.17,1.59,5.67.77,8.44-.78-3.78,3.02-8.41,5.24-14.44,6.16-3.48.53-6.56.43-9.31-.18-3.6-.78-6.65-2.45-9.2-4.69-5.63-4.94-6.85-13.59-2.62-19.65,3.57-5.11,11.31-7.44,17.34-5.33,6.27,2.19,9.49,10.03,6.61,15.93-.82,1.69-2.09,3.12-3.76,4.06-2.43,1.37-5.88,1.33-8.31.45-4.54-1.63-7.59-9.95-1.78-12.71,1.97-.94,4.36-.83,5.86.51,1.75,1.57,1.21,5.21.6,6.35-.16.3-.04.67.26.83.31.16.69.04.85-.26,1.71-1.49,1.77-5.7-.58-7.78-1.96-1.74-5.2-2.03-7.59-.89-6.67,3.67-4.51,13.34,2.3,15.5,2.92.93,6.31.58,9.02-.95,1.9-1.07,3.34-2.69,4.27-4.59,3.84-7.86-.36-15.75-7.98-18.08-6.63-2.03-14.32.38-18.06,5.75-2.56,3.38-3.63,7.16-3.35,10.83ZM203.28,604.83c1.9-2.24,4.67-3.89,7.67-4.26,2.81-.35,6.04.38,8.23-2.02,1.18-1.3.93-2.99-.71-4.43,3.03.31,5.47,2.6,3.5,5.59-1,1.51-2.9,1.85-4.86,1.75,5.45,2.4,7.38,6.87,6.59,10.7-.68,3.31-2.87,6.59-7.12,7.29-3.35.55-7.34-1.21-8.13-4.67-.29-1.26-.08-2.66.8-4.04,1.53-2.33,4.39-2.39,6.7-1.03.76.44.21,1.29-.55.84-1.63-.66-3.12-.03-4.04,1.1-2.53,3.14.54,6.63,4,6.55,2.94-.07,5.67-2.47,6.54-5.54.86-3.07-.13-6.81-3.47-8.99-1.27-.84-2.74-1.44-4.27-1.71-4.29-.75-8.04,1.28-10.29,4.73-3.04,4.64-2.21,5.52-6.28,9.26-2.79,2.56-6.42,4.27-10.22,5.11-9.85,2.15-19.74-2.04-27.24-8.46-8.06-6.9-12.56-16.7-15.32-26.2-.62,3.65-2,6.89-4.09,9.58-5.35,6.89-16.18,10.13-24.72,7.78-.15.41-.26.65-.42,1.05-.33.81-.68,1.62-1.07,2.43v.03s-.04.06-.04.06c-1.25,2.58-2.72,4.96-4.39,7.15-1.42,1.86-2.98,3.59-4.66,5.17,4.07-2.22,8.39-4.37,12.84-6.23-.03-.18-.04-.36-.04-.54h0s0,0,0,0c0-.9.38-1.72.98-2.31.61-.59,1.45-.96,2.37-.96h0s0,0,0,0h0c.92,0,1.76.37,2.37.96.17.16.32.35.45.54,7.23-2.44,14.66-3.85,21.79-3.3,4.26.32,9.41,1.3,14.64,5.88,3.83,3.68,5.11,8.97,3.53,13.91h44.71c1.43,0,2.87.01,4.28-.04,1.39-.06,3.59-.26,4.71-1.19,1.7-1.42-.28-3.58-1.89-2.39-.43.31-.77.84-.78,1.38-.02.8-.93.81-.91,0,.06-1.78.84-2.77,1.82-3.19.69-.29,1.48-.28,2.17-.05.69.23,1.31.69,1.68,1.31.43.71.54,1.61.06,2.57.57-.45,1.3-.71,2.09-.71h0s0,0,0,0h0s0,0,0,0c.92,0,1.76.37,2.37.96.61.59.98,1.41.98,2.31h0s0,0,0,0h0c0,.9-.38,1.72-.98,2.31-.61.59-1.45.96-2.37.96h0s0,0,0,0h0c-.82,0-1.56-.29-2.14-.76.54,1,.44,1.93,0,2.68-.37.61-.99,1.07-1.68,1.31-.7.24-1.48.25-2.17-.05-.98-.42-1.76-1.41-1.82-3.19-.03-.8.74-.73.77.07.47,3.13,4.67,1.66,2.85-.73-.94-1.23-3.34-1.53-4.78-1.59-1.43-.06-2.88-.04-4.32-.04h-45.21c-3.74,7.62-15.38,8.11-19.76,0h-50.75c5.78.88,5.84,5.74.43,5.89,1.07-1.26,1.21-2.35.79-3.22-1.76-3.68-7.45-1.48-10.62-.63-1.8.48-3.64.6-5.49.92-11.53,1.96-23.06.69-32.93-2.78-4.01,2.47-8.78,3.86-13.51,4.04-6.48.24-13.46-2.08-17.07-7.71-3.84-5.99-3.37-14.06,2.68-18.71h.01c-7.81-11.43-11.19-24.27-11.8-40.75-4.54-.71-4.53-7.77,0-8.48v-221.27c0-1.41,0-2.99,0-4.5,0-.95-.08-2.2-.27-3.33-.11-.63-.34-1.76-.99-2.5-1.45-1.66-3.66.28-2.46,1.84.31.4.86.75,1.42.76.82.03.83.91,0,.88-1.82-.06-2.84-.82-3.27-1.77-.3-.68-.29-1.44-.05-2.12.24-.68.71-1.28,1.34-1.64.73-.42,1.65-.53,2.64-.06-.46-.56-.73-1.27-.73-2.04h0s0,0,0,0c0-.9.38-1.72.98-2.31.61-.59,1.45-.96,2.37-.96h0s0,0,0,0h0c.93,0,1.76.37,2.37.96.61.59.98,1.41.98,2.31h0s0,0,0,0c0,.79-.29,1.52-.78,2.09,1.02-.53,1.98-.43,2.74,0,.63.36,1.1.97,1.34,1.64.24.68.25,1.44-.05,2.12-.43.96-1.45,1.72-3.27,1.78-.82.03-.75-.72.07-.75,3.21-.46,1.7-4.55-.74-2.78-.89.65-1.14,1.53-1.3,2.5-.43,2.48-.37,5.48-.37,8v182.22c0,5.08-.36,14.67,3.25,18.86,1.51,1.75,3.48,2.75,5.93,2.26,3.41-.68,3.98-5.02,2.41-7.31,4.39,4.08,3.03,11.23-3.26,11.36-4.98.11-7.49-4.49-8.33-10.88v24.64c4.54.71,4.53,7.77,0,8.48.38,4.24,1.67,10.1,4.59,14.12,3.01,4.14,7.55,5.88,11.24,1.04,1.14,7.41-5.15,9.84-10.07,4.88-2.64-2.65-4.07-6.25-5.11-10.52,1.4,10.85,4.38,21.05,10.38,30.37.74-.47,1.52-.87,2.33-1.21,2.85-1.19,4.3-1.07,6.49-3.89,1.01-1.31,1.52-2.81.84-4.31-1.12-2.46-5.72-2.24-6.67,1.89-2.04-4.89,5.13-8.05,8.36-5.16,4.52,4.04.75,8.35-3.79,10.27,8.64-.46,17.02,9.44,10.51,17.16-.55.65-1.18,1.22-1.87,1.7,3.23,2.11,6.71,3.85,10.33,5.22,2.62-1.72,4.74-3.83,6.44-6.19-.02-.02-.05-.04-.07-.07-.01-.01-.02-.02-.04-.03-.6-.59-.98-1.41-.98-2.31h0s0,0,0,0c0-.9.38-1.72.98-2.31.61-.59,1.45-.96,2.37-.96h0s0,0,0,0h0c.28,0,.55.04.81.1.88-2.13,1.52-4.36,1.95-6.64-11.64-4.72-19.59-16.46-19.95-28.56-6.57-1.31-11.46-6.37-13.86-12.33-4.76-11.83.66-25.49,10.27-33.66-.33-.2-.65-.4-.98-.61l-.03-.02c-7.2-4.66-12.98-11.42-15.41-19.62-.07,0-.15,0-.22,0h0s0,0,0,0h0c-.92,0-1.76-.37-2.37-.96-.61-.59-.98-1.41-.98-2.31h0s0,0,0,0c0-.88.36-1.68.94-2.27.01-.01.02-.03.04-.04.38-.37.85-.65,1.38-.81-.07-.72-.11-1.45-.13-2.18-.02-.72-.01-1.43.02-2.12.06-1.24.21-2.42.44-3.56.62-3.05,1.57-5.57.8-8.79-.85-3.53-3.32-5.82-6.95-2.9-.64-6.35,10.79-6.18,8.62,4.25,3.19-5.73,10.15-11.23,12.25-14.14,2.16-2.99,3.26-6.63,3.12-10.05-.17-4.17-2.41-7.84-6.58-9.33-1.5-.53-3.11-.74-4.67-.64-4.09.25-6.94,3.05-7.79,6.19-.85,3.14.29,6.63,2.85,8.16,3.01,1.8,7.54.26,6.97-3.77-.21-1.46-1.2-2.76-2.98-2.99-.9,0-.94-1.01-.04-1.02,2.75-.04,5.24,1.45,5.36,4.27.04,1.66-.5,2.99-1.42,3.96-2.52,2.66-6.97,2.21-9.63.05-3.38-2.75-3.57-6.73-2.43-9.99,1.32-3.76,5.38-6.74,11.44-6.13-1.78-.9-3.28-2.15-3.36-3.98-.17-3.62,3.2-4.42,6.03-3.17-2.2.44-3.32,1.81-2.96,3.55.66,3.22,3.89,4.19,6.19,5.91,2.88,2.15,4.54,5.68,4.68,9.13.1,4.14-1.5,7.89-3.68,10.81-1.19,1.6-3.93,3.87-6.65,6.71,7.37-5.02,17.56-5.88,25.71-2.21,7.78,3.51,12.46,10.6,12.04,18.92-.05,1.08-.2,2.16-.44,3.25.32.16.62.36.87.61.61.59.98,1.41.98,2.31h0s0,0,0,0c0,.9-.38,1.72-.98,2.31h0c-.61.59-1.45.96-2.37.96h0s0,0,0,0h0c-.24,0-.47-.03-.69-.07l-.02.03c-.76,1.33-2.13,4.44-2.32,7.07-.06.8,0,1.55.21,2.16.2.56.54,1.01,1.07,1.3.36.2.83.32,1.4.36.26.02.51.01.74-.01.84-.09,1.47-.48,1.9-1.04.45-.6.7-1.4.76-2.29h0c.03-.43.02-.87-.03-1.32-.04-.34.21-.64.56-.68.21-.02.41.06.54.2,1.98,1.81,2.83,4.31,2.74,6.71-.05,1.42-.42,2.81-1.08,4.01-.66,1.21-1.62,2.24-2.82,2.9-1.45.8-3.24,1.07-5.29.53-.33.76-.76,1.33-1.26,1.74-.64.53-1.37.78-2.12.8-.73.02-1.46-.19-2.12-.59-.76-.46-1.42-1.17-1.84-2.06h0c-1.86-3.91-.25-8.21,2.04-11.93-3.03,2.76-6.35,5.25-9.67,7.74-2.84,2.13-5.66,4.25-8.28,6.52,3.43,1.92,6.98,3.32,10.61,4.36-5.15-2.97-.76-9,3.64-5.76-2.76,1.16-3.13,2.78-1.86,4.32,2.61,3.19,7.31,3.47,11.12,3.96,3.06.39,6.16.68,9.26.98,4.01.38,8.04.77,12.05,1.35-1.09-.5-2.17-1.06-3.09-1.64-1.53-.96-2.37-2.1-2.63-3.15-.14-.59-.11-1.15.09-1.65.2-.5.57-.93,1.07-1.25.47-.29,1.08-.48,1.79-.53-.95-1.04-1.64-2.07-2.1-3.09-.68-1.5-.85-2.94-.64-4.24.21-1.31.82-2.49,1.71-3.43.71-.75,1.58-1.36,2.58-1.79.66-.28,1.4-.49,2.18-.62h0c2.15-.34,4.63-.03,6.88,1.04,2.26,1.08,4.28,2.92,5.52,5.65.95,2.11,1.52,4.83.61,7.05-.01.04-.03.07-.05.1-.92,1.72-2.38,2.53-3.8,2.62-.63.04-1.24-.07-1.8-.3-.56-.23-1.06-.6-1.45-1.07-.84-1.03-1.17-2.56-.46-4.42.12-.32.48-.48.81-.36.33.12.49.47.37.79-.53,1.4-.32,2.51.26,3.23.26.31.59.55.97.71.38.16.8.23,1.23.2,1.01-.06,2.07-.67,2.76-1.96.57-1.41.44-2.71-.14-3.79-.31-.57-.74-1.09-1.26-1.52-.53-.44-1.14-.8-1.81-1.05-1.58-.61-3.42-.64-4.98.15-1.73.88-2.42,2.69-2.49,4.68-.01.39,0,.8.04,1.22.04.41.09.81.16,1.2v.03s0,0,0,0h0,0c.65,3.44,3.3,6.41,6.23,8.29.57.36,1.15.69,1.73.97,2.74,1.32,5.47,2.27,8.17,3.88.6-.55,1.41-.89,2.3-.89h0s0,0,0,0h0c.93,0,1.76.37,2.37.96.61.59.98,1.41.98,2.31h0s0,0,0,0c0,.51-.12.99-.33,1.42.72.61,1.43,1.25,2.1,1.91,1.12,1.1,2.19,2.27,3.18,3.49,4.86-2.1,10.78-2.87,16.08-2.05,1.67.26,3.28.67,4.8,1.24,7.1,2.64,12.5,8.51,14.33,16.7h.02s0,0,0,0h0c.92,0,1.76.37,2.37.96.61.59.98,1.41.98,2.31h0s0,0,0,0c0,.9-.38,1.72-.98,2.31-.44.42-.99.73-1.61.87.08.41.17.8.28,1.19,1.01,3.57,3.39,6.27,6.31,8,2.93,1.73,6.4,2.49,9.59,2.16,3.89-.41,7.18-2.62,8.32-6.42.41-1.36.5-2.81.31-4.19-.48-3.62-3.27-5.99-6.26-6.55-2.99-.57-6.18.66-7.45,3.03-.42.77-.58,1.68-.53,2.65.21,4.47,6.84,4.42,7.1.48-.06-.8.89-.9.95-.1.21,2.45-1.03,4.75-3.66,5.03-3.1.28-5.13-1.62-5.68-4.17-.07-.32-.11-.65-.13-.98-.07-1.48.38-3.09,1.38-4.43,2.36-3.17,6.08-3.81,9.18-2.93,4.39,1.25,6.64,4.53,6.44,9.96.73-1.64,1.81-3.05,3.52-3.23,3.37-.37,4.33,2.58,3.33,5.17-.55-1.93-1.89-2.84-3.5-2.41-2.97.79-3.68,3.72-5.15,5.86-1.83,2.69-4.86,4.53-8.08,4.87-6.25.55-11.53-2.11-14.73-6.47,2.77,8.39,7.94,18.73,14.5,23.24,1.55,1.06,3.36,1.53,5.87.98,2.07-.46,3.16-1.85,1.03-4.27,3.2.43,7.22,3.53,3.62,6.17-2.17,1.59-5.67.77-8.44-.78,3.78,3.02,8.41,5.24,14.44,6.16,3.48.53,6.56.43,9.31-.18,3.6-.78,6.65-2.45,9.2-4.69,5.63-4.94,6.86-13.59,2.62-19.65-3.57-5.11-11.31-7.44-17.34-5.33-6.27,2.19-9.49,10.03-6.61,15.93.82,1.69,2.09,3.12,3.76,4.06,2.43,1.37,5.88,1.33,8.32.45,4.54-1.63,7.58-9.95,1.78-12.71-1.97-.94-4.37-.83-5.86.51-1.75,1.57-1.21,5.21-.59,6.35.16.3.04.67-.26.83-.31.16-.69.04-.85-.26-1.71-1.49-1.77-5.7.58-7.78,1.96-1.74,5.2-2.03,7.59-.89,6.67,3.67,4.51,13.34-2.3,15.5-2.92.93-6.31.58-9.02-.95-1.9-1.07-3.34-2.69-4.27-4.59-3.84-7.86.36-15.75,7.98-18.08,6.63-2.03,14.32.38,18.06,5.75,2.56,3.38,3.63,7.16,3.35,10.83ZM252.22,30.61c-1.9,2.24-4.67,3.89-7.67,4.26-2.81.35-6.04-.38-8.23,2.02-1.18,1.3-.93,2.99.71,4.43-3.03-.3-5.47-2.6-3.5-5.59,1-1.51,2.9-1.85,4.86-1.75-5.45-2.4-7.38-6.87-6.59-10.7.68-3.31,2.87-6.59,7.12-7.29,3.35-.55,7.34,1.21,8.13,4.67.29,1.26.08,2.66-.8,4.04-1.53,2.33-4.39,2.39-6.7,1.03-.76-.44-.21-1.29.55-.84,1.63.66,3.12.03,4.04-1.1,2.53-3.14-.54-6.63-4-6.55-2.94.07-5.67,2.47-6.54,5.54-.86,3.07.13,6.82,3.47,8.99,1.27.84,2.74,1.44,4.27,1.71,4.29.75,8.04-1.29,10.29-4.73,3.04-4.65,2.21-5.52,6.28-9.26,2.79-2.56,6.42-4.27,10.22-5.11,9.85-2.15,19.74,2.04,27.24,8.46,8.06,6.9,12.56,16.7,15.32,26.2.62-3.65,2-6.89,4.09-9.58,5.35-6.89,16.18-10.14,24.72-7.78.15-.41.26-.65.42-1.05.33-.81.68-1.62,1.07-2.43v-.03s.04-.06.04-.06c1.25-2.58,2.72-4.96,4.39-7.15,1.42-1.87,2.98-3.59,4.66-5.17-4.07,2.22-8.39,4.37-12.84,6.22.03.18.04.36.04.54h0s0,0,0,0c0,.9-.38,1.72-.98,2.31-.61.59-1.45.96-2.37.96h0s0,0,0,0h0c-.92,0-1.76-.37-2.37-.96-.17-.16-.32-.35-.45-.54-7.23,2.44-14.65,3.85-21.79,3.3-4.26-.32-9.41-1.3-14.64-5.88-3.83-3.68-5.11-8.97-3.53-13.91h-44.71c-1.43,0-2.87-.01-4.28.04-1.39.06-3.59.26-4.71,1.19-1.71,1.42.28,3.57,1.89,2.39.42-.31.77-.84.78-1.38.02-.8.93-.81.9,0-.06,1.78-.84,2.77-1.82,3.19-.69.29-1.47.28-2.17.05-.69-.23-1.31-.69-1.68-1.31-.43-.71-.54-1.61-.06-2.57-.57.45-1.3.71-2.09.71h0s0,0,0,0h0c-.92,0-1.76-.37-2.37-.96-.61-.59-.98-1.41-.98-2.31h0s0,0,0,0h0c0-.9.38-1.72.98-2.31.61-.59,1.45-.96,2.37-.96h0s0,0,0,0h0s0,0,0,0c.82,0,1.56.29,2.14.76-.54-1-.44-1.93,0-2.68.37-.61.99-1.07,1.68-1.31.7-.24,1.48-.25,2.17.05.98.42,1.76,1.41,1.82,3.19.02.8-.74.73-.77-.07-.47-3.13-4.66-1.66-2.85.73.94,1.23,3.34,1.53,4.78,1.59,1.43.06,2.88.04,4.32.04h45.21c3.74-7.62,15.38-8.11,19.76,0h50.75c-5.78-.88-5.84-5.74-.43-5.89-1.07,1.26-1.21,2.35-.79,3.22,1.76,3.68,7.45,1.48,10.62.63,1.8-.48,3.64-.6,5.49-.92,11.53-1.96,23.06-.69,32.93,2.78,4-2.47,8.78-3.86,13.51-4.04,6.48-.24,13.46,2.08,17.07,7.71,3.84,5.99,3.37,14.06-2.68,18.71h-.01c7.81,11.43,11.19,24.27,11.8,40.75,4.54.71,4.53,7.77,0,8.48v221.27c0,1.41,0,2.99,0,4.5,0,.95.08,2.2.27,3.33.11.63.34,1.76.99,2.5,1.45,1.66,3.66-.28,2.45-1.84-.31-.41-.86-.75-1.42-.76-.82-.03-.83-.91,0-.88,1.82.06,2.84.82,3.27,1.77.3.68.29,1.44.05,2.12-.24.67-.71,1.28-1.34,1.64-.73.42-1.65.53-2.64.06.46.56.73,1.27.73,2.04h0s0,0,0,0c0,.9-.38,1.72-.98,2.31-.61.59-1.45.96-2.37.96h0s0,0,0,0h0c-.93,0-1.76-.37-2.37-.96-.61-.59-.98-1.41-.98-2.31h0s0,0,0,0c0-.8.29-1.52.78-2.09-1.02.53-1.98.43-2.74,0-.63-.36-1.1-.96-1.34-1.64-.24-.68-.25-1.44.05-2.12.43-.96,1.45-1.72,3.27-1.78.82-.02.75.72-.07.75-3.21.46-1.7,4.55.75,2.78.89-.65,1.14-1.53,1.3-2.5.43-2.48.37-5.48.37-8V116.27c0-5.08.36-14.67-3.25-18.86-1.51-1.75-3.48-2.75-5.93-2.26-3.41.68-3.98,5.02-2.41,7.32-4.39-4.08-3.03-11.23,3.26-11.36,4.98-.11,7.49,4.49,8.33,10.88v-24.64c-4.54-.71-4.53-7.77,0-8.48-.38-4.24-1.67-10.1-4.59-14.12-3.01-4.14-7.55-5.88-11.24-1.04-1.14-7.41,5.15-9.84,10.07-4.88,2.64,2.65,4.07,6.25,5.11,10.52-1.4-10.85-4.38-21.05-10.38-30.37-.74.47-1.52.87-2.33,1.21-2.85,1.19-4.3,1.07-6.49,3.89-1.01,1.31-1.52,2.81-.84,4.31,1.12,2.46,5.72,2.24,6.68-1.89,2.04,4.89-5.13,8.05-8.36,5.16-4.52-4.04-.75-8.35,3.78-10.27-8.64.46-17.02-9.44-10.51-17.16.55-.65,1.18-1.22,1.87-1.7-3.23-2.11-6.71-3.85-10.33-5.23-2.62,1.72-4.74,3.83-6.44,6.19.02.02.05.04.07.06.01.01.03.02.04.03.61.59.98,1.41.98,2.31h0s0,0,0,0c0,.9-.38,1.72-.98,2.31-.61.59-1.45.96-2.37.96h0s0,0,0,0h0c-.28,0-.55-.04-.82-.1-.88,2.13-1.52,4.36-1.95,6.64,11.64,4.72,19.59,16.46,19.95,28.56,6.57,1.31,11.46,6.37,13.86,12.33,4.76,11.83-.66,25.49-10.27,33.66.33.2.65.4.98.61l.03.02c7.2,4.66,12.98,11.42,15.41,19.62.07,0,.14,0,.22,0h0s0,0,0,0h0c.92,0,1.76.37,2.37.96.61.59.98,1.41.98,2.31h0s0,0,0,0c0,.88-.36,1.68-.94,2.27-.01.01-.02.03-.04.04-.38.37-.85.65-1.38.81.07.72.11,1.45.13,2.18.02.72.01,1.43-.02,2.11-.06,1.24-.21,2.42-.44,3.56-.62,3.05-1.57,5.57-.8,8.79.85,3.53,3.32,5.82,6.95,2.9.64,6.35-10.79,6.18-8.62-4.25-3.19,5.72-10.15,11.23-12.25,14.14-2.16,2.99-3.26,6.63-3.12,10.05.17,4.17,2.41,7.84,6.58,9.33,1.5.53,3.11.74,4.67.63,4.09-.25,6.94-3.05,7.79-6.19.85-3.14-.29-6.63-2.85-8.16-3.01-1.8-7.54-.26-6.97,3.77.21,1.46,1.2,2.76,2.98,2.99.9,0,.94,1.01.04,1.02-2.75.04-5.25-1.45-5.37-4.27-.04-1.66.5-2.99,1.42-3.96,2.52-2.66,6.97-2.21,9.63-.05,3.38,2.75,3.57,6.73,2.43,9.99-1.32,3.76-5.38,6.74-11.44,6.13,1.78.9,3.28,2.15,3.36,3.98.17,3.62-3.2,4.42-6.03,3.17,2.2-.44,3.32-1.81,2.96-3.55-.66-3.22-3.89-4.19-6.19-5.91-2.88-2.15-4.54-5.68-4.68-9.13-.1-4.14,1.5-7.89,3.68-10.81,1.19-1.6,3.93-3.87,6.66-6.71-7.37,5.02-17.56,5.88-25.71,2.21-7.78-3.51-12.46-10.6-12.04-18.92.05-1.07.2-2.16.44-3.25-.32-.16-.62-.36-.87-.61-.61-.59-.98-1.41-.98-2.31h0s0,0,0,0c0-.9.38-1.72.98-2.31h0c.61-.59,1.45-.96,2.37-.96h0s0,0,0,0h0c.24,0,.47.03.69.07l.02-.03c.76-1.33,2.13-4.44,2.32-7.07.06-.8,0-1.55-.21-2.16-.2-.56-.54-1.01-1.07-1.3-.36-.2-.83-.32-1.4-.36-.26-.02-.51-.01-.74.01-.84.09-1.47.48-1.89,1.04-.45.6-.7,1.4-.76,2.29h0c-.03.43-.02.87.03,1.32.04.34-.21.64-.56.68-.21.02-.41-.06-.54-.2-1.98-1.81-2.83-4.31-2.74-6.71.05-1.42.42-2.81,1.08-4.01.67-1.21,1.62-2.24,2.82-2.9,1.45-.8,3.24-1.07,5.29-.53.33-.76.76-1.33,1.26-1.75.63-.53,1.37-.78,2.12-.8.73-.02,1.46.19,2.12.59.76.46,1.42,1.17,1.84,2.06h0c1.86,3.91.25,8.21-2.04,11.93,3.03-2.76,6.35-5.25,9.67-7.74,2.84-2.13,5.66-4.25,8.28-6.52-3.43-1.92-6.98-3.32-10.6-4.36,5.15,2.97.76,9-3.64,5.76,2.76-1.16,3.13-2.78,1.86-4.32-2.61-3.19-7.31-3.47-11.12-3.96-3.06-.39-6.16-.68-9.26-.98-4.01-.38-8.04-.77-12.05-1.35,1.09.5,2.16,1.06,3.09,1.64,1.53.96,2.37,2.1,2.63,3.15.14.59.11,1.15-.1,1.65-.2.51-.57.94-1.07,1.25-.47.29-1.08.48-1.79.53.95,1.04,1.64,2.08,2.1,3.08.68,1.5.85,2.94.64,4.24-.21,1.32-.82,2.49-1.71,3.43-.71.75-1.58,1.36-2.58,1.79-.66.29-1.4.49-2.18.62h0c-2.15.34-4.63.03-6.88-1.04-2.26-1.08-4.28-2.92-5.52-5.65-.95-2.11-1.52-4.83-.62-7.05.02-.04.03-.07.05-.1.92-1.72,2.38-2.53,3.8-2.62.63-.04,1.24.07,1.8.3.56.23,1.06.6,1.45,1.07.84,1.03,1.17,2.56.46,4.42-.12.32-.48.48-.81.36-.33-.12-.49-.47-.37-.79.53-1.4.33-2.51-.26-3.23-.26-.31-.59-.56-.97-.71-.38-.16-.8-.23-1.23-.2-1.01.06-2.07.67-2.76,1.96-.57,1.41-.44,2.71.14,3.79.31.57.74,1.09,1.26,1.52.53.44,1.14.79,1.81,1.05,1.58.61,3.42.64,4.98-.15,1.73-.88,2.42-2.69,2.49-4.67.01-.39,0-.8-.04-1.22-.03-.41-.09-.81-.16-1.2v-.03s0,0,0,0h0s0,0,0,0c-.65-3.43-3.3-6.4-6.23-8.28-.57-.36-1.15-.69-1.74-.97-2.74-1.32-5.47-2.27-8.17-3.88-.6.55-1.41.89-2.3.89h0s0,0,0,0h0c-.93,0-1.76-.37-2.37-.96-.61-.59-.98-1.41-.98-2.31h0s0,0,0,0c0-.51.12-.99.33-1.42-.72-.61-1.43-1.25-2.1-1.91-1.12-1.1-2.19-2.27-3.18-3.49-4.86,2.1-10.78,2.87-16.08,2.05-1.67-.26-3.27-.68-4.8-1.24-7.1-2.64-12.5-8.51-14.33-16.71h-.02s0,0,0,0h0c-.93,0-1.76-.37-2.37-.96-.61-.59-.98-1.41-.98-2.31h0s0,0,0,0c0-.9.38-1.72.98-2.31.44-.42.99-.73,1.61-.87-.08-.41-.17-.8-.28-1.19-1.01-3.57-3.39-6.27-6.31-8-2.93-1.73-6.4-2.49-9.59-2.16-3.89.41-7.18,2.62-8.32,6.42-.41,1.36-.51,2.81-.31,4.19.48,3.62,3.27,5.99,6.26,6.55s6.18-.66,7.45-3.03c.42-.77.58-1.68.53-2.65-.21-4.47-6.84-4.42-7.1-.48.06.8-.89.9-.95.1-.21-2.45,1.03-4.75,3.66-5.03,3.1-.28,5.13,1.62,5.68,4.17.07.32.11.64.13.98.07,1.48-.38,3.09-1.38,4.43-2.36,3.17-6.08,3.81-9.18,2.93-4.39-1.25-6.64-4.53-6.44-9.96-.74,1.64-1.81,3.05-3.52,3.23-3.37.37-4.33-2.58-3.33-5.17.55,1.93,1.89,2.84,3.5,2.41,2.97-.79,3.68-3.72,5.15-5.86,1.83-2.69,4.86-4.53,8.08-4.87,6.25-.55,11.53,2.11,14.73,6.47-2.77-8.39-7.94-18.73-14.5-23.24-1.55-1.06-3.36-1.53-5.87-.98-2.07.46-3.15,1.85-1.03,4.27-3.2-.43-7.22-3.53-3.62-6.17,2.17-1.59,5.67-.77,8.44.78-3.78-3.02-8.41-5.24-14.44-6.16-3.48-.53-6.56-.43-9.31.18-3.6.78-6.65,2.45-9.2,4.69-5.63,4.94-6.85,13.59-2.62,19.65,3.57,5.11,11.31,7.45,17.34,5.33,6.27-2.19,9.49-10.03,6.61-15.93-.82-1.69-2.09-3.12-3.76-4.06-2.43-1.37-5.88-1.33-8.31-.45-4.54,1.63-7.59,9.95-1.78,12.71,1.97.94,4.36.83,5.86-.51,1.75-1.57,1.21-5.21.6-6.35-.16-.3-.04-.67.26-.83.31-.16.69-.04.85.26,1.71,1.49,1.77,5.7-.58,7.78-1.96,1.74-5.2,2.03-7.59.89-6.67-3.67-4.51-13.34,2.3-15.5,2.92-.93,6.31-.58,9.02.95,1.9,1.07,3.34,2.69,4.27,4.59,3.84,7.86-.36,15.74-7.98,18.08-6.63,2.03-14.32-.38-18.06-5.75-2.56-3.38-3.63-7.16-3.35-10.83ZM203.28,30.61c1.9,2.24,4.67,3.89,7.68,4.26,2.82.35,6.04-.38,8.23,2.02,1.18,1.3.93,2.99-.71,4.43,3.02-.3,5.47-2.6,3.5-5.59-1-1.51-2.9-1.85-4.86-1.75,5.45-2.4,7.38-6.87,6.59-10.7-.68-3.31-2.87-6.59-7.12-7.29-3.35-.55-7.33,1.21-8.13,4.67-.28,1.26-.07,2.66.8,4.04,1.53,2.33,4.39,2.39,6.71,1.03.75-.44.21-1.29-.55-.84-1.63.66-3.12.03-4.04-1.1-2.53-3.14.54-6.63,3.99-6.55,2.94.07,5.68,2.47,6.54,5.54.86,3.07-.13,6.82-3.48,8.99-1.27.84-2.74,1.44-4.27,1.71-4.28.75-8.04-1.29-10.29-4.73-3.04-4.65-2.21-5.52-6.28-9.26-2.79-2.56-6.42-4.27-10.22-5.11-9.85-2.15-19.74,2.04-27.24,8.46-8.06,6.9-12.56,16.7-15.32,26.2-.62-3.65-2-6.89-4.09-9.58-5.35-6.89-16.18-10.14-24.72-7.78-.15-.41-.26-.65-.42-1.05-.32-.81-.68-1.62-1.07-2.43v-.03s-.04-.06-.04-.06c-1.25-2.58-2.72-4.96-4.39-7.15-1.42-1.87-2.98-3.59-4.66-5.17,4.07,2.22,8.39,4.37,12.84,6.22-.03.18-.04.36-.04.54h0s0,0,0,0c0,.9.38,1.72.98,2.31.61.59,1.45.96,2.37.96h0s0,0,0,0h0c.92,0,1.76-.37,2.37-.96.17-.16.32-.35.45-.54,7.23,2.44,14.65,3.85,21.79,3.3,4.26-.32,9.41-1.3,14.64-5.88,3.83-3.68,5.11-8.97,3.53-13.91h44.71c1.43,0,2.86-.01,4.28.04,1.39.06,3.59.26,4.71,1.19,1.71,1.42-.28,3.57-1.89,2.39-.43-.31-.77-.84-.78-1.38-.02-.8-.93-.81-.9,0,.06,1.78.84,2.77,1.82,3.19.69.29,1.47.28,2.17.05.69-.23,1.31-.69,1.68-1.31.43-.71.54-1.61.06-2.57.57.45,1.3.71,2.09.71h0s0,0,0,0h0c.93,0,1.76-.37,2.37-.96.61-.59.98-1.41.98-2.31h0s0,0,0,0h0c0-.9-.38-1.72-.98-2.31-.61-.59-1.45-.96-2.37-.96h0s0,0,0,0h0s0,0,0,0c-.82,0-1.56.29-2.14.76.54-1,.44-1.93,0-2.68-.37-.61-.99-1.07-1.68-1.31-.7-.24-1.48-.25-2.17.05-.98.42-1.76,1.41-1.82,3.19-.02.8.74.73.77-.07.47-3.13,4.67-1.66,2.85.73-.94,1.23-3.34,1.53-4.78,1.59-1.43.06-2.88.04-4.32.04h-45.21c-3.74-7.62-15.38-8.11-19.76,0h-50.75c5.78-.88,5.84-5.74.43-5.89,1.07,1.26,1.21,2.35.79,3.22-1.76,3.68-7.45,1.48-10.62.63-1.8-.48-3.64-.6-5.49-.92-11.53-1.96-23.06-.69-32.93,2.78-4.01-2.47-8.78-3.86-13.51-4.04-6.48-.24-13.46,2.08-17.07,7.71-3.84,5.99-3.37,14.06,2.68,18.71h.01c-7.81,11.43-11.19,24.27-11.8,40.75-4.54.71-4.53,7.77,0,8.48v221.27c0,1.41,0,2.99,0,4.5,0,.95-.08,2.2-.27,3.33-.11.63-.34,1.76-.99,2.5-1.45,1.66-3.66-.28-2.46-1.84.31-.41.86-.75,1.42-.76.82-.03.83-.91,0-.88-1.82.06-2.84.82-3.27,1.77-.3.68-.29,1.44-.05,2.12.24.67.71,1.28,1.34,1.64.73.42,1.66.53,2.64.06-.46.56-.73,1.27-.73,2.04h0s0,0,0,0c0,.9.38,1.72.98,2.31.61.59,1.44.96,2.37.96h0s0,0,0,0h0c.93,0,1.76-.37,2.37-.96.61-.59.98-1.41.98-2.31h0s0,0,0,0c0-.8-.29-1.52-.78-2.09,1.02.53,1.98.43,2.74,0,.63-.36,1.1-.96,1.34-1.64.24-.68.25-1.44-.05-2.12-.43-.96-1.45-1.72-3.27-1.78-.82-.02-.75.72.07.75,3.21.46,1.7,4.55-.75,2.78-.89-.65-1.14-1.53-1.3-2.5-.42-2.48-.37-5.48-.37-8V116.27c0-5.08-.36-14.67,3.25-18.86,1.51-1.75,3.48-2.75,5.93-2.26,3.41.68,3.98,5.02,2.41,7.32,4.39-4.08,3.03-11.23-3.26-11.36-4.98-.11-7.49,4.49-8.33,10.88v-24.64c4.54-.71,4.53-7.77,0-8.48.38-4.24,1.67-10.1,4.59-14.12,3-4.14,7.55-5.88,11.24-1.04,1.14-7.41-5.15-9.84-10.07-4.88-2.64,2.65-4.07,6.25-5.11,10.52,1.4-10.85,4.38-21.05,10.38-30.37.74.47,1.52.87,2.33,1.21,2.85,1.19,4.3,1.07,6.49,3.89,1.01,1.31,1.52,2.81.84,4.31-1.12,2.46-5.72,2.24-6.67-1.89-2.04,4.89,5.13,8.05,8.36,5.16,4.52-4.04.75-8.35-3.78-10.27,8.64.46,17.02-9.44,10.51-17.16-.55-.65-1.18-1.22-1.87-1.7,3.23-2.11,6.71-3.85,10.33-5.23,2.62,1.72,4.74,3.83,6.44,6.19-.03.02-.05.04-.07.06-.01.01-.03.02-.04.03-.6.59-.98,1.41-.98,2.31h0s0,0,0,0c0,.9.38,1.72.98,2.31.61.59,1.44.96,2.37.96h0s0,0,0,0h0c.28,0,.55-.04.81-.1.88,2.13,1.52,4.36,1.95,6.64-11.64,4.72-19.59,16.46-19.95,28.56-6.57,1.31-11.45,6.37-13.86,12.33-4.76,11.83.66,25.49,10.27,33.66-.33.2-.65.4-.98.61l-.03.02c-7.2,4.66-12.98,11.42-15.41,19.62-.07,0-.15,0-.22,0h0s0,0,0,0h0c-.93,0-1.76.37-2.37.96-.61.59-.98,1.41-.98,2.31h0s0,0,0,0c0,.88.36,1.68.94,2.27.01.01.02.03.04.04.38.37.85.65,1.38.81-.07.72-.11,1.45-.13,2.18-.02.72-.01,1.43.02,2.11.06,1.24.21,2.42.44,3.56.62,3.05,1.57,5.57.8,8.79-.85,3.53-3.32,5.82-6.94,2.9-.64,6.35,10.79,6.18,8.62-4.25,3.18,5.72,10.15,11.23,12.25,14.14,2.16,2.99,3.26,6.63,3.12,10.05-.17,4.17-2.41,7.84-6.58,9.33-1.49.53-3.11.74-4.66.63-4.09-.25-6.94-3.05-7.8-6.19-.85-3.14.29-6.63,2.85-8.16,3.01-1.8,7.54-.26,6.97,3.77-.21,1.46-1.2,2.76-2.98,2.99-.9,0-.94,1.01-.04,1.02,2.75.04,5.24-1.45,5.37-4.27.04-1.66-.5-2.99-1.42-3.96-2.52-2.66-6.96-2.21-9.63-.05-3.38,2.75-3.57,6.73-2.43,9.99,1.32,3.76,5.38,6.74,11.44,6.13-1.78.9-3.28,2.15-3.36,3.98-.17,3.62,3.2,4.42,6.03,3.17-2.2-.44-3.32-1.81-2.96-3.55.66-3.22,3.89-4.19,6.19-5.91,2.88-2.15,4.54-5.68,4.68-9.13.1-4.14-1.5-7.89-3.68-10.81-1.19-1.6-3.93-3.87-6.66-6.71,7.37,5.02,17.56,5.88,25.71,2.21,7.78-3.51,12.47-10.6,12.04-18.92-.05-1.07-.2-2.16-.44-3.25.32-.16.62-.36.87-.61.61-.59.98-1.41.98-2.31h0s0,0,0,0c0-.9-.38-1.72-.98-2.31h0c-.61-.59-1.44-.96-2.37-.96h0s0,0,0,0h0c-.24,0-.47.03-.69.07l-.02-.03c-.76-1.33-2.13-4.44-2.32-7.07-.06-.8,0-1.55.21-2.16.2-.56.54-1.01,1.07-1.3.36-.2.83-.32,1.4-.36.26-.02.51-.01.74.01.84.09,1.47.48,1.9,1.04.45.6.7,1.4.76,2.29h0c.03.43.02.87-.03,1.32-.04.34.21.64.56.68.21.02.41-.06.54-.2,1.98-1.81,2.83-4.31,2.74-6.71-.05-1.42-.42-2.81-1.08-4.01-.66-1.21-1.62-2.24-2.82-2.9-1.45-.8-3.24-1.07-5.29-.53-.33-.76-.76-1.33-1.26-1.75-.64-.53-1.37-.78-2.12-.8-.73-.02-1.46.19-2.12.59-.76.46-1.41,1.17-1.84,2.06h0c-1.86,3.91-.25,8.21,2.04,11.93-3.03-2.76-6.35-5.25-9.67-7.74-2.84-2.13-5.66-4.25-8.28-6.52,3.43-1.92,6.98-3.32,10.61-4.36-5.16,2.97-.76,9,3.64,5.76-2.76-1.16-3.13-2.78-1.86-4.32,2.61-3.19,7.31-3.47,11.12-3.96,3.06-.39,6.16-.68,9.26-.98,4.01-.38,8.04-.77,12.05-1.35-1.09.5-2.17,1.06-3.09,1.64-1.53.96-2.37,2.1-2.63,3.15-.14.59-.1,1.15.1,1.65.2.51.57.94,1.07,1.25.47.29,1.08.48,1.79.53-.95,1.04-1.64,2.08-2.1,3.08-.67,1.5-.85,2.94-.64,4.24.21,1.32.82,2.49,1.71,3.43.71.75,1.58,1.36,2.58,1.79.66.29,1.4.49,2.18.62h0c2.15.34,4.63.03,6.88-1.04,2.26-1.08,4.28-2.92,5.52-5.65.95-2.11,1.52-4.83.61-7.05-.02-.04-.03-.07-.06-.1-.92-1.72-2.38-2.53-3.8-2.62-.63-.04-1.24.07-1.8.3-.56.23-1.07.6-1.46,1.07-.84,1.03-1.17,2.56-.46,4.42.12.32.48.48.81.36.33-.12.49-.47.37-.79-.54-1.4-.32-2.51.26-3.23.26-.31.59-.56.97-.71.38-.16.8-.23,1.23-.2,1.01.06,2.07.67,2.76,1.96.57,1.41.44,2.71-.14,3.79-.3.57-.74,1.09-1.26,1.52-.52.44-1.14.79-1.81,1.05-1.58.61-3.42.64-4.98-.15-1.73-.88-2.42-2.69-2.49-4.67-.01-.39,0-.8.04-1.22.03-.41.09-.81.16-1.2v-.03s0,0,0,0h0s0,0,0,0c.65-3.43,3.3-6.4,6.23-8.28.57-.36,1.15-.69,1.73-.97,2.74-1.32,5.47-2.27,8.17-3.88.6.55,1.41.89,2.3.89h0s0,0,0,0h0c.92,0,1.76-.37,2.37-.96.61-.59.98-1.41.98-2.31h0s0,0,0,0c0-.51-.12-.99-.33-1.42.72-.61,1.43-1.25,2.1-1.91,1.12-1.1,2.19-2.27,3.18-3.49,4.86,2.1,10.78,2.87,16.08,2.05,1.67-.26,3.28-.68,4.8-1.24,7.1-2.64,12.5-8.51,14.33-16.71h.02s0,0,0,0h0c.92,0,1.76-.37,2.37-.96.61-.59.98-1.41.98-2.31h0s0,0,0,0c0-.9-.38-1.72-.98-2.31-.43-.42-.99-.73-1.61-.87.08-.41.17-.8.28-1.19,1.01-3.57,3.39-6.27,6.31-8,2.93-1.73,6.4-2.49,9.59-2.16,3.89.41,7.18,2.62,8.32,6.42.41,1.36.5,2.81.31,4.19-.48,3.62-3.27,5.99-6.26,6.55-2.99.57-6.18-.66-7.45-3.03-.42-.77-.58-1.68-.53-2.65.21-4.47,6.84-4.42,7.1-.48-.06.8.89.9.95.1.21-2.45-1.03-4.75-3.66-5.03-3.1-.28-5.13,1.62-5.68,4.17-.07.32-.11.64-.13.98-.07,1.48.38,3.09,1.38,4.43,2.36,3.17,6.08,3.81,9.18,2.93,4.39-1.25,6.64-4.53,6.44-9.96.74,1.64,1.81,3.05,3.52,3.23,3.37.37,4.33-2.58,3.33-5.17-.55,1.93-1.89,2.84-3.49,2.41-2.97-.79-3.68-3.72-5.15-5.86-1.83-2.69-4.86-4.53-8.08-4.87-6.25-.55-11.53,2.11-14.73,6.47,2.77-8.39,7.94-18.73,14.5-23.24,1.55-1.06,3.36-1.53,5.87-.98,2.07.46,3.16,1.85,1.03,4.27,3.2-.43,7.22-3.53,3.62-6.17-2.17-1.59-5.68-.77-8.44.78,3.78-3.02,8.41-5.24,14.44-6.16,3.48-.53,6.56-.43,9.31.18,3.6.78,6.65,2.45,9.2,4.69,5.63,4.94,6.86,13.59,2.62,19.65-3.57,5.11-11.31,7.45-17.34,5.33-6.27-2.19-9.49-10.03-6.61-15.93.82-1.69,2.09-3.12,3.76-4.06,2.43-1.37,5.88-1.33,8.32-.45,4.54,1.63,7.59,9.95,1.78,12.71-1.97.94-4.37.83-5.86-.51-1.75-1.57-1.21-5.21-.59-6.35.16-.3.04-.67-.26-.83-.31-.16-.69-.04-.85.26-1.71,1.49-1.77,5.7.58,7.78,1.96,1.74,5.2,2.03,7.59.89,6.67-3.67,4.51-13.34-2.3-15.5-2.92-.93-6.31-.58-9.02.95-1.9,1.07-3.34,2.69-4.27,4.59-3.84,7.86.36,15.74,7.98,18.08,6.63,2.03,14.32-.38,18.06-5.75,2.56-3.38,3.63-7.16,3.35-10.83ZM101.99,14.44c.99,1.55,1.9,3.35,2.46,5.1.48,1.5.71,2.97.53,4.24-.18,1.36-.82,2.5-2.07,3.2-.69.39-1.56.64-2.64.71.74.57,1.58,1,2.43,1.22.56.14,1.12.19,1.64.12.5-.07.96-.25,1.35-.57.51-.41.92-1.05,1.16-1.96.09-.33.43-.52.77-.44.15.04.27.13.36.24.64.84,1.2,1.19,1.62,1.17.16,0,.3-.08.43-.22.16-.18.29-.45.36-.8.89-4.23-5.75-9.89-8.39-12.01ZM94.36,39.59h0c.93,0,1.77.37,2.37.96.01.01.02.02.03.04l-2.4-.99ZM361.14,39.59h0c-.93,0-1.77.37-2.37.96-.01.01-.02.02-.03.04l2.41-.99ZM361.14,595.85h0c-.93,0-1.77-.37-2.37-.96-.01-.01-.02-.02-.03-.04l2.41.99ZM358.73,594.86c-.05-.06-.11-.11-.16-.17-.49-.57-.79-1.3-.79-2.1h0s0,0,0,0c0-.9.38-1.72.98-2.31h0c.35-.35.79-.61,1.27-.78-.12-1.6-.02-2.96-.04-4.59-.01-.92-.07-1.85-.16-2.77-.46-4.72-1.88-9.21-3.64-12.26v-.02c-.56-.96-1.17-1.86-1.84-2.71-.67-.85-1.39-1.66-2.18-2.4-1.61-1.52-3.46-2.81-5.57-3.83-2.01,2.62-3.59,5.22-4.94,8.34,3.94,1.64,9.8,5.6,10.99,11.61.75,2.65.83,5.46.3,8.18-.53,2.72-1.67,5.36-3.37,7.65-2.14,2.89-5.11,5.41-8.9,6.72.14.38.24.59.39.97.32.81.67,1.59,1.03,2.35l.02.03.03.06c.5,1.04,1.05,2.05,1.63,3.03-.01-.4.02-.77.09-1.1.12-.56.34-1.03.65-1.36.35-.39.8-.61,1.31-.63.6-.03,1.27.23,1.96.86.31-.66.73-1.18,1.21-1.56.58-.47,1.25-.74,1.97-.84.69-.1,1.42-.04,2.15.15,1.52.39,3.04,1.35,4.11,2.61.12.12.19.29.18.47-.03.34-.33.59-.68.57-1.59-.12-2.73.09-3.52.53-.87.49-1.32,1.3-1.45,2.3-.15,1.08.06,2.38.49,3.72.26.81.59,1.63.98,2.42,1.73,3.58,3.43,5.53,6.73,7.36,1.45.81,2.96,1.54,4.5,2.21-.47-.54-.79-1.07-.98-1.56-.27-.72-.27-1.39-.05-1.93.24-.59.71-1.01,1.37-1.2.67-.19,1.54-.12,2.52.34-.04-.66.11-1.23.39-1.67.27-.42.66-.74,1.11-.95l.04-.02c.45-.2.96-.29,1.49-.27.84.03,1.75.33,2.51.92.04-.2.09-.38.16-.56,0-.02,0-.04.02-.05.41-1.16,1.17-1.95,2.14-2.46.93-.49,2.05-.69,3.23-.69,1.32,0,2.73.27,4.02.71.17.05.31.18.38.35.13.31-.02.67-.34.8-2.11.86-3.33,1.91-3.82,3.02-.36.83-.31,1.72.09,2.6.43.95,1.24,1.89,2.38,2.76,1.36,1.04,3.16,1.97,5.29,2.67,4.62,1.52,9.05,1.58,13.74.67,2.93-.57,5.56-1.28,8.33-2.25-2.45-1.73-4.21-3.85-5.84-6.13-.37.14-.76.21-1.18.21h0s0,0,0,0h0c-.93,0-1.77-.37-2.37-.96-.6-.59-.98-1.41-.98-2.31h0s0,0,0,0c0-.9.38-1.72.98-2.31.13-.12.26-.24.4-.34-.89-2.15-1.55-4.41-2-6.7-5.53,1.98-11.93,2.47-17.82,1.18-2.45-.53-4.28-1.21-6.76.05-2.35,1.2-3.5,3.58.14,5.69-2.92-.08-4.62-1.13-5.27-2.4-2.19-4.3,4.5-5.25,7.16-4.81-1.08-.45-2.12-.96-3.13-1.55-4.85-2.85-8.55-7.22-10.45-12.52-.08,0-.16,0-.24,0h0s0,0,0,0l-2.41-.99ZM358.73,40.59c-.05.06-.11.11-.16.17-.49.57-.79,1.3-.79,2.1h0s0,0,0,0c0,.9.38,1.72.98,2.31h0c.35.35.79.62,1.27.78-.12,1.6-.02,2.96-.04,4.59-.01.92-.07,1.85-.16,2.77-.46,4.72-1.88,9.21-3.64,12.26v.02c-.56.96-1.17,1.86-1.84,2.72-.67.85-1.39,1.65-2.18,2.4-1.61,1.52-3.46,2.81-5.57,3.83-2.01-2.62-3.59-5.22-4.94-8.34,3.94-1.64,9.8-5.6,10.99-11.61.75-2.65.83-5.46.3-8.18-.53-2.72-1.67-5.36-3.37-7.65-2.14-2.89-5.11-5.41-8.9-6.72.14-.38.24-.59.39-.97.32-.81.67-1.59,1.03-2.35l.02-.03.03-.06c.5-1.04,1.05-2.05,1.63-3.03-.01.4.02.77.09,1.1.12.56.34,1.03.65,1.37.35.38.8.61,1.31.63.6.03,1.27-.24,1.96-.86.31.66.73,1.18,1.21,1.56.58.47,1.25.74,1.97.84.69.1,1.42.04,2.15-.15,1.52-.39,3.04-1.35,4.11-2.61.12-.12.19-.29.18-.47-.03-.34-.33-.59-.68-.57-1.59.12-2.73-.09-3.52-.53-.87-.49-1.32-1.3-1.45-2.3-.15-1.08.06-2.38.49-3.72.26-.81.59-1.63.98-2.42,1.73-3.58,3.43-5.53,6.73-7.36,1.45-.81,2.96-1.54,4.5-2.21-.47.54-.79,1.07-.98,1.56-.27.72-.27,1.39-.05,1.93.24.59.71,1.01,1.37,1.2.67.19,1.54.12,2.52-.34-.04.67.11,1.22.39,1.67.27.42.66.74,1.11.95l.04.02c.45.2.96.29,1.49.27.84-.03,1.75-.33,2.51-.92.04.2.09.38.16.56,0,.02,0,.04.02.05.41,1.16,1.17,1.95,2.14,2.46.93.49,2.05.69,3.23.69,1.32,0,2.73-.27,4.02-.71.17-.05.31-.18.38-.35.13-.31-.02-.67-.34-.8-2.11-.86-3.33-1.91-3.82-3.02-.36-.83-.31-1.72.09-2.6.43-.94,1.24-1.89,2.38-2.76,1.36-1.04,3.16-1.97,5.29-2.67,4.62-1.52,9.05-1.58,13.74-.67,2.93.57,5.56,1.28,8.33,2.25-2.45,1.73-4.21,3.85-5.84,6.13-.37-.14-.76-.21-1.18-.21h0s0,0,0,0h0c-.93,0-1.77.37-2.37.96-.6.59-.98,1.41-.98,2.31h0s0,0,0,0c0,.9.38,1.72.98,2.31.13.12.26.24.4.34-.89,2.15-1.55,4.41-2,6.7-5.53-1.98-11.93-2.47-17.82-1.18-2.45.53-4.28,1.21-6.76-.05-2.35-1.2-3.5-3.58.14-5.69-2.92.08-4.62,1.13-5.27,2.4-2.19,4.3,4.5,5.25,7.16,4.81-1.08.45-2.12.96-3.13,1.55-4.85,2.85-8.55,7.22-10.45,12.52-.08,0-.16,0-.24,0h0s0,0,0,0l-2.41.99ZM94.35,595.85h0c.93,0,1.77-.37,2.37-.96.01-.01.02-.02.03-.04l-2.41.99ZM96.76,594.86c.06-.06.11-.11.16-.17.49-.57.79-1.3.79-2.1h0s0,0,0,0c0-.9-.38-1.72-.98-2.31h0c-.35-.35-.79-.61-1.27-.78.12-1.6.02-2.96.04-4.59.01-.92.07-1.85.16-2.77.46-4.72,1.88-9.21,3.64-12.26v-.02c.57-.96,1.17-1.86,1.84-2.71.67-.85,1.39-1.66,2.18-2.4,1.61-1.52,3.47-2.81,5.57-3.83,2.01,2.62,3.59,5.22,4.94,8.34-3.94,1.64-9.8,5.6-10.99,11.61-.75,2.65-.83,5.46-.3,8.18.53,2.72,1.67,5.36,3.37,7.65,2.14,2.89,5.11,5.41,8.9,6.72-.14.38-.24.59-.39.97-.32.81-.67,1.59-1.03,2.35l-.02.03-.03.06c-.5,1.04-1.05,2.05-1.63,3.03.01-.4-.02-.77-.09-1.1-.12-.56-.34-1.03-.65-1.36-.35-.39-.8-.61-1.31-.63-.6-.03-1.27.23-1.96.86-.31-.66-.73-1.18-1.21-1.56-.58-.47-1.25-.74-1.97-.84-.69-.1-1.42-.04-2.15.15-1.52.39-3.04,1.35-4.11,2.61-.12.12-.19.29-.18.47.03.34.33.59.68.57,1.59-.12,2.73.09,3.52.53.87.49,1.32,1.3,1.45,2.3.15,1.08-.06,2.38-.49,3.72-.26.81-.59,1.63-.98,2.42-1.73,3.58-3.43,5.53-6.73,7.36-1.45.81-2.96,1.54-4.5,2.21.47-.54.79-1.07.98-1.56.27-.72.27-1.39.05-1.93-.24-.59-.71-1.01-1.37-1.2-.67-.19-1.54-.12-2.52.34.04-.66-.11-1.23-.39-1.67-.27-.42-.66-.74-1.11-.95l-.04-.02c-.45-.2-.96-.29-1.49-.27-.84.03-1.75.33-2.51.92-.04-.2-.1-.38-.16-.56,0-.02,0-.04-.02-.05-.41-1.16-1.17-1.95-2.14-2.46-.93-.49-2.05-.69-3.23-.69-1.33,0-2.73.27-4.02.71-.17.05-.31.18-.38.35-.13.31.02.67.34.8,2.11.86,3.33,1.91,3.82,3.02.36.83.31,1.72-.09,2.6-.43.95-1.24,1.89-2.38,2.76-1.36,1.04-3.16,1.97-5.29,2.67-4.62,1.52-9.05,1.58-13.74.67-2.93-.57-5.56-1.28-8.33-2.25,2.45-1.73,4.21-3.85,5.84-6.13.37.14.76.21,1.18.21h0s0,0,0,0h0c.93,0,1.77-.37,2.37-.96.6-.59.98-1.41.98-2.31h0s0,0,0,0c0-.9-.38-1.72-.98-2.31-.13-.12-.26-.24-.41-.34.89-2.15,1.55-4.41,2-6.7,5.53,1.98,11.93,2.47,17.82,1.18,2.45-.53,4.28-1.21,6.76.05,2.35,1.2,3.5,3.58-.14,5.69,2.92-.08,4.62-1.13,5.27-2.4,2.19-4.3-4.5-5.25-7.16-4.81,1.08-.45,2.12-.96,3.13-1.55,4.85-2.85,8.55-7.22,10.45-12.52.08,0,.16,0,.24,0h0s0,0,0,0l2.41-.99ZM96.76,40.59c.06.06.11.11.16.17.49.57.79,1.3.79,2.1h0s0,0,0,0c0,.9-.38,1.72-.98,2.31h0c-.35.35-.79.62-1.27.78.12,1.6.02,2.96.04,4.59.01.92.07,1.85.15,2.77.46,4.72,1.88,9.21,3.64,12.26v.02c.56.96,1.18,1.86,1.84,2.72.67.85,1.4,1.65,2.18,2.4,1.61,1.52,3.46,2.81,5.57,3.83,2.01-2.62,3.59-5.22,4.94-8.34-3.94-1.64-9.8-5.6-10.99-11.61-.75-2.65-.83-5.46-.3-8.18.53-2.72,1.67-5.36,3.37-7.65,2.14-2.89,5.11-5.41,8.9-6.72-.14-.38-.24-.59-.39-.97-.32-.81-.67-1.59-1.03-2.35l-.02-.03-.03-.06c-.5-1.04-1.05-2.05-1.63-3.03.01.4-.02.77-.09,1.1-.12.56-.34,1.03-.65,1.37-.35.38-.8.61-1.31.63-.6.03-1.27-.24-1.96-.86-.31.66-.72,1.18-1.21,1.56-.58.47-1.25.74-1.97.84-.69.1-1.42.04-2.15-.15-1.52-.39-3.04-1.35-4.11-2.61-.12-.12-.19-.29-.18-.47.03-.34.33-.59.68-.57,1.59.12,2.73-.09,3.52-.53.87-.49,1.32-1.3,1.45-2.3.15-1.08-.06-2.38-.49-3.72-.26-.81-.59-1.63-.98-2.42-1.73-3.58-3.43-5.53-6.73-7.36-1.46-.81-2.96-1.54-4.5-2.21.48.54.8,1.07.98,1.56.27.72.27,1.39.05,1.93-.24.59-.71,1.01-1.37,1.2-.67.19-1.54.12-2.52-.34.04.67-.11,1.22-.39,1.67-.27.42-.66.74-1.11.95l-.04.02c-.45.2-.96.29-1.49.27-.85-.03-1.75-.33-2.52-.92-.04.2-.09.38-.16.56,0,.02,0,.04-.02.05-.41,1.16-1.17,1.95-2.14,2.46-.93.49-2.05.69-3.23.69-1.32,0-2.73-.27-4.02-.71-.17-.05-.31-.18-.38-.35-.13-.31.02-.67.34-.8,2.11-.86,3.33-1.91,3.82-3.02.36-.83.31-1.72-.09-2.6-.43-.94-1.24-1.89-2.38-2.76-1.36-1.04-3.16-1.97-5.29-2.67-4.62-1.52-9.05-1.58-13.74-.67-2.93.57-5.56,1.28-8.33,2.25,2.45,1.73,4.21,3.85,5.84,6.13.37-.14.77-.21,1.18-.21h0s0,0,0,0h0c.93,0,1.76.37,2.37.96.6.59.98,1.41.98,2.31h0s0,0,0,0c0,.9-.38,1.72-.99,2.31-.13.12-.26.24-.4.34.89,2.15,1.55,4.41,2,6.7,5.53-1.98,11.93-2.47,17.82-1.18,2.45.53,4.28,1.21,6.76-.05,2.35-1.2,3.5-3.58-.14-5.69,2.92.08,4.62,1.13,5.27,2.4,2.19,4.3-4.5,5.25-7.16,4.81,1.08.45,2.12.96,3.13,1.55,4.85,2.85,8.55,7.22,10.45,12.52.08,0,.16,0,.24,0h0s0,0,0,0l2.4.99Z"/>
    </g>
  </g>
</svg>