<?xml version="1.0" encoding="UTF-8"?>
<svg id="Layer_2" data-name="Layer 2" xmlns="http://www.w3.org/2000/svg" viewBox="0 0 465.37 649.22">
  <defs>
    <style>
      .cls-1 {
        fill: #c89040;
        fill-rule: evenodd;
      }
    </style>
  </defs>
  <g id="Layer_1-2" data-name="Layer 1">
    <g>
      <path class="cls-1" d="M97.06,7.57l-1.4-1.82,102.44.06,171.12-.06-1.05,1.82H97.06Z"/>
      <path class="cls-1" d="M95.94,13.14v-1.81h273.37v1.81H95.94Z"/>
      <path class="cls-1" d="M368.31,641.65l1.4,1.81-102.44-.06-171.12.06,1.05-1.81h271.11Z"/>
      <path class="cls-1" d="M369.42,636.08v1.82H96.06v-1.82h273.36Z"/>
      <path class="cls-1" d="M459.19,560.3l1.99,2.02c0-155.24.06-319.6.06-474.83l-1.94.85c0,155.24-.11,316.72-.11,471.96Z"/>
      <path class="cls-1" d="M453.16,88.39h1.99v472.6l-2.05-.27c0-159.37.06-312.97.06-472.34Z"/>
      <path class="cls-1" d="M6.17,88.92l-1.99-2.03c0,155.24-.06,319.6-.06,474.83l1.94-.84c0-155.24.11-316.73.11-471.96Z"/>
      <path class="cls-1" d="M12.21,560.82h-1.99V88.22l2.05.27c0,159.37-.06,312.97-.06,472.34Z"/>
      <path class="cls-1" d="M416.51,30.3s1.28.19,1.82-.98c.54-1.17-.66-2.41-2.11-2.3-1.45.11-3.27,1.77-1.7,4.41,1.57,2.64,6.04,1.2,7.19-1.21,1.16-2.41-.12-5.47-2.44-7.05-2.31-1.58-7.15-2-10.59.38-3.43,2.37-4.05,6.56-4.01,6.6.04.04-1.13-.03-1.79.46-.66.49-1.15.82-1.63.62-.47-.21-.9-.9-.86-.9.04,0-.59,1.22.31,2.46.91,1.24,1.89,1.5,1.94,1.5s-.73,1.03-.69,2.2c.04,1.17.33,1.74.04,2.23-.29.49-1.24.9-1.24.9,0,0,1.54.36,2.51-.82.97-1.18.66-2.29,1.38-2.83.72-.54,1.38-.36,1.38-.36,0,0-.6.13-.76.66-.16.53.06,1.63-.21,1.95-.27.32-.58.52-1.15.75-.58.22-.93.47-1.11.82-.18.36-.02.84-.02.84,0,0,.21-.79.97-.92.76-.13,1.91.21,2.68-.23.76-.43,1.4-1.54,1.4-1.54,0,0,.97-.32,1.91.92.95,1.24,1.32,2.51,3.15,3.29,1.83.77,2.88,1.01,3.33,1.8.45.79-.04,1.43-.04,1.43,0,0-.95-.3-1.44.15-.49.45-.43,1.41.02,1.82.45.41,2.37.36,3.27-.84,1.81-2.4-.26-4.07-2.47-4.99-.76-.32-1.03-1.05-1.03-1.05,0,0,.86.68,2.04.69,1.17.02,2.2-.77,2.2-.77,0,0-.99.15-2.24-.47-1.26-.62-2.38-.87-3.29-.87s-4.3-1.33-5.97-2.89c-1.42-1.33-2.9-3.69-1.85-5.56,0,0,.12,2.89,2.18,4.84,2.06,1.95,6.36,3.15,8.72,3.26,2.36.11,5.5-.64,7.9-2.45,2.4-1.81,5.71-5.05,5.99-9.24.29-4.19.72-6.02.72-6.02,0,0-1.13.51-1.88,1.71-.74,1.2-.91,3.42-.91,3.42,0,0-1.38-2.16.45-4.84,1.83-2.68,3.93-1.78,3.93-1.78,0,0-.68,1.41-.37,2.44.31,1.03.39,1.56.39,1.56,0,0,.25-.71,1.21-.36.97.36.62,1.99.6,2.01-.02.02,1.19-.94,1.28-1.92.08-.98-.68-1.78-.68-1.78,0,0,1.05-.99,2.3.04,1.26,1.03,2.9.81,2.9.81l-.49-1.09s.76.06,1.48-.19c.72-.24,1.36-.52,1.36-.52,0,0-.31-.92-1.34-1.6-1.03-.68-2-.73-2-.73l.72-.77s-1.15-.56-2.06-.64c-.9-.08-1.54.17-1.54.17,0,0,.41-.04.04-1.2-.37-1.16-1.69-1.84-1.69-1.84,0,0,.45,1.99-.39,2.53-.84.54-1.83.32-1.98-.08-.15-.39.19-.81.19-.81,0,0-1.59.47-1.91,1.33-.33.86-.02,1.52-.02,1.52,0,0-1.28.38-2.26,1.76-.99,1.39-1.09,2.27-1.09,2.27,0,0-.41-2.54-3.8-6.31-3.39-3.77-10.13-4.79-10.13-4.79,0,0,3.35-.64,7.28,1.58,3.93,2.23,6.7,7.09,6.7,7.09l1.49-1.89s-1.7-3.05-4.63-5.28c-2.93-2.23-6.12-3.32-6.12-3.32,0,0-.87-.87-1.7-2.38-.83-1.51-2.19-2.15-3.47-2.56-1.28-.41-2.94-.28-3.6-.77-.66-.49-.74-1.2-.41-1.5.33-.3.84-.13.99.07.14.21.04.49.04.49,0,0,.78-.52.6-1.07-.19-.55-1.63-1.52-2.8-.52-1.17.99-1.48,2.67-1.09,3.28.39.62,1.2.9,1.2.9,0,0-1.51.06-1.61.68-.1.62,1.87,1.11,1.87,1.11,0,0-.23,1.03,1.05,1.15,1.28.11.82-1.09,2.04-1.63,1.21-.54,1.67-.32,1.67-.32,0,0-1.07.71-.33,1.54.89,1,2.44.12,3.62.45.6.17,1.38,1.52,1.38,1.52,0,0-2.38-.84-5.44-.01-3.06.83-5.34,2.53-5.34,2.53,0,0,1.02-1.13,2.89-2.16,1.87-1.04,2.55-1.05,2.55-1.05,0,0-2.18-.68-6.48.91-4.3,1.58-11.04,6.53-11.04,6.53,0,0,1.36-2.08,5.29-4.45,3.93-2.38,7.61-3.47,7.61-3.47,0,0-3.14-1.28-6.45-.6-3.31.68-7.45.3-8.15-.19-.7-.49,0-1.51-.5-1.81-.5-.3-2.06-.23-2.15.9-.08,1.13-.04,1.55-.04,1.55,0,0-.79-.19-1.91.53-1.11.72-1.49,1.06-2.11.42-.62-.64-.12-1.17.25-1.44.37-.26.91-.15.91-.15-2.52-1.71-5.08,1.7-3.18,3.43,1.4,1.28,3.72.6,4.8-.38,1.08-.98,2.44-1.55,3.59-1.7,1.15-.15,2.27.38,2.27.38,0,0-2.51-.37-4.37,1.33-1.86,1.7-4.8,2.41-5.83,1.92-1.03-.49-1.57-1.74-2.4-1.28-.83.45.16,1.58.16,1.58,0,0-5.46.38-7.53-.45-2.07-.83-3.02-2.22-3.1-1.55-.08.68.46,1.47,1.78,2.38,1.32.9,1.98,1.21,1.98,1.21,0,0-3.64-.08-5.09-1.77-1.45-1.7.43-3.06,1.46-2.99,1.03.08,1.73.56,2.12-.13.39-.7-1.69-1.58-1.69-1.58,0,0,.58-.34,1.46-.09.88.24,1.48.15,1.83-.21.35-.36.51-.92-.54-1.65-1.05-.73-1.95-.99-3.09-.68-1.13.32-2.14,1.61-2.14,1.61,0,0,.86-2.03,3.05-2.52,2.18-.49,3.81,1.45,4.09,2.31.29.86.15,1.67-.66,1.77-.8.09-1.36.19-1.48.52-.12.34-.27,1.41.74,1.99,1.01.58,3.44.2,4.18-1.76.74-1.96-1.2-6.07-5.05-5.73-2.97.26-5.81,2.12-6.01,4.98,0,0-.37-1.69.72-2.87,1.09-1.18,1.67-1.26,2.14-1.95.47-.7.47-1.26.14-1.67-.33-.41-1.46.17-1.52.57-.06.39.25,1.01-.49,1.84-.74.82-1.79.81-3.25,2.4-1.46,1.6.12,2.4.12,2.4,0,0-.06-.7.49-1.35.56-.66,1.19-.94,1.19-.94,0,0-3.46,4.37,1.63,8.34,5.09,3.96,14.85,0,18.99-1.96,4.15-1.97,7.31-2.75,8.65-2.84,1.34-.09,2,.13,2.04.13s-4.45.67-7.22,1.92c-2.77,1.25-5.99,2.53-8.97,3.73-2.98,1.21-5.5.79-5.75,1.17-.25.38.49.83,1.98,1.21,1.49.38,4.76-.11,6.62-1.21,1.86-1.09,3.39-1.96,6.04-3.32,2.65-1.36,4.72-1.81,4.72-1.81,0,0-3.56,1.51-5.75,3.51-2.19,2-3.27,1.39-3.1,2.07.16.68,1.74.45,1.74.45,0,0-1.9.91-3.51,1.7-1.62.79-3.52,1.09-3.35,1.32.16.23,1.61,1.4,3.64.53,2.03-.87,3.47-1.89,9.84-5.66,6.37-3.77,9.06-4.19,9.02-4.15-.04.04-2.69,1.62-5.96,4.23-3.26,2.6-4.55,3.92-4.55,3.92,0,0,1.53-2.03,2.85-3.23,1.32-1.2,3.27-2.72,3.27-2.72,0,0-3.23,1.48-6.01,3.49-2.78,2.01-5.93,3.45-6.79,3.87-.86.41-.1.96,1.17,1,1.28.04,2.02-.19,2.84-.71.82-.52,1.79-1.11,1.79-1.11,0,0-.59.62-.41,1.65.19,1.03,1.11,2.07,1.4,1.54.29-.52.39-1.73,2.79-4.07,2.4-2.34,3.72-4.15,8.31-6.3,4.59-2.15,8.64-.79,8.64-.79,0,0-4.63-.68-7.15,1.09-2.52,1.77-3.85,3.28-3.72,4.3.12,1.02.04,1.4.33,1.13.29-.27,3.06-4.15,5.87-4.98,2.81-.83,5.29,0,5.29,0,0,0-3.64-.83-7.03,1.81-3.39,2.64-4.18,3.73-4.18,4.42s-.12,2.75.66,2.49c.79-.26,2.77-3.36,2.77-3.36,0,0,.37,1.25,1.66.98,1.28-.26,1.74-1.06,1.74-1.13,0-.08-1.78.11-1.28-1.47.5-1.58,6.08-2.75,9.59-2.11,3.52.64,5.25,2.98,5.25,2.98,0,0-3.35-.57-4.18.04-.83.6-.41,1.74-.29,1.85.12.11,1.57.07,3.18,1.02,1.61.94,2.48,1.89,2.48,1.89,0,0-1.12-.31-2.14-.3-1.03,0-1.39.04-1.53.28-.15.24.22.73.34.77.11.05,1.51-.58,3.03,1.71,1.52,2.29-.11,5.99-4.29,8.59-4.18,2.6-8.99.93-10.95-.56-1.96-1.48-2.26-3.12-2.26-3.12,0,0,2.45,2.8,4.12,3.49,1.67.69,3.89-1.3,3.4-1.71-.49-.41-4.52.65-6.38-2.48-1.86-3.13-.21-4.79.54-5.62.74-.83,2.53-1.32,2.53-1.32,0,0-1.66.75-2.57,2.41-.91,1.66,1.15,4.53,1.82,4.22.66-.3,1.12-1.47.75-1.81-.38-.34-.91-2.19.82-3.55,1.74-1.36,5-.94,6.24,1.09,1.24,2.04-.25,5.13-2.77,4.04Z"/>
      <path class="cls-1" d="M432.78,45.14s-.2-1.17,1.08-1.66c1.28-.49,2.65.6,2.52,1.92-.12,1.32-1.94,2.98-4.84,1.55-2.89-1.43-1.32-5.51,1.33-6.57,2.65-1.06,6,.11,7.73,2.23,1.74,2.11,2.19,6.53-.41,9.66-2.61,3.13-7.2,3.7-7.24,3.66-.04-.04.03,1.03-.5,1.63-.54.6-.91,1.05-.68,1.48.23.43.99.83.99.79,0-.04-1.34.54-2.7-.28-1.36-.83-1.65-1.73-1.65-1.76s-1.13.67-2.41.63c-1.28-.04-1.9-.3-2.44-.04-.54.26-.99,1.13-.99,1.13,0,0-.4-1.41.9-2.29,1.3-.88,2.51-.6,3.11-1.26.6-.65.39-1.26.39-1.26,0,0-.15.54-.72.7-.58.15-1.79-.06-2.14.19-.35.24-.58.53-.83,1.05-.24.53-.51.85-.91,1.01-.39.17-.93.02-.93.02,0,0,.87-.19,1.01-.88.14-.69-.23-1.74.25-2.44.47-.7,1.69-1.28,1.69-1.28,0,0,.35-.88-1.01-1.75-1.36-.86-2.76-1.2-3.6-2.87-.84-1.67-1.11-2.63-1.98-3.04-.86-.41-1.56.04-1.56.04,0,0,.33.86-.16,1.31-.5.45-1.55.4-2-.02-.45-.41-.39-2.16.93-2.99,2.63-1.65,4.46.24,5.48,2.25.35.7,1.15.94,1.15.94,0,0-.74-.79-.76-1.86-.02-1.07.85-2.01.85-2.01,0,0-.16.9.51,2.04.68,1.14.95,2.18.95,3s1.46,3.92,3.17,5.44c1.46,1.3,4.05,2.65,6.09,1.69,0,0-3.17-.12-5.31-1.99-2.14-1.88-3.45-5.8-3.57-7.95-.12-2.15.7-5.02,2.69-7.2,1.98-2.19,5.54-5.2,10.13-5.47,4.59-.26,6.6-.66,6.6-.66,0,0-.56,1.04-1.87,1.71-1.32.68-3.75.82-3.75.82,0,0,2.37,1.26,5.31-.41,2.95-1.67,1.96-3.59,1.96-3.59,0,0-1.55.62-2.68.34-1.13-.28-1.71-.36-1.71-.36,0,0,.78-.23.39-1.11-.39-.88-2.18-.56-2.2-.55-.02.02,1.03-1.09,2.1-1.16,1.07-.07,1.96.62,1.96.62,0,0,1.09-.96-.04-2.1-1.13-1.14-.88-2.65-.88-2.65l1.19.45s-.06-.69.2-1.35c.27-.66.58-1.24.58-1.24,0,0,1.01.28,1.75,1.22.74.94.8,1.82.8,1.82l.84-.66s.62,1.05.7,1.88c.08.83-.19,1.41-.19,1.41,0,0,.04-.38,1.32-.04,1.28.34,2.02,1.54,2.02,1.54,0,0-2.18-.41-2.78.36-.6.77-.35,1.67.08,1.8.43.13.89-.17.89-.17,0,0-.51,1.44-1.46,1.74-.95.3-1.67.02-1.67.02,0,0-.41,1.16-1.94,2.07-1.52.9-2.49.99-2.49.99,0,0,2.78.37,6.91,3.47,4.14,3.09,5.25,9.24,5.25,9.24,0,0,.71-3.05-1.74-6.64-2.44-3.58-7.77-6.11-7.77-6.11l2.07-1.36s3.35,1.55,5.79,4.22c2.44,2.68,3.64,5.58,3.64,5.58,0,0,.95.79,2.61,1.55,1.65.75,2.36,2,2.81,3.17.46,1.17.31,2.68.84,3.29.53.6,1.32.68,1.65.37.33-.3.14-.77-.08-.9-.23-.13-.53-.04-.53-.04,0,0,.58-.71,1.17-.54.6.17,1.67,1.48.58,2.55-1.09,1.07-2.92,1.35-3.6.99-.68-.36-.99-1.09-.99-1.09,0,0-.06,1.37-.74,1.46-.68.09-1.22-1.71-1.22-1.71,0,0-1.13.2-1.25-.96-.12-1.17,1.19-.75,1.79-1.86.6-1.11.35-1.52.35-1.52,0,0-.78.98-1.69.3-1.09-.82-.13-2.23-.49-3.3-.19-.54-1.67-1.26-1.67-1.26,0,0,.92,2.17.01,4.96-.91,2.79-2.77,4.86-2.77,4.86,0,0,1.24-.93,2.37-2.64,1.13-1.71,1.15-2.33,1.15-2.33,0,0,.74,1.99-1,5.91-1.74,3.92-7.16,10.07-7.16,10.07,0,0,2.27-1.24,4.88-4.83,2.6-3.58,3.8-6.94,3.8-6.94,0,0,1.4,2.87.66,5.89-.74,3.02-.33,6.79.21,7.43.54.64,1.66,0,1.98.45.33.45.25,1.89-.99,1.96-1.24.08-1.69.04-1.69.04,0,0,.21.72-.58,1.74-.79,1.02-1.16,1.36-.46,1.93.7.56,1.28.11,1.57-.23.29-.34.16-.83.16-.83,1.87,2.29-1.87,4.63-3.76,2.91-1.4-1.28-.66-3.4.42-4.38,1.07-.98,1.7-2.23,1.87-3.28.16-1.05-.41-2.07-.41-2.07,0,0,.41,2.29-1.45,3.98-1.86,1.7-2.65,4.38-2.11,5.32.54.94,1.9,1.44,1.41,2.19-.5.76-1.74-.15-1.74-.15,0,0-.41,4.98.5,6.86.91,1.89,2.44,2.75,1.69,2.83-.74.08-1.61-.41-2.61-1.62-.99-1.21-1.32-1.81-1.32-1.81,0,0,.08,3.32,1.94,4.64,1.86,1.32,3.36-.39,3.28-1.33-.08-.94-.62-1.58.14-1.93.76-.36,1.73,1.54,1.73,1.54,0,0,.37-.52.1-1.33-.27-.81-.16-1.35.23-1.67.39-.32,1.01-.47,1.81.49.8.96,1.09,1.78.74,2.82-.35,1.03-1.77,1.95-1.77,1.95,0,0,2.22-.79,2.76-2.78.54-1.99-1.59-3.48-2.53-3.74-.95-.26-1.83-.13-1.93.6-.1.73-.21,1.24-.58,1.35-.37.11-1.54.24-2.18-.68-.64-.92-.22-3.14,1.93-3.81,2.15-.68,6.66,1.09,6.28,4.6-.29,2.71-2.33,5.3-5.46,5.49,0,0,1.85.34,3.15-.66,1.3-1,1.38-1.52,2.14-1.95.76-.43,1.38-.43,1.83-.13.45.3-.19,1.33-.62,1.39-.43.06-1.11-.22-2.01.45-.91.68-.88,1.63-2.63,2.97-1.75,1.33-2.64-.11-2.64-.11,0,0,.76.06,1.48-.45.72-.51,1.03-1.09,1.03-1.09,0,0-4.79,3.16-9.13-1.48-4.34-4.64,0-13.54,2.15-17.32,2.16-3.78,3.01-6.67,3.11-7.89.11-1.22-.14-1.82-.14-1.86,0-.04-.74,4.06-2.1,6.58-1.36,2.53-2.77,5.47-4.09,8.19-1.32,2.72-.87,5.02-1.28,5.25-.42.22-.91-.45-1.32-1.81-.42-1.36.12-4.33,1.32-6.03,1.2-1.7,2.15-3.09,3.64-5.51,1.49-2.41,1.99-4.3,1.99-4.3,0,0-1.66,3.24-3.85,5.24-2.19,2-1.53,2.98-2.27,2.83-.74-.15-.5-1.58-.5-1.58,0,0-.99,1.74-1.86,3.21-.87,1.47-1.2,3.21-1.45,3.06-.25-.15-1.53-1.47-.58-3.32.95-1.85,2.07-3.17,6.21-8.98,4.13-5.81,4.59-8.26,4.55-8.22-.04.04-1.78,2.45-4.63,5.43-2.85,2.98-4.3,4.15-4.3,4.15,0,0,2.22-1.39,3.54-2.59,1.32-1.2,2.99-2.98,2.99-2.98,0,0-1.63,2.95-3.83,5.48-2.2,2.53-3.78,5.4-4.24,6.19-.45.79-1.05.09-1.09-1.07-.04-1.17.21-1.84.78-2.59.58-.75,1.21-1.63,1.21-1.63,0,0-.68.54-1.81.38-1.13-.17-2.26-1.01-1.69-1.28.58-.26,1.9-.35,4.47-2.54,2.57-2.19,4.55-3.4,6.91-7.58,2.36-4.19.87-7.89.87-7.89,0,0,.75,4.22-1.2,6.53-1.95,2.3-3.6,3.51-4.72,3.4-1.11-.11-1.53-.04-1.24-.3.29-.26,4.55-2.79,5.46-5.36.91-2.56,0-4.83,0-4.83,0,0,.91,3.32-1.99,6.41-2.9,3.09-4.09,3.81-4.84,3.81s-3.02.11-2.73-.6c.29-.72,3.68-2.53,3.68-2.53,0,0-1.37-.34-1.08-1.51.29-1.17,1.16-1.58,1.24-1.58s-.12,1.62,1.62,1.17c1.74-.45,3.02-5.54,2.31-8.75-.7-3.21-3.27-4.79-3.27-4.79,0,0,.62,3.06-.04,3.81-.66.75-1.9.38-2.03.27-.12-.12-.08-1.44-1.11-2.91-1.03-1.47-2.07-2.26-2.07-2.26,0,0,.34,1.02.33,1.96-.01.94-.04,1.26-.31,1.39-.26.13-.79-.21-.85-.31-.05-.1.64-1.38-1.88-2.76-2.51-1.39-6.57.1-9.42,3.91-2.85,3.81-1.01,8.2.61,9.98,1.63,1.78,3.42,2.07,3.42,2.07,0,0-3.07-2.23-3.83-3.75-.76-1.52,1.42-3.55,1.87-3.1.45.45-.71,4.12,2.72,5.82,3.43,1.7,5.25.19,6.16-.49.91-.68,1.45-2.3,1.45-2.3,0,0-.82,1.51-2.65,2.34-1.82.83-4.96-1.06-4.63-1.66.33-.6,1.61-1.02,1.99-.68.37.34,2.4.83,3.89-.75,1.49-1.58,1.03-4.57-1.2-5.7-2.23-1.13-5.62.23-4.43,2.53Z"/>
      <g>
        <path class="cls-1" d="M425.24,3.36s1.16.3,1.9-.98c.74-1.28-1.12-3.21-3.02-2-1.9,1.21-2.94,3.28-1.24,5.96,1.7,2.68,4.76,3.58,7.9,3.66,3.14.08,6.13.57,7.6,1.71,1.46,1.15,1.69,1.95,1.95,1.75.27-.21,1.09-.88.86-2.1-.23-1.22-1.28-1.84-1.28-1.84,0,0,1.54-.02,2.26.56.72.58.97.99.97.99,0,0,.71-.7.68-1.28-.02-.58-.4-.87-.4-.87,0,0,1.67-.54,3.15-.27,1.48.26,1.87.51,1.93.26.06-.25.02-.4-.49-1.01-.51-.62-.9-.68-.9-.68,0,0,3.91-2.51,1.42-5.28-1.88-2.08-4.44-1.1-4.89.28-.45,1.4,1.38,2.5,2.4,1.17.29-.38.2-.83.2-.83,0,0,1.46,1.12.18,2.59-1.28,1.47-2.83.92-4.15,1.23-1.32.3-2.69,1.24-2.69,1.24,0,0,.33-.38.29-1.09-.04-.72-.71-1.32-.71-1.4s-.79,1.25-3.56,2.19c-2.77.94-7.36.98-9.39-.94-2.03-1.93-.99-3.02-.99-3.02Z"/>
        <path class="cls-1" d="M461.68,36.6s-.33-1.06,1.07-1.73c1.41-.68,3.51,1.02,2.19,2.75-1.33,1.74-3.6,2.68-6.54,1.13-2.94-1.55-3.93-4.34-4.01-7.2-.08-2.87-.63-5.59-1.88-6.93-1.26-1.33-2.14-1.54-1.91-1.78.23-.24.97-1,2.31-.79,1.34.21,2.01,1.17,2.01,1.17,0,0,.02-1.41-.62-2.07-.64-.66-1.09-.88-1.09-.88,0,0,.77-.64,1.4-.62.63.02.95.36.95.36,0,0,.59-1.52.3-2.87-.29-1.35-.55-1.71-.29-1.77.27-.06.43-.02,1.11.45.68.47.74.83.74.83,0,0,2.76-3.57,5.79-1.3,2.28,1.72,1.2,4.06-.31,4.47-1.53.42-2.74-1.26-1.28-2.19.41-.26.91-.19.91-.19,0,0-1.22-1.33-2.83-.16-1.61,1.17-1.01,2.58-1.34,3.79-.33,1.21-1.37,2.45-1.37,2.45,0,0,.41-.3,1.2-.27.79.04,1.45.64,1.53.64s-1.37.72-2.4,3.24c-1.03,2.53-1.08,6.72,1.03,8.56,2.11,1.85,3.31.9,3.31.9Z"/>
        <path class="cls-1" d="M453.98,13.74s-.27,2.23-2.02,3c-1.75.77-2.96-.45-3.7.15-.74.6-.08,1.43-.08,1.43,0,0-.78.68-.31,1,.47.32,3.13.07,4.77-.98,1.65-1.05,1.91-3.81,1.34-4.6Z"/>
        <path class="cls-1" d="M450.44,10.51s-2.45.24-3.29,1.84c-.84,1.6.5,2.7-.16,3.38-.66.68-1.56.08-1.56.08,0,0-.74.71-1.09.28-.35-.43-.08-2.85,1.07-4.35,1.15-1.5,4.18-1.75,5.04-1.22Z"/>
        <path class="cls-1" d="M456.27,9.48s2.06.6,2.68,1.95c.62,1.35-.43,2.61-1.79,2.54-1.36-.08-2.45-2.12-2.45-2.12,0,0-.17.79-1.36,1.76-1.81,1.48-4.38-.88-2.77-2.52,1.07-1.09,1.94-1.24,1.94-1.24,0,0-2.24-1-2.33-2.23-.08-1.24,1.29-2.2,2.78-1.63,1.48.56,2.14,2.44,2.14,2.44-1.69-.47-2.68.78-2.39,1.88.15.56.79,1.17,1.4,1.34,1.23.34,2.68-.58,2.15-2.16Z"/>
        <path class="cls-1" d="M455.44,9.03c-.87-.8-.87-2.09,0-2.89.87-.8,2.29-.8,3.17,0,.88.8.88,2.1,0,2.89-.88.8-2.29.8-3.17,0Z"/>
        <path class="cls-1" d="M462.82,8.14s-.27-.64-1.13-1.27c-.86-.63-1.01-.68-1.01-.68,0,0,.51-.21,1.15-1.09.47-.65.61-1.66.58-2.43-.86-.02-1.94.08-2.67.52-.97.58-1.2,1.05-1.2,1.05,0,0-.05-.14-.75-.92-.69-.78-1.39-1.03-1.39-1.03-3.39,2.66,2.29,9.02,6.42,5.85Z"/>
        <path class="cls-1" d="M445.59,17.66c-.69-.62-1.8-.62-2.48,0-.69.63-.69,1.64,0,2.26.68.62,1.8.62,2.48,0,.68-.63.68-1.64,0-2.26Z"/>
      </g>
      <path class="cls-1" d="M416.51,618.92s1.28-.19,1.82.98c.54,1.17-.66,2.41-2.11,2.3-1.45-.11-3.27-1.77-1.7-4.41,1.57-2.64,6.04-1.21,7.19,1.21,1.16,2.42-.12,5.47-2.44,7.06-2.31,1.58-7.15,2-10.59-.38-3.43-2.38-4.05-6.56-4.01-6.6.04-.04-1.13.03-1.79-.46-.66-.49-1.15-.83-1.63-.62-.47.21-.9.9-.86.9.04,0-.59-1.22.31-2.46.91-1.24,1.89-1.5,1.94-1.5s-.73-1.03-.69-2.2c.04-1.17.33-1.74.04-2.22-.29-.49-1.24-.91-1.24-.91,0,0,1.54-.36,2.51.83.97,1.18.66,2.29,1.38,2.83.72.55,1.38.36,1.38.36,0,0-.6-.13-.76-.66-.16-.52.06-1.63-.21-1.95-.27-.32-.58-.53-1.15-.75-.58-.22-.93-.47-1.11-.82-.18-.35-.02-.85-.02-.85,0,0,.21.79.97.92.76.13,1.91-.21,2.68.22.76.43,1.4,1.54,1.4,1.54,0,0,.97.32,1.91-.92.95-1.24,1.32-2.52,3.15-3.28,1.83-.77,2.88-1.01,3.33-1.8.45-.79-.04-1.43-.04-1.43,0,0-.95.3-1.44-.15-.49-.45-.43-1.41.02-1.83.45-.41,2.37-.35,3.27.85,1.81,2.4-.26,4.07-2.47,4.99-.76.32-1.03,1.05-1.03,1.05,0,0,.86-.68,2.04-.69,1.17-.02,2.2.77,2.2.77,0,0-.99-.15-2.24.47-1.26.62-2.38.86-3.29.86s-4.3,1.33-5.97,2.89c-1.42,1.33-2.9,3.69-1.85,5.56,0,0,.12-2.89,2.18-4.85,2.06-1.95,6.36-3.15,8.72-3.26,2.36-.11,5.5.64,7.9,2.45,2.4,1.81,5.71,5.06,5.99,9.24.29,4.19.72,6.02.72,6.02,0,0-1.13-.51-1.88-1.71-.74-1.2-.91-3.42-.91-3.42,0,0-1.38,2.16.45,4.84,1.83,2.69,3.93,1.79,3.93,1.79,0,0-.68-1.41-.37-2.44.31-1.03.39-1.56.39-1.56,0,0,.25.71,1.21.36.97-.36.62-1.99.6-2.01-.02-.02,1.19.94,1.28,1.92.08.98-.68,1.78-.68,1.78,0,0,1.05,1,2.3-.04,1.26-1.03,2.9-.8,2.9-.8l-.49,1.09s.76-.06,1.48.19c.72.25,1.36.53,1.36.53,0,0-.31.92-1.34,1.59-1.03.68-2,.73-2,.73l.72.77s-1.15.56-2.06.64c-.9.08-1.54-.17-1.54-.17,0,0,.41.04.04,1.2-.37,1.16-1.69,1.84-1.69,1.84,0,0,.45-1.99-.39-2.53-.84-.54-1.83-.32-1.98.08-.15.39.19.81.19.81,0,0-1.59-.47-1.91-1.33-.33-.86-.02-1.52-.02-1.52,0,0-1.28-.38-2.26-1.77-.99-1.39-1.09-2.27-1.09-2.27,0,0-.41,2.53-3.8,6.31-3.39,3.77-10.13,4.79-10.13,4.79,0,0,3.35.64,7.28-1.58,3.93-2.23,6.7-7.09,6.7-7.09l1.49,1.89s-1.7,3.05-4.63,5.28c-2.93,2.23-6.12,3.32-6.12,3.32,0,0-.87.87-1.7,2.37-.83,1.51-2.19,2.15-3.47,2.56-1.28.42-2.94.28-3.6.77-.66.49-.74,1.2-.41,1.5.33.3.84.13.99-.08.14-.2.04-.49.04-.49,0,0,.78.52.6,1.07-.19.54-1.63,1.52-2.8.53-1.17-1-1.48-2.67-1.09-3.29.39-.62,1.2-.9,1.2-.9,0,0-1.51-.05-1.61-.68-.1-.62,1.87-1.11,1.87-1.11,0,0-.23-1.03,1.05-1.14,1.28-.11.82,1.09,2.04,1.63,1.21.55,1.67.32,1.67.32,0,0-1.07-.71-.33-1.54.89-1,2.44-.12,3.62-.45.6-.17,1.38-1.52,1.38-1.52,0,0-2.38.84-5.44.01-3.06-.83-5.34-2.53-5.34-2.53,0,0,1.02,1.12,2.89,2.16,1.87,1.03,2.55,1.05,2.55,1.05,0,0-2.18.68-6.48-.91-4.3-1.58-11.04-6.53-11.04-6.53,0,0,1.36,2.07,5.29,4.45,3.93,2.38,7.61,3.47,7.61,3.47,0,0-3.14,1.28-6.45.6-3.31-.68-7.45-.3-8.15.19-.7.49,0,1.51-.5,1.81-.5.3-2.06.22-2.15-.9-.08-1.13-.04-1.55-.04-1.55,0,0-.79.19-1.91-.53-1.11-.71-1.49-1.06-2.11-.41-.62.64-.12,1.17.25,1.43.37.27.91.15.91.15-2.52,1.71-5.08-1.7-3.18-3.43,1.4-1.28,3.72-.6,4.8.38,1.08.98,2.44,1.55,3.59,1.7,1.15.15,2.27-.38,2.27-.38,0,0-2.51.37-4.37-1.33-1.86-1.7-4.8-2.42-5.83-1.92-1.03.49-1.57,1.73-2.4,1.28-.83-.45.16-1.58.16-1.58,0,0-5.46-.38-7.53.45-2.07.83-3.02,2.23-3.1,1.55-.08-.68.46-1.47,1.78-2.38,1.32-.91,1.98-1.21,1.98-1.21,0,0-3.64.07-5.09,1.77-1.45,1.7.43,3.06,1.46,2.99,1.03-.08,1.73-.56,2.12.13.39.7-1.69,1.58-1.69,1.58,0,0,.58.34,1.46.09.88-.25,1.48-.15,1.83.21.35.35.51.92-.54,1.65-1.05.74-1.95,1-3.09.68-1.13-.32-2.14-1.62-2.14-1.62,0,0,.86,2.03,3.05,2.52,2.18.49,3.81-1.45,4.09-2.31.29-.87.15-1.67-.66-1.77-.8-.1-1.36-.19-1.48-.53-.12-.34-.27-1.41.74-1.99,1.01-.58,3.44-.2,4.18,1.76.74,1.96-1.2,6.08-5.05,5.74-2.97-.26-5.81-2.12-6.01-4.98,0,0-.37,1.69.72,2.87,1.09,1.18,1.67,1.26,2.14,1.95.47.7.47,1.26.14,1.67-.33.41-1.46-.17-1.52-.56-.06-.39.25-1.01-.49-1.84-.74-.82-1.79-.81-3.25-2.4-1.46-1.59.12-2.4.12-2.4,0,0-.06.69.49,1.35.56.66,1.19.94,1.19.94,0,0-3.46-4.37,1.63-8.33,5.09-3.96,14.85,0,18.99,1.96,4.15,1.97,7.31,2.74,8.65,2.84,1.34.1,2-.13,2.04-.13s-4.45-.67-7.22-1.92c-2.77-1.25-5.99-2.53-8.97-3.73-2.98-1.21-5.5-.79-5.75-1.17-.25-.38.49-.83,1.98-1.2,1.49-.38,4.76.11,6.62,1.2,1.86,1.09,3.39,1.96,6.04,3.32,2.65,1.36,4.72,1.81,4.72,1.81,0,0-3.56-1.51-5.75-3.51-2.19-2-3.27-1.39-3.1-2.07.16-.68,1.74-.45,1.74-.45,0,0-1.9-.91-3.51-1.7-1.62-.79-3.52-1.1-3.35-1.32.16-.23,1.61-1.39,3.64-.53,2.03.87,3.47,1.89,9.84,5.66,6.37,3.77,9.06,4.19,9.02,4.15-.04-.04-2.69-1.62-5.96-4.22-3.26-2.6-4.55-3.92-4.55-3.92,0,0,1.53,2.03,2.85,3.23,1.32,1.2,3.27,2.72,3.27,2.72,0,0-3.23-1.48-6.01-3.49-2.78-2.01-5.93-3.46-6.79-3.87-.86-.41-.1-.96,1.17-1,1.28-.04,2.02.19,2.84.72.82.52,1.79,1.11,1.79,1.11,0,0-.59-.62-.41-1.65.19-1.03,1.11-2.06,1.4-1.54.29.53.39,1.74,2.79,4.07,2.4,2.34,3.72,4.15,8.31,6.3,4.59,2.15,8.64.79,8.64.79,0,0-4.63.68-7.15-1.09-2.52-1.77-3.85-3.28-3.72-4.3.12-1.02.04-1.39.33-1.13.29.26,3.06,4.15,5.87,4.98,2.81.83,5.29,0,5.29,0,0,0-3.64.83-7.03-1.81-3.39-2.64-4.18-3.73-4.18-4.41s-.12-2.75.66-2.49c.79.27,2.77,3.36,2.77,3.36,0,0,.37-1.25,1.66-.98,1.28.27,1.74,1.06,1.74,1.13s-1.78-.11-1.28,1.47c.5,1.59,6.08,2.75,9.59,2.12,3.52-.64,5.25-2.98,5.25-2.98,0,0-3.35.57-4.18-.04-.83-.6-.41-1.74-.29-1.85.12-.11,1.57-.08,3.18-1.02,1.61-.94,2.48-1.88,2.48-1.88,0,0-1.12.31-2.14.3-1.03,0-1.39-.04-1.53-.28-.15-.24.22-.72.34-.77.11-.05,1.51.58,3.03-1.71,1.52-2.29-.11-5.99-4.29-8.59-4.18-2.6-8.99-.93-10.95.56-1.96,1.48-2.26,3.11-2.26,3.11,0,0,2.45-2.8,4.12-3.49,1.67-.7,3.89,1.3,3.4,1.71-.49.41-4.52-.65-6.38,2.48-1.86,3.13-.21,4.79.54,5.62.74.83,2.53,1.32,2.53,1.32,0,0-1.66-.75-2.57-2.41-.91-1.66,1.15-4.53,1.82-4.22.66.3,1.12,1.47.75,1.81-.38.34-.91,2.19.82,3.55,1.74,1.36,5,.94,6.24-1.09,1.24-2.04-.25-5.13-2.77-4.04Z"/>
      <path class="cls-1" d="M432.78,604.08s-.2,1.17,1.08,1.66c1.28.49,2.65-.6,2.52-1.93-.12-1.32-1.94-2.98-4.84-1.55-2.89,1.44-1.32,5.51,1.33,6.57,2.65,1.06,6-.11,7.73-2.23,1.74-2.11,2.19-6.53-.41-9.66-2.61-3.13-7.2-3.7-7.24-3.66-.04.04.03-1.03-.5-1.63-.54-.6-.91-1.05-.68-1.49.23-.43.99-.82.99-.79,0,.04-1.34-.54-2.7.28-1.36.83-1.65,1.73-1.65,1.77,0,.04-1.13-.67-2.41-.63-1.28.04-1.9.3-2.44.04-.54-.26-.99-1.13-.99-1.13,0,0-.4,1.41.9,2.29,1.3.88,2.51.6,3.11,1.26.6.65.39,1.26.39,1.26,0,0-.15-.54-.72-.69-.58-.15-1.79.05-2.14-.19-.35-.24-.58-.52-.83-1.05-.24-.52-.51-.84-.91-1.01-.39-.17-.93-.02-.93-.02,0,0,.87.19,1.01.88.14.69-.23,1.74.25,2.44.47.69,1.69,1.27,1.69,1.27,0,0,.35.88-1.01,1.75-1.36.86-2.76,1.2-3.6,2.87-.84,1.67-1.11,2.63-1.98,3.04-.86.41-1.56-.04-1.56-.04,0,0,.33-.87-.16-1.31-.5-.45-1.55-.4-2,.02-.45.41-.39,2.16.93,2.98,2.63,1.65,4.46-.24,5.48-2.25.35-.69,1.15-.94,1.15-.94,0,0-.74.79-.76,1.86-.02,1.07.85,2.01.85,2.01,0,0-.16-.9.51-2.04.68-1.14.95-2.18.95-3.01s1.46-3.92,3.17-5.44c1.46-1.3,4.05-2.65,6.09-1.69,0,0-3.17.11-5.31,1.99-2.14,1.88-3.45,5.8-3.57,7.95-.12,2.15.7,5.02,2.69,7.2,1.98,2.19,5.54,5.21,10.13,5.47,4.59.27,6.6.66,6.6.66,0,0-.56-1.03-1.87-1.71-1.32-.67-3.75-.83-3.75-.83,0,0,2.37-1.26,5.31.41,2.95,1.67,1.96,3.59,1.96,3.59,0,0-1.55-.62-2.68-.34-1.13.28-1.71.36-1.71.36,0,0,.78.22.39,1.11-.39.88-2.18.56-2.2.54-.02-.02,1.03,1.09,2.1,1.17,1.07.08,1.96-.62,1.96-.62,0,0,1.09.96-.04,2.1-1.13,1.14-.88,2.65-.88,2.65l1.19-.45s-.06.69.2,1.35c.27.66.58,1.24.58,1.24,0,0,1.01-.28,1.75-1.22.74-.94.8-1.82.8-1.82l.84.66s.62-1.05.7-1.88c.08-.83-.19-1.41-.19-1.41,0,0,.04.38,1.32.04,1.28-.34,2.02-1.54,2.02-1.54,0,0-2.18.41-2.78-.36-.6-.77-.35-1.67.08-1.8.43-.13.89.17.89.17,0,0-.51-1.44-1.46-1.74-.95-.3-1.67-.02-1.67-.02,0,0-.41-1.16-1.94-2.06-1.52-.9-2.49-1-2.49-1,0,0,2.78-.37,6.91-3.47,4.14-3.09,5.25-9.24,5.25-9.24,0,0,.71,3.05-1.74,6.64-2.44,3.58-7.77,6.11-7.77,6.11l2.07,1.36s3.35-1.55,5.79-4.23c2.44-2.68,3.64-5.58,3.64-5.58,0,0,.95-.79,2.61-1.55,1.65-.75,2.36-2,2.81-3.17.46-1.17.31-2.68.84-3.28.53-.6,1.32-.68,1.65-.38.33.3.14.77-.08.9-.23.13-.53.04-.53.04,0,0,.58.71,1.17.54.6-.17,1.67-1.48.58-2.55-1.09-1.07-2.92-1.35-3.6-1-.68.36-.99,1.09-.99,1.09,0,0-.06-1.37-.74-1.46-.68-.09-1.22,1.71-1.22,1.71,0,0-1.13-.21-1.25.96-.12,1.16,1.19.75,1.79,1.85.6,1.11.35,1.52.35,1.52,0,0-.78-.98-1.69-.3-1.09.82-.13,2.23-.49,3.3-.19.55-1.67,1.26-1.67,1.26,0,0,.92-2.17.01-4.96-.91-2.79-2.77-4.87-2.77-4.87,0,0,1.24.93,2.37,2.64,1.13,1.71,1.15,2.33,1.15,2.33,0,0,.74-1.98-1-5.91-1.74-3.92-7.16-10.07-7.16-10.07,0,0,2.27,1.25,4.88,4.83,2.6,3.58,3.8,6.94,3.8,6.94,0,0,1.4-2.87.66-5.89-.74-3.02-.33-6.79.21-7.43.54-.64,1.66,0,1.98-.45.33-.45.25-1.89-.99-1.96-1.24-.07-1.69-.04-1.69-.04,0,0,.21-.72-.58-1.73-.79-1.02-1.16-1.36-.46-1.93.7-.56,1.28-.11,1.57.23.29.34.16.83.16.83,1.87-2.29-1.87-4.63-3.76-2.9-1.4,1.28-.66,3.4.42,4.38,1.07.98,1.7,2.23,1.87,3.28.16,1.05-.41,2.07-.41,2.07,0,0,.41-2.29-1.45-3.98-1.86-1.7-2.65-4.38-2.11-5.32.54-.94,1.9-1.43,1.41-2.19-.5-.75-1.74.15-1.74.15,0,0-.41-4.98.5-6.87.91-1.88,2.44-2.75,1.69-2.83-.74-.07-1.61.41-2.61,1.62-.99,1.21-1.32,1.81-1.32,1.81,0,0,.08-3.32,1.94-4.64,1.86-1.32,3.36.39,3.28,1.33-.08.94-.62,1.58.14,1.93.76.36,1.73-1.54,1.73-1.54,0,0,.37.52.1,1.33-.27.81-.16,1.35.23,1.67.39.32,1.01.47,1.81-.49.8-.95,1.09-1.78.74-2.81-.35-1.03-1.77-1.95-1.77-1.95,0,0,2.22.79,2.76,2.78.54,1.99-1.59,3.47-2.53,3.73-.95.26-1.83.13-1.93-.6-.1-.73-.21-1.24-.58-1.35-.37-.11-1.54-.24-2.18.68-.64.92-.22,3.14,1.93,3.82,2.15.68,6.66-1.09,6.28-4.6-.29-2.71-2.33-5.3-5.46-5.49,0,0,1.85-.34,3.15.66,1.3,1,1.38,1.52,2.14,1.95.76.43,1.38.43,1.83.13.45-.3-.19-1.33-.62-1.39-.43-.06-1.11.23-2.01-.45-.91-.67-.88-1.63-2.63-2.97-1.75-1.33-2.64.11-2.64.11,0,0,.76-.06,1.48.45.72.51,1.03,1.09,1.03,1.09,0,0-4.79-3.16-9.13,1.49-4.34,4.64,0,13.54,2.15,17.32,2.16,3.78,3.01,6.67,3.11,7.89.11,1.22-.14,1.82-.14,1.86s-.74-4.06-2.1-6.59c-1.36-2.53-2.77-5.47-4.09-8.19-1.32-2.72-.87-5.02-1.28-5.25-.42-.22-.91.46-1.32,1.81-.42,1.36.12,4.34,1.32,6.04,1.2,1.7,2.15,3.09,3.64,5.51,1.49,2.41,1.99,4.3,1.99,4.3,0,0-1.66-3.24-3.85-5.24-2.19-2-1.53-2.98-2.27-2.83-.74.15-.5,1.58-.5,1.58,0,0-.99-1.74-1.86-3.21-.87-1.47-1.2-3.2-1.45-3.05-.25.15-1.53,1.47-.58,3.32.95,1.85,2.07,3.17,6.21,8.98,4.13,5.81,4.59,8.26,4.55,8.22-.04-.04-1.78-2.45-4.63-5.43-2.85-2.98-4.3-4.15-4.3-4.15,0,0,2.22,1.39,3.54,2.59,1.32,1.2,2.99,2.98,2.99,2.98,0,0-1.63-2.94-3.83-5.48-2.2-2.53-3.78-5.41-4.24-6.19-.45-.79-1.05-.09-1.09,1.07-.04,1.16.21,1.84.78,2.59.58.75,1.21,1.63,1.21,1.63,0,0-.68-.55-1.81-.38-1.13.17-2.26,1.01-1.69,1.28.58.26,1.9.35,4.47,2.54,2.57,2.19,4.55,3.4,6.91,7.58,2.36,4.19.87,7.88.87,7.88,0,0,.75-4.22-1.2-6.53-1.95-2.3-3.6-3.51-4.72-3.4-1.11.11-1.53.04-1.24.3.29.27,4.55,2.79,5.46,5.36.91,2.56,0,4.83,0,4.83,0,0,.91-3.32-1.99-6.41-2.9-3.09-4.09-3.81-4.84-3.81s-3.02-.12-2.73.6c.29.71,3.68,2.53,3.68,2.53,0,0-1.37.34-1.08,1.51.29,1.17,1.16,1.58,1.24,1.58s-.12-1.62,1.62-1.17c1.74.45,3.02,5.54,2.31,8.75-.7,3.21-3.27,4.79-3.27,4.79,0,0,.62-3.05-.04-3.81-.66-.75-1.9-.38-2.03-.27-.12.12-.08,1.44-1.11,2.91-1.03,1.47-2.07,2.26-2.07,2.26,0,0,.34-1.02.33-1.96-.01-.94-.04-1.26-.31-1.39-.26-.13-.79.2-.85.31-.05.1.64,1.38-1.88,2.77-2.51,1.39-6.57-.1-9.42-3.91-2.85-3.81-1.01-8.2.61-9.98,1.63-1.78,3.42-2.06,3.42-2.06,0,0-3.07,2.23-3.83,3.75-.76,1.52,1.42,3.55,1.87,3.1.45-.45-.71-4.12,2.72-5.82,3.43-1.7,5.25-.19,6.16.49.91.68,1.45,2.3,1.45,2.3,0,0-.82-1.51-2.65-2.34-1.82-.83-4.96,1.06-4.63,1.66.33.6,1.61,1.02,1.99.68.37-.34,2.4-.83,3.89.76,1.49,1.58,1.03,4.56-1.2,5.69-2.23,1.13-5.62-.22-4.43-2.53Z"/>
      <g>
        <path class="cls-1" d="M425.24,645.85s1.16-.3,1.9.98c.74,1.28-1.12,3.21-3.02,2-1.9-1.21-2.94-3.28-1.24-5.96,1.7-2.68,4.76-3.58,7.9-3.66,3.14-.08,6.13-.57,7.6-1.71,1.46-1.15,1.69-1.96,1.95-1.75.27.21,1.09.88.86,2.1-.23,1.22-1.28,1.84-1.28,1.84,0,0,1.54.02,2.26-.56.72-.58.97-.99.97-.99,0,0,.71.7.68,1.28-.02.57-.4.86-.4.86,0,0,1.67.54,3.15.28,1.48-.27,1.87-.51,1.93-.27.06.25.02.4-.49,1.02-.51.62-.9.67-.9.67,0,0,3.91,2.52,1.42,5.28-1.88,2.08-4.44,1.1-4.89-.28-.45-1.4,1.38-2.5,2.4-1.17.29.38.2.82.2.82,0,0,1.46-1.11.18-2.58-1.28-1.47-2.83-.92-4.15-1.22-1.32-.3-2.69-1.25-2.69-1.25,0,0,.33.38.29,1.1-.04.71-.71,1.32-.71,1.39s-.79-1.25-3.56-2.19c-2.77-.94-7.36-.98-9.39.94-2.03,1.93-.99,3.02-.99,3.02Z"/>
        <path class="cls-1" d="M461.68,612.62s-.33,1.06,1.07,1.74c1.41.68,3.51-1.02,2.19-2.75-1.33-1.73-3.6-2.68-6.54-1.13-2.94,1.55-3.93,4.34-4.01,7.21-.08,2.86-.63,5.59-1.88,6.93-1.26,1.33-2.14,1.54-1.91,1.78.23.25.97,1,2.31.79,1.34-.21,2.01-1.17,2.01-1.17,0,0,.02,1.41-.62,2.07-.64.66-1.09.88-1.09.88,0,0,.77.64,1.4.62.63-.02.95-.36.95-.36,0,0,.59,1.52.3,2.87-.29,1.35-.55,1.71-.29,1.77.27.06.43.02,1.11-.45.68-.47.74-.83.74-.83,0,0,2.76,3.57,5.79,1.29,2.28-1.71,1.2-4.05-.31-4.46-1.53-.42-2.74,1.26-1.28,2.19.41.26.91.19.91.19,0,0-1.22,1.33-2.83.16-1.61-1.17-1.01-2.58-1.34-3.79-.33-1.21-1.37-2.45-1.37-2.45,0,0,.41.3,1.2.26.79-.04,1.45-.64,1.53-.64s-1.37-.71-2.4-3.24c-1.03-2.53-1.08-6.72,1.03-8.56,2.11-1.85,3.31-.91,3.31-.91Z"/>
        <path class="cls-1" d="M453.98,635.47s-.27-2.23-2.02-3c-1.75-.77-2.96.45-3.7-.15-.74-.6-.08-1.43-.08-1.43,0,0-.78-.68-.31-.99.47-.32,3.13-.08,4.77.98,1.65,1.05,1.91,3.81,1.34,4.6Z"/>
        <path class="cls-1" d="M450.44,638.7s-2.45-.24-3.29-1.84c-.84-1.6.5-2.7-.16-3.38-.66-.68-1.56-.08-1.56-.08,0,0-.74-.71-1.09-.28-.35.43-.08,2.85,1.07,4.35,1.15,1.5,4.18,1.75,5.04,1.22Z"/>
        <path class="cls-1" d="M456.27,639.74s2.06-.6,2.68-1.96c.62-1.35-.43-2.61-1.79-2.53-1.36.08-2.45,2.12-2.45,2.12,0,0-.17-.79-1.36-1.77-1.81-1.47-4.38.88-2.77,2.52,1.07,1.09,1.94,1.24,1.94,1.24,0,0-2.24.99-2.33,2.23-.08,1.24,1.29,2.2,2.78,1.63,1.48-.56,2.14-2.44,2.14-2.44-1.69.47-2.68-.78-2.39-1.88.15-.57.79-1.17,1.4-1.34,1.23-.33,2.68.58,2.15,2.16Z"/>
        <path class="cls-1" d="M455.44,640.18c-.87.8-.87,2.09,0,2.89.87.8,2.29.8,3.17,0,.88-.8.88-2.09,0-2.89-.88-.8-2.29-.8-3.17,0Z"/>
        <path class="cls-1" d="M462.82,641.08s-.27.64-1.13,1.27c-.86.63-1.01.68-1.01.68,0,0,.51.21,1.15,1.09.47.65.61,1.66.58,2.43-.86.02-1.94-.08-2.67-.52-.97-.58-1.2-1.05-1.2-1.05,0,0-.05.14-.75.92-.69.78-1.39,1.03-1.39,1.03-3.39-2.66,2.29-9.02,6.42-5.85Z"/>
        <path class="cls-1" d="M445.59,631.55c-.69.63-1.8.63-2.48,0-.69-.63-.69-1.64,0-2.26.68-.63,1.8-.63,2.48,0,.68.63.68,1.64,0,2.26Z"/>
      </g>
      <path class="cls-1" d="M48.85,30.3s-1.28.19-1.82-.98c-.54-1.17.66-2.41,2.11-2.3,1.45.11,3.27,1.77,1.7,4.41-1.57,2.64-6.04,1.2-7.2-1.21-1.16-2.41.12-5.47,2.44-7.05,2.32-1.58,7.15-2,10.59.38,3.43,2.37,4.05,6.56,4.01,6.6-.04.04,1.13-.03,1.79.46.66.49,1.15.82,1.63.62.47-.21.9-.9.86-.9s.6,1.22-.31,2.46c-.91,1.24-1.89,1.5-1.94,1.5-.04,0,.73,1.03.69,2.2-.04,1.17-.33,1.74-.04,2.23.29.49,1.24.9,1.24.9,0,0-1.54.36-2.51-.82-.97-1.18-.66-2.29-1.38-2.83-.72-.54-1.38-.36-1.38-.36,0,0,.6.13.76.66.16.53-.06,1.63.21,1.95.27.32.58.52,1.15.75.58.22.93.47,1.11.82.19.36.02.84.02.84,0,0-.2-.79-.97-.92-.76-.13-1.91.21-2.67-.23-.76-.43-1.4-1.54-1.4-1.54,0,0-.97-.32-1.91.92-.95,1.24-1.32,2.51-3.15,3.29-1.83.77-2.88,1.01-3.33,1.8-.45.79.04,1.43.04,1.43,0,0,.95-.3,1.44.15.49.45.43,1.41-.02,1.82s-2.37.36-3.27-.84c-1.81-2.4.26-4.07,2.47-4.99.76-.32,1.03-1.05,1.03-1.05,0,0-.86.68-2.04.69-1.17.02-2.2-.77-2.2-.77,0,0,.99.15,2.24-.47,1.26-.62,2.39-.87,3.29-.87s4.3-1.33,5.97-2.89c1.42-1.33,2.9-3.69,1.85-5.56,0,0-.12,2.89-2.18,4.84-2.06,1.95-6.36,3.15-8.72,3.26-2.36.11-5.5-.64-7.9-2.45-2.4-1.81-5.71-5.05-6-9.24-.29-4.19-.72-6.02-.72-6.02,0,0,1.13.51,1.87,1.71.74,1.2.91,3.42.91,3.42,0,0,1.38-2.16-.45-4.84-1.83-2.68-3.93-1.78-3.93-1.78,0,0,.68,1.41.37,2.44-.31,1.03-.39,1.56-.39,1.56,0,0-.24-.71-1.21-.36-.97.36-.62,1.99-.6,2.01.02.02-1.19-.94-1.28-1.92-.08-.98.68-1.78.68-1.78,0,0-1.05-.99-2.3.04-1.26,1.03-2.9.81-2.9.81l.49-1.09s-.76.06-1.48-.19c-.72-.24-1.36-.52-1.36-.52,0,0,.31-.92,1.34-1.6s2-.73,2-.73l-.72-.77s1.15-.56,2.06-.64c.91-.08,1.54.17,1.54.17,0,0-.41-.04-.04-1.2.37-1.16,1.69-1.84,1.69-1.84,0,0-.45,1.99.39,2.53.84.54,1.83.32,1.98-.08.14-.39-.19-.81-.19-.81,0,0,1.58.47,1.91,1.33.33.86.02,1.52.02,1.52,0,0,1.27.38,2.26,1.76.99,1.39,1.09,2.27,1.09,2.27,0,0,.41-2.54,3.8-6.31,3.39-3.77,10.13-4.79,10.13-4.79,0,0-3.35-.64-7.28,1.58-3.93,2.23-6.7,7.09-6.7,7.09l-1.49-1.89s1.69-3.05,4.63-5.28c2.94-2.23,6.12-3.32,6.12-3.32,0,0,.87-.87,1.7-2.38.83-1.51,2.19-2.15,3.48-2.56,1.28-.41,2.94-.28,3.6-.77.66-.49.74-1.2.41-1.5-.33-.3-.84-.13-.99.07-.14.21-.04.49-.04.49,0,0-.78-.52-.6-1.07.18-.55,1.63-1.52,2.8-.52,1.17.99,1.48,2.67,1.09,3.28-.39.62-1.19.9-1.19.9,0,0,1.5.06,1.61.68.1.62-1.87,1.11-1.87,1.11,0,0,.23,1.03-1.05,1.15-1.28.11-.82-1.09-2.04-1.63-1.22-.54-1.67-.32-1.67-.32,0,0,1.07.71.33,1.54-.9,1-2.45.12-3.62.45-.6.17-1.38,1.52-1.38,1.52,0,0,2.38-.84,5.44-.01,3.06.83,5.34,2.53,5.34,2.53,0,0-1.02-1.13-2.89-2.16-1.87-1.04-2.55-1.05-2.55-1.05,0,0,2.18-.68,6.48.91,4.3,1.58,11.04,6.53,11.04,6.53,0,0-1.37-2.08-5.3-4.45-3.93-2.38-7.61-3.47-7.61-3.47,0,0,3.14-1.28,6.45-.6,3.31.68,7.45.3,8.15-.19.7-.49,0-1.51.49-1.81.5-.3,2.07-.23,2.15.9.08,1.13.04,1.55.04,1.55,0,0,.78-.19,1.9.53,1.12.72,1.49,1.06,2.11.42.62-.64.12-1.17-.25-1.44-.37-.26-.91-.15-.91-.15,2.52-1.71,5.08,1.7,3.19,3.43-1.41,1.28-3.72.6-4.8-.38-1.08-.98-2.44-1.55-3.59-1.7-1.15-.15-2.26.38-2.26.38,0,0,2.51-.37,4.37,1.33,1.86,1.7,4.8,2.41,5.83,1.92,1.04-.49,1.57-1.74,2.4-1.28.83.45-.17,1.58-.17,1.58,0,0,5.46.38,7.53-.45,2.07-.83,3.02-2.22,3.1-1.55.08.68-.45,1.47-1.78,2.38-1.33.9-1.98,1.21-1.98,1.21,0,0,3.64-.08,5.08-1.77,1.45-1.7-.43-3.06-1.46-2.99-1.03.08-1.73.56-2.12-.13-.39-.7,1.69-1.58,1.69-1.58,0,0-.58-.34-1.46-.09-.88.24-1.48.15-1.83-.21-.35-.36-.51-.92.53-1.65,1.05-.73,1.96-.99,3.09-.68,1.13.32,2.14,1.61,2.14,1.61,0,0-.86-2.03-3.04-2.52-2.18-.49-3.81,1.45-4.1,2.31-.29.86-.14,1.67.66,1.77.8.09,1.36.19,1.48.52.12.34.27,1.41-.74,1.99-1.01.58-3.44.2-4.18-1.76-.75-1.96,1.2-6.07,5.04-5.73,2.97.26,5.81,2.12,6.01,4.98,0,0,.37-1.69-.72-2.87-1.09-1.18-1.67-1.26-2.14-1.95-.47-.7-.47-1.26-.14-1.67.33-.41,1.46.17,1.52.57.06.39-.24,1.01.5,1.84.74.82,1.79.81,3.25,2.4,1.46,1.6-.12,2.4-.12,2.4,0,0,.06-.7-.49-1.35-.56-.66-1.19-.94-1.19-.94,0,0,3.46,4.37-1.63,8.34-5.09,3.96-14.84,0-18.99-1.96-4.15-1.97-7.31-2.75-8.65-2.84-1.34-.09-2,.13-2.04.13s4.45.67,7.22,1.92c2.77,1.25,5.99,2.53,8.97,3.73,2.98,1.21,5.5.79,5.75,1.17.25.38-.5.83-1.98,1.21-1.49.38-4.76-.11-6.62-1.21-1.86-1.09-3.39-1.96-6.04-3.32-2.65-1.36-4.71-1.81-4.71-1.81,0,0,3.56,1.51,5.75,3.51,2.19,2,3.27,1.39,3.1,2.07-.17.68-1.74.45-1.74.45,0,0,1.9.91,3.51,1.7,1.61.79,3.52,1.09,3.35,1.32-.17.23-1.61,1.4-3.64.53-2.03-.87-3.47-1.89-9.84-5.66-6.37-3.77-9.06-4.19-9.02-4.15.04.04,2.69,1.62,5.95,4.23,3.27,2.6,4.55,3.92,4.55,3.92,0,0-1.53-2.03-2.84-3.23-1.32-1.2-3.27-2.72-3.27-2.72,0,0,3.23,1.48,6.01,3.49,2.78,2.01,5.93,3.45,6.79,3.87.86.41.1.96-1.18,1-1.27.04-2.02-.19-2.84-.71-.82-.52-1.79-1.11-1.79-1.11,0,0,.59.62.41,1.65-.19,1.03-1.11,2.07-1.4,1.54-.29-.52-.39-1.73-2.79-4.07-2.4-2.34-3.72-4.15-8.31-6.3-4.59-2.15-8.64-.79-8.64-.79,0,0,4.63-.68,7.15,1.09,2.52,1.77,3.85,3.28,3.72,4.3-.12,1.02-.04,1.4-.33,1.13-.29-.27-3.06-4.15-5.87-4.98-2.81-.83-5.29,0-5.29,0,0,0,3.64-.83,7.03,1.81,3.39,2.64,4.18,3.73,4.18,4.42s.12,2.75-.66,2.49c-.79-.26-2.77-3.36-2.77-3.36,0,0-.37,1.25-1.65.98-1.28-.26-1.74-1.06-1.74-1.13,0-.08,1.78.11,1.28-1.47-.5-1.58-6.08-2.75-9.59-2.11-3.52.64-5.25,2.98-5.25,2.98,0,0,3.35-.57,4.17.04.83.6.41,1.74.29,1.85-.12.11-1.57.07-3.18,1.02-1.61.94-2.48,1.89-2.48,1.89,0,0,1.12-.31,2.15-.3,1.03,0,1.39.04,1.53.28.14.24-.22.73-.34.77-.11.05-1.51-.58-3.03,1.71-1.52,2.29.11,5.99,4.29,8.59,4.17,2.6,8.99.93,10.94-.56,1.95-1.48,2.26-3.12,2.26-3.12,0,0-2.45,2.8-4.11,3.49-1.67.69-3.89-1.3-3.4-1.71.49-.41,4.52.65,6.38-2.48,1.86-3.13.21-4.79-.54-5.62-.75-.83-2.52-1.32-2.52-1.32,0,0,1.65.75,2.56,2.41.91,1.66-1.16,4.53-1.82,4.22-.66-.3-1.12-1.47-.74-1.81.37-.34.91-2.19-.83-3.55-1.73-1.36-5-.94-6.24,1.09-1.24,2.04.25,5.13,2.77,4.04Z"/>
      <path class="cls-1" d="M32.59,45.14s.21-1.17-1.07-1.66c-1.28-.49-2.65.6-2.52,1.92.12,1.32,1.94,2.98,4.84,1.55,2.89-1.43,1.32-5.51-1.32-6.57-2.65-1.06-6,.11-7.74,2.23-1.74,2.11-2.19,6.53.41,9.66,2.6,3.13,7.19,3.7,7.24,3.66.04-.04-.03,1.03.5,1.63.54.6.91,1.05.68,1.48-.23.43-.99.83-.99.79,0-.04,1.34.54,2.7-.28,1.36-.83,1.65-1.73,1.65-1.76s1.13.67,2.41.63c1.28-.04,1.9-.3,2.44-.04.54.26.99,1.13.99,1.13,0,0,.39-1.41-.9-2.29-1.3-.88-2.51-.6-3.11-1.26-.6-.65-.39-1.26-.39-1.26,0,0,.14.54.72.7.57.15,1.79-.06,2.14.19.35.24.58.53.82,1.05.25.53.52.85.91,1.01.39.17.93.02.93.02,0,0-.87-.19-1.01-.88-.15-.69.23-1.74-.25-2.44-.47-.7-1.69-1.28-1.69-1.28,0,0-.35-.88,1.01-1.75,1.36-.86,2.76-1.2,3.6-2.87.84-1.67,1.11-2.63,1.98-3.04.86-.41,1.56.04,1.56.04,0,0-.33.86.16,1.31.5.45,1.54.4,2-.02.45-.41.39-2.16-.93-2.99-2.63-1.65-4.46.24-5.48,2.25-.35.7-1.15.94-1.15.94,0,0,.74-.79.76-1.86.02-1.07-.85-2.01-.85-2.01,0,0,.17.9-.51,2.04-.68,1.14-.95,2.18-.95,3s-1.46,3.92-3.17,5.44c-1.46,1.3-4.05,2.65-6.09,1.69,0,0,3.17-.12,5.31-1.99,2.14-1.88,3.45-5.8,3.57-7.95.12-2.15-.7-5.02-2.69-7.2-1.99-2.19-5.54-5.2-10.13-5.47-4.59-.26-6.6-.66-6.6-.66,0,0,.56,1.04,1.87,1.71,1.32.68,3.75.82,3.75.82,0,0-2.37,1.26-5.31-.41-2.94-1.67-1.95-3.59-1.95-3.59,0,0,1.54.62,2.68.34,1.13-.28,1.71-.36,1.71-.36,0,0-.78-.23-.39-1.11.39-.88,2.18-.56,2.2-.55.02.02-1.03-1.09-2.1-1.16-1.07-.07-1.95.62-1.95.62,0,0-1.09-.96.04-2.1,1.13-1.14.89-2.65.89-2.65l-1.19.45s.06-.69-.21-1.35c-.27-.66-.58-1.24-.58-1.24,0,0-1.01.28-1.75,1.22-.74.94-.8,1.82-.8,1.82l-.84-.66s-.62,1.05-.7,1.88c-.08.83.18,1.41.18,1.41,0,0-.04-.38-1.32-.04-1.28.34-2.02,1.54-2.02,1.54,0,0,2.18-.41,2.78.36.6.77.35,1.67-.08,1.8-.43.13-.88-.17-.88-.17,0,0,.51,1.44,1.46,1.74.95.3,1.67.02,1.67.02,0,0,.41,1.16,1.94,2.07,1.52.9,2.49.99,2.49.99,0,0-2.78.37-6.92,3.47-4.13,3.09-5.25,9.24-5.25,9.24,0,0-.7-3.05,1.74-6.64,2.44-3.58,7.77-6.11,7.77-6.11l-2.07-1.36s-3.35,1.55-5.79,4.22c-2.44,2.68-3.64,5.58-3.64,5.58,0,0-.95.79-2.61,1.55-1.66.75-2.36,2-2.81,3.17-.45,1.17-.31,2.68-.84,3.29-.53.6-1.32.68-1.65.37-.33-.3-.15-.77.08-.9.23-.13.53-.04.53-.04,0,0-.58-.71-1.17-.54-.59.17-1.67,1.48-.58,2.55,1.09,1.07,2.92,1.35,3.6.99.68-.36.99-1.09.99-1.09,0,0,.06,1.37.74,1.46.68.09,1.22-1.71,1.22-1.71,0,0,1.13.2,1.25-.96.12-1.17-1.19-.75-1.79-1.86-.6-1.11-.35-1.52-.35-1.52,0,0,.78.98,1.69.3,1.09-.82.13-2.23.49-3.3.19-.54,1.67-1.26,1.67-1.26,0,0-.92,2.17-.01,4.96.91,2.79,2.77,4.86,2.77,4.86,0,0-1.24-.93-2.37-2.64-1.13-1.71-1.15-2.33-1.15-2.33,0,0-.74,1.99,1,5.91,1.74,3.92,7.15,10.07,7.15,10.07,0,0-2.27-1.24-4.88-4.83-2.61-3.58-3.8-6.94-3.8-6.94,0,0-1.41,2.87-.66,5.89.74,3.02.33,6.79-.21,7.43-.54.64-1.66,0-1.99.45-.33.45-.25,1.89.99,1.96,1.24.08,1.7.04,1.7.04,0,0-.21.72.58,1.74.79,1.02,1.16,1.36.45,1.93-.7.56-1.28.11-1.57-.23-.29-.34-.17-.83-.17-.83-1.87,2.29,1.87,4.63,3.76,2.91,1.41-1.28.66-3.4-.41-4.38-1.07-.98-1.7-2.23-1.87-3.28-.16-1.05.41-2.07.41-2.07,0,0-.41,2.29,1.45,3.98,1.86,1.7,2.65,4.38,2.11,5.32-.54.94-1.9,1.44-1.41,2.19.5.76,1.74-.15,1.74-.15,0,0,.41,4.98-.5,6.86-.91,1.89-2.44,2.75-1.7,2.83.75.08,1.62-.41,2.61-1.62.99-1.21,1.32-1.81,1.32-1.81,0,0-.08,3.32-1.94,4.64-1.86,1.32-3.36-.39-3.28-1.33.08-.94.62-1.58-.14-1.93-.76-.36-1.73,1.54-1.73,1.54,0,0-.37-.52-.1-1.33.27-.81.16-1.35-.23-1.67-.39-.32-1.01-.47-1.81.49-.8.96-1.09,1.78-.74,2.82.35,1.03,1.77,1.95,1.77,1.95,0,0-2.22-.79-2.76-2.78-.53-1.99,1.59-3.48,2.53-3.74.95-.26,1.83-.13,1.94.6.1.73.21,1.24.58,1.35.37.11,1.54.24,2.18-.68s.22-3.14-1.93-3.81c-2.15-.68-6.66,1.09-6.29,4.6.29,2.71,2.33,5.3,5.46,5.49,0,0-1.85.34-3.15-.66-1.3-1-1.38-1.52-2.14-1.95-.76-.43-1.38-.43-1.83-.13-.45.3.19,1.33.62,1.39.43.06,1.11-.22,2.02.45.9.68.88,1.63,2.63,2.97,1.75,1.33,2.63-.11,2.63-.11,0,0-.76.06-1.48-.45-.72-.51-1.03-1.09-1.03-1.09,0,0,4.79,3.16,9.13-1.48,4.34-4.64,0-13.54-2.15-17.32-2.16-3.78-3.01-6.67-3.11-7.89-.1-1.22.14-1.82.14-1.86,0-.04.74,4.06,2.1,6.58,1.36,2.53,2.77,5.47,4.09,8.19,1.32,2.72.87,5.02,1.28,5.25.41.22.91-.45,1.32-1.81.41-1.36-.13-4.33-1.32-6.03-1.2-1.7-2.15-3.09-3.64-5.51-1.49-2.41-1.99-4.3-1.99-4.3,0,0,1.66,3.24,3.85,5.24,2.19,2,1.53,2.98,2.28,2.83.75-.15.5-1.58.5-1.58,0,0,.99,1.74,1.86,3.21.87,1.47,1.2,3.21,1.45,3.06.25-.15,1.53-1.47.58-3.32-.95-1.85-2.07-3.17-6.2-8.98-4.13-5.81-4.59-8.26-4.55-8.22.04.04,1.78,2.45,4.63,5.43,2.85,2.98,4.3,4.15,4.3,4.15,0,0-2.22-1.39-3.54-2.59-1.32-1.2-2.98-2.98-2.98-2.98,0,0,1.63,2.95,3.83,5.48,2.2,2.53,3.79,5.4,4.24,6.19.45.79,1.05.09,1.09-1.07.04-1.17-.21-1.84-.78-2.59-.58-.75-1.22-1.63-1.22-1.63,0,0,.68.54,1.81.38,1.13-.17,2.26-1.01,1.69-1.28-.58-.26-1.9-.35-4.46-2.54-2.57-2.19-4.55-3.4-6.91-7.58-2.36-4.19-.87-7.89-.87-7.89,0,0-.74,4.22,1.2,6.53,1.94,2.3,3.6,3.51,4.71,3.4,1.12-.11,1.53-.04,1.24-.3-.29-.26-4.55-2.79-5.46-5.36-.91-2.56,0-4.83,0-4.83,0,0-.91,3.32,1.99,6.41,2.89,3.09,4.09,3.81,4.84,3.81s3.02.11,2.73-.6c-.29-.72-3.68-2.53-3.68-2.53,0,0,1.37-.34,1.08-1.51-.29-1.17-1.16-1.58-1.24-1.58s.12,1.62-1.61,1.17c-1.74-.45-3.02-5.54-2.32-8.75.7-3.21,3.27-4.79,3.27-4.79,0,0-.62,3.06.04,3.81.66.75,1.9.38,2.03.27.12-.12.08-1.44,1.12-2.91,1.04-1.47,2.07-2.26,2.07-2.26,0,0-.34,1.02-.33,1.96.01.94.04,1.26.31,1.39.26.13.79-.21.84-.31.05-.1-.64-1.38,1.88-2.76,2.51-1.39,6.57.1,9.42,3.91,2.85,3.81,1.01,8.2-.61,9.98-1.63,1.78-3.42,2.07-3.42,2.07,0,0,3.07-2.23,3.83-3.75.76-1.52-1.42-3.55-1.87-3.1-.45.45.71,4.12-2.73,5.82-3.43,1.7-5.25.19-6.16-.49-.91-.68-1.45-2.3-1.45-2.3,0,0,.83,1.51,2.65,2.34,1.82.83,4.96-1.06,4.63-1.66-.33-.6-1.61-1.02-1.98-.68-.37.34-2.4.83-3.89-.75-1.49-1.58-1.03-4.57,1.2-5.7,2.23-1.13,5.62.23,4.42,2.53Z"/>
      <g>
        <path class="cls-1" d="M40.13,3.36s-1.16.3-1.9-.98c-.74-1.28,1.12-3.21,3.02-2,1.9,1.21,2.94,3.28,1.24,5.96-1.7,2.68-4.76,3.58-7.9,3.66-3.14.08-6.13.57-7.59,1.71-1.46,1.15-1.69,1.95-1.95,1.75-.27-.21-1.09-.88-.86-2.1s1.28-1.84,1.28-1.84c0,0-1.55-.02-2.26.56-.72.58-.97.99-.97.99,0,0-.7-.7-.68-1.28.02-.58.4-.87.4-.87,0,0-1.67-.54-3.15-.27-1.48.26-1.87.51-1.94.26-.06-.25-.02-.4.49-1.01.51-.62.91-.68.91-.68,0,0-3.91-2.51-1.42-5.28,1.88-2.08,4.45-1.1,4.9.28.46,1.4-1.38,2.5-2.4,1.17-.29-.38-.21-.83-.21-.83,0,0-1.46,1.12-.17,2.59,1.28,1.47,2.83.92,4.15,1.23,1.32.3,2.69,1.24,2.69,1.24,0,0-.33-.38-.29-1.09.04-.72.7-1.32.7-1.4s.79,1.25,3.56,2.19c2.77.94,7.36.98,9.39-.94,2.03-1.93.99-3.02.99-3.02Z"/>
        <path class="cls-1" d="M3.69,36.6s.33-1.06-1.08-1.73c-1.41-.68-3.52,1.02-2.19,2.75,1.32,1.74,3.6,2.68,6.53,1.13,2.94-1.55,3.93-4.34,4.01-7.2.08-2.87.62-5.59,1.88-6.93,1.25-1.33,2.14-1.54,1.91-1.78-.22-.24-.97-1-2.3-.79-1.34.21-2.02,1.17-2.02,1.17,0,0-.02-1.41.62-2.07.64-.66,1.09-.88,1.09-.88,0,0-.77-.64-1.41-.62-.63.02-.95.36-.95.36,0,0-.59-1.52-.3-2.87.29-1.35.56-1.71.29-1.77-.27-.06-.43-.02-1.11.45-.68.47-.74.83-.74.83,0,0-2.76-3.57-5.78-1.3-2.28,1.72-1.2,4.06.31,4.47,1.53.42,2.74-1.26,1.28-2.19-.41-.26-.91-.19-.91-.19,0,0,1.22-1.33,2.83-.16,1.61,1.17,1.01,2.58,1.34,3.79.33,1.21,1.37,2.45,1.37,2.45,0,0-.42-.3-1.2-.27-.78.04-1.45.64-1.53.64s1.36.72,2.4,3.24c1.03,2.53,1.08,6.72-1.03,8.56-2.11,1.85-3.31.9-3.31.9Z"/>
        <path class="cls-1" d="M11.39,13.74s.27,2.23,2.02,3c1.75.77,2.96-.45,3.71.15.74.6.08,1.43.08,1.43,0,0,.78.68.31,1-.47.32-3.13.07-4.78-.98-1.65-1.05-1.91-3.81-1.34-4.6Z"/>
        <path class="cls-1" d="M14.93,10.51s2.45.24,3.29,1.84c.84,1.6-.49,2.7.17,3.38.66.68,1.56.08,1.56.08,0,0,.74.71,1.09.28.35-.43.08-2.85-1.07-4.35-1.15-1.5-4.18-1.75-5.04-1.22Z"/>
        <path class="cls-1" d="M9.1,9.48s-2.06.6-2.67,1.95c-.62,1.35.43,2.61,1.79,2.54,1.36-.08,2.45-2.12,2.45-2.12,0,0,.16.79,1.36,1.76,1.81,1.48,4.38-.88,2.76-2.52-1.07-1.09-1.93-1.24-1.93-1.24,0,0,2.24-1,2.33-2.23.08-1.24-1.3-2.2-2.78-1.63-1.48.56-2.14,2.44-2.14,2.44,1.69-.47,2.68.78,2.39,1.88-.15.56-.79,1.17-1.4,1.34-1.23.34-2.68-.58-2.15-2.16Z"/>
        <path class="cls-1" d="M9.92,9.03c.87-.8.87-2.09,0-2.89-.87-.8-2.3-.8-3.17,0-.87.8-.87,2.1,0,2.89.88.8,2.3.8,3.17,0Z"/>
        <path class="cls-1" d="M2.55,8.14s.27-.64,1.13-1.27c.85-.63,1.01-.68,1.01-.68,0,0-.51-.21-1.15-1.09-.47-.65-.61-1.66-.58-2.43.86-.02,1.93.08,2.67.52.97.58,1.2,1.05,1.2,1.05,0,0,.05-.14.74-.92.69-.78,1.39-1.03,1.39-1.03,3.39,2.66-2.29,9.02-6.41,5.85Z"/>
        <path class="cls-1" d="M19.78,17.66c.68-.62,1.8-.62,2.48,0,.69.63.69,1.64,0,2.26-.68.62-1.8.62-2.48,0-.69-.63-.69-1.64,0-2.26Z"/>
      </g>
      <path class="cls-1" d="M48.85,618.92s-1.28-.19-1.82.98c-.54,1.17.66,2.41,2.11,2.3,1.45-.11,3.27-1.77,1.7-4.41-1.57-2.64-6.04-1.21-7.2,1.21-1.16,2.42.12,5.47,2.44,7.06,2.32,1.58,7.15,2,10.59-.38,3.43-2.38,4.05-6.56,4.01-6.6-.04-.04,1.13.03,1.79-.46.66-.49,1.15-.83,1.63-.62.47.21.9.9.86.9s.6-1.22-.31-2.46c-.91-1.24-1.89-1.5-1.94-1.5-.04,0,.73-1.03.69-2.2-.04-1.17-.33-1.74-.04-2.22.29-.49,1.24-.91,1.24-.91,0,0-1.54-.36-2.51.83-.97,1.18-.66,2.29-1.38,2.83-.72.55-1.38.36-1.38.36,0,0,.6-.13.76-.66.16-.52-.06-1.63.21-1.95.27-.32.58-.53,1.15-.75.58-.22.93-.47,1.11-.82.19-.35.02-.85.02-.85,0,0-.2.79-.97.92-.76.13-1.91-.21-2.67.22-.76.43-1.4,1.54-1.4,1.54,0,0-.97.32-1.91-.92-.95-1.24-1.32-2.52-3.15-3.28-1.83-.77-2.88-1.01-3.33-1.8-.45-.79.04-1.43.04-1.43,0,0,.95.3,1.44-.15.49-.45.43-1.41-.02-1.83-.45-.41-2.37-.35-3.27.85-1.81,2.4.26,4.07,2.47,4.99.76.32,1.03,1.05,1.03,1.05,0,0-.86-.68-2.04-.69-1.17-.02-2.2.77-2.2.77,0,0,.99-.15,2.24.47,1.26.62,2.39.86,3.29.86s4.3,1.33,5.97,2.89c1.42,1.33,2.9,3.69,1.85,5.56,0,0-.12-2.89-2.18-4.85-2.06-1.95-6.36-3.15-8.72-3.26-2.36-.11-5.5.64-7.9,2.45-2.4,1.81-5.71,5.06-6,9.24-.29,4.19-.72,6.02-.72,6.02,0,0,1.13-.51,1.87-1.71.74-1.2.91-3.42.91-3.42,0,0,1.38,2.16-.45,4.84-1.83,2.69-3.93,1.79-3.93,1.79,0,0,.68-1.41.37-2.44-.31-1.03-.39-1.56-.39-1.56,0,0-.24.71-1.21.36-.97-.36-.62-1.99-.6-2.01.02-.02-1.19.94-1.28,1.92-.08.98.68,1.78.68,1.78,0,0-1.05,1-2.3-.04-1.26-1.03-2.9-.8-2.9-.8l.49,1.09s-.76-.06-1.48.19c-.72.25-1.36.53-1.36.53,0,0,.31.92,1.34,1.59,1.03.68,2,.73,2,.73l-.72.77s1.15.56,2.06.64c.91.08,1.54-.17,1.54-.17,0,0-.41.04-.04,1.2.37,1.16,1.69,1.84,1.69,1.84,0,0-.45-1.99.39-2.53.84-.54,1.83-.32,1.98.08.14.39-.19.81-.19.81,0,0,1.58-.47,1.91-1.33.33-.86.02-1.52.02-1.52,0,0,1.27-.38,2.26-1.77.99-1.39,1.09-2.27,1.09-2.27,0,0,.41,2.53,3.8,6.31,3.39,3.77,10.13,4.79,10.13,4.79,0,0-3.35.64-7.28-1.58-3.93-2.23-6.7-7.09-6.7-7.09l-1.49,1.89s1.69,3.05,4.63,5.28c2.94,2.23,6.12,3.32,6.12,3.32,0,0,.87.87,1.7,2.37.83,1.51,2.19,2.15,3.48,2.56,1.28.42,2.94.28,3.6.77.66.49.74,1.2.41,1.5-.33.3-.84.13-.99-.08-.14-.2-.04-.49-.04-.49,0,0-.78.52-.6,1.07.18.54,1.63,1.52,2.8.53,1.17-1,1.48-2.67,1.09-3.29-.39-.62-1.19-.9-1.19-.9,0,0,1.5-.05,1.61-.68.1-.62-1.87-1.11-1.87-1.11,0,0,.23-1.03-1.05-1.14-1.28-.11-.82,1.09-2.04,1.63-1.22.55-1.67.32-1.67.32,0,0,1.07-.71.33-1.54-.9-1-2.45-.12-3.62-.45-.6-.17-1.38-1.52-1.38-1.52,0,0,2.38.84,5.44.01,3.06-.83,5.34-2.53,5.34-2.53,0,0-1.02,1.12-2.89,2.16-1.87,1.03-2.55,1.05-2.55,1.05,0,0,2.18.68,6.48-.91,4.3-1.58,11.04-6.53,11.04-6.53,0,0-1.37,2.07-5.3,4.45-3.93,2.38-7.61,3.47-7.61,3.47,0,0,3.14,1.28,6.45.6,3.31-.68,7.45-.3,8.15.19.7.49,0,1.51.49,1.81.5.3,2.07.22,2.15-.9.08-1.13.04-1.55.04-1.55,0,0,.78.19,1.9-.53,1.12-.71,1.49-1.06,2.11-.41.62.64.12,1.17-.25,1.43-.37.27-.91.15-.91.15,2.52,1.71,5.08-1.7,3.19-3.43-1.41-1.28-3.72-.6-4.8.38-1.08.98-2.44,1.55-3.59,1.7-1.15.15-2.26-.38-2.26-.38,0,0,2.51.37,4.37-1.33,1.86-1.7,4.8-2.42,5.83-1.92,1.04.49,1.57,1.73,2.4,1.28.83-.45-.17-1.58-.17-1.58,0,0,5.46-.38,7.53.45,2.07.83,3.02,2.23,3.1,1.55.08-.68-.45-1.47-1.78-2.38-1.33-.91-1.98-1.21-1.98-1.21,0,0,3.64.07,5.08,1.77,1.45,1.7-.43,3.06-1.46,2.99-1.03-.08-1.73-.56-2.12.13-.39.7,1.69,1.58,1.69,1.58,0,0-.58.34-1.46.09-.88-.25-1.48-.15-1.83.21-.35.35-.51.92.53,1.65,1.05.74,1.96,1,3.09.68,1.13-.32,2.14-1.62,2.14-1.62,0,0-.86,2.03-3.04,2.52-2.18.49-3.81-1.45-4.1-2.31-.29-.87-.14-1.67.66-1.77.8-.1,1.36-.19,1.48-.53.12-.34.27-1.41-.74-1.99-1.01-.58-3.44-.2-4.18,1.76-.75,1.96,1.2,6.08,5.04,5.74,2.97-.26,5.81-2.12,6.01-4.98,0,0,.37,1.69-.72,2.87-1.09,1.18-1.67,1.26-2.14,1.95-.47.7-.47,1.26-.14,1.67.33.41,1.46-.17,1.52-.56.06-.39-.24-1.01.5-1.84.74-.82,1.79-.81,3.25-2.4,1.46-1.59-.12-2.4-.12-2.4,0,0,.06.69-.49,1.35-.56.66-1.19.94-1.19.94,0,0,3.46-4.37-1.63-8.33-5.09-3.96-14.84,0-18.99,1.96-4.15,1.97-7.31,2.74-8.65,2.84-1.34.1-2-.13-2.04-.13s4.45-.67,7.22-1.92c2.77-1.25,5.99-2.53,8.97-3.73,2.98-1.21,5.5-.79,5.75-1.17.25-.38-.5-.83-1.98-1.2-1.49-.38-4.76.11-6.62,1.2-1.86,1.09-3.39,1.96-6.04,3.32-2.65,1.36-4.71,1.81-4.71,1.81,0,0,3.56-1.51,5.75-3.51,2.19-2,3.27-1.39,3.1-2.07-.17-.68-1.74-.45-1.74-.45,0,0,1.9-.91,3.51-1.7,1.61-.79,3.52-1.1,3.35-1.32-.17-.23-1.61-1.39-3.64-.53-2.03.87-3.47,1.89-9.84,5.66-6.37,3.77-9.06,4.19-9.02,4.15.04-.04,2.69-1.62,5.95-4.22,3.27-2.6,4.55-3.92,4.55-3.92,0,0-1.53,2.03-2.84,3.23-1.32,1.2-3.27,2.72-3.27,2.72,0,0,3.23-1.48,6.01-3.49,2.78-2.01,5.93-3.46,6.79-3.87.86-.41.1-.96-1.18-1-1.27-.04-2.02.19-2.84.72-.82.52-1.79,1.11-1.79,1.11,0,0,.59-.62.41-1.65-.19-1.03-1.11-2.06-1.4-1.54-.29.53-.39,1.74-2.79,4.07s-3.72,4.15-8.31,6.3c-4.59,2.15-8.64.79-8.64.79,0,0,4.63.68,7.15-1.09,2.52-1.77,3.85-3.28,3.72-4.3-.12-1.02-.04-1.39-.33-1.13-.29.26-3.06,4.15-5.87,4.98-2.81.83-5.29,0-5.29,0,0,0,3.64.83,7.03-1.81,3.39-2.64,4.18-3.73,4.18-4.41s.12-2.75-.66-2.49c-.79.27-2.77,3.36-2.77,3.36,0,0-.37-1.25-1.65-.98-1.28.27-1.74,1.06-1.74,1.13s1.78-.11,1.28,1.47c-.5,1.59-6.08,2.75-9.59,2.12-3.52-.64-5.25-2.98-5.25-2.98,0,0,3.35.57,4.17-.04.83-.6.41-1.74.29-1.85-.12-.11-1.57-.08-3.18-1.02-1.61-.94-2.48-1.88-2.48-1.88,0,0,1.12.31,2.15.3,1.03,0,1.39-.04,1.53-.28.14-.24-.22-.72-.34-.77-.11-.05-1.51.58-3.03-1.71-1.52-2.29.11-5.99,4.29-8.59,4.17-2.6,8.99-.93,10.94.56,1.95,1.48,2.26,3.11,2.26,3.11,0,0-2.45-2.8-4.11-3.49-1.67-.7-3.89,1.3-3.4,1.71.49.41,4.52-.65,6.38,2.48,1.86,3.13.21,4.79-.54,5.62-.75.83-2.52,1.32-2.52,1.32,0,0,1.65-.75,2.56-2.41.91-1.66-1.16-4.53-1.82-4.22-.66.3-1.12,1.47-.74,1.81.37.34.91,2.19-.83,3.55-1.73,1.36-5,.94-6.24-1.09-1.24-2.04.25-5.13,2.77-4.04Z"/>
      <path class="cls-1" d="M32.59,604.08s.21,1.17-1.07,1.66c-1.28.49-2.65-.6-2.52-1.93.12-1.32,1.94-2.98,4.84-1.55,2.89,1.44,1.32,5.51-1.32,6.57-2.65,1.06-6-.11-7.74-2.23-1.74-2.11-2.19-6.53.41-9.66,2.6-3.13,7.19-3.7,7.24-3.66.04.04-.03-1.03.5-1.63.54-.6.91-1.05.68-1.49-.23-.43-.99-.82-.99-.79,0,.04,1.34-.54,2.7.28,1.36.83,1.65,1.73,1.65,1.77,0,.04,1.13-.67,2.41-.63,1.28.04,1.9.3,2.44.04.54-.26.99-1.13.99-1.13,0,0,.39,1.41-.9,2.29-1.3.88-2.51.6-3.11,1.26s-.39,1.26-.39,1.26c0,0,.14-.54.72-.69.57-.15,1.79.05,2.14-.19.35-.24.58-.52.82-1.05.25-.52.52-.84.91-1.01.39-.17.93-.02.93-.02,0,0-.87.19-1.01.88-.15.69.23,1.74-.25,2.44-.47.69-1.69,1.27-1.69,1.27,0,0-.35.88,1.01,1.75,1.36.86,2.76,1.2,3.6,2.87.84,1.67,1.11,2.63,1.98,3.04.86.41,1.56-.04,1.56-.04,0,0-.33-.87.16-1.31.5-.45,1.54-.4,2,.02.45.41.39,2.16-.93,2.98-2.63,1.65-4.46-.24-5.48-2.25-.35-.69-1.15-.94-1.15-.94,0,0,.74.79.76,1.86.02,1.07-.85,2.01-.85,2.01,0,0,.17-.9-.51-2.04-.68-1.14-.95-2.18-.95-3.01s-1.46-3.92-3.17-5.44c-1.46-1.3-4.05-2.65-6.09-1.69,0,0,3.17.11,5.31,1.99,2.14,1.88,3.45,5.8,3.57,7.95.12,2.15-.7,5.02-2.69,7.2-1.99,2.19-5.54,5.21-10.13,5.47-4.59.27-6.6.66-6.6.66,0,0,.56-1.03,1.87-1.71,1.32-.67,3.75-.83,3.75-.83,0,0-2.37-1.26-5.31.41-2.94,1.67-1.95,3.59-1.95,3.59,0,0,1.54-.62,2.68-.34,1.13.28,1.71.36,1.71.36,0,0-.78.22-.39,1.11.39.88,2.18.56,2.2.54.02-.02-1.03,1.09-2.1,1.17-1.07.08-1.95-.62-1.95-.62,0,0-1.09.96.04,2.1,1.13,1.14.89,2.65.89,2.65l-1.19-.45s.06.69-.21,1.35c-.27.66-.58,1.24-.58,1.24,0,0-1.01-.28-1.75-1.22-.74-.94-.8-1.82-.8-1.82l-.84.66s-.62-1.05-.7-1.88c-.08-.83.18-1.41.18-1.41,0,0-.04.38-1.32.04-1.28-.34-2.02-1.54-2.02-1.54,0,0,2.18.41,2.78-.36.6-.77.35-1.67-.08-1.8-.43-.13-.88.17-.88.17,0,0,.51-1.44,1.46-1.74.95-.3,1.67-.02,1.67-.02,0,0,.41-1.16,1.94-2.06,1.52-.9,2.49-1,2.49-1,0,0-2.78-.37-6.92-3.47-4.13-3.09-5.25-9.24-5.25-9.24,0,0-.7,3.05,1.74,6.64,2.44,3.58,7.77,6.11,7.77,6.11l-2.07,1.36s-3.35-1.55-5.79-4.23c-2.44-2.68-3.64-5.58-3.64-5.58,0,0-.95-.79-2.61-1.55-1.66-.75-2.36-2-2.81-3.17-.45-1.17-.31-2.68-.84-3.28-.53-.6-1.32-.68-1.65-.38-.33.3-.15.77.08.9.23.13.53.04.53.04,0,0-.58.71-1.17.54-.59-.17-1.67-1.48-.58-2.55,1.09-1.07,2.92-1.35,3.6-1,.68.36.99,1.09.99,1.09,0,0,.06-1.37.74-1.46.68-.09,1.22,1.71,1.22,1.71,0,0,1.13-.21,1.25.96.12,1.16-1.19.75-1.79,1.85-.6,1.11-.35,1.52-.35,1.52,0,0,.78-.98,1.69-.3,1.09.82.13,2.23.49,3.3.19.55,1.67,1.26,1.67,1.26,0,0-.92-2.17-.01-4.96.91-2.79,2.77-4.87,2.77-4.87,0,0-1.24.93-2.37,2.64-1.13,1.71-1.15,2.33-1.15,2.33,0,0-.74-1.98,1-5.91,1.74-3.92,7.15-10.07,7.15-10.07,0,0-2.27,1.25-4.88,4.83-2.61,3.58-3.8,6.94-3.8,6.94,0,0-1.41-2.87-.66-5.89.74-3.02.33-6.79-.21-7.43-.54-.64-1.66,0-1.99-.45-.33-.45-.25-1.89.99-1.96,1.24-.07,1.7-.04,1.7-.04,0,0-.21-.72.58-1.73.79-1.02,1.16-1.36.45-1.93-.7-.56-1.28-.11-1.57.23-.29.34-.17.83-.17.83-1.87-2.29,1.87-4.63,3.76-2.9,1.41,1.28.66,3.4-.41,4.38-1.07.98-1.7,2.23-1.87,3.28-.16,1.05.41,2.07.41,2.07,0,0-.41-2.29,1.45-3.98,1.86-1.7,2.65-4.38,2.11-5.32-.54-.94-1.9-1.43-1.41-2.19.5-.75,1.74.15,1.74.15,0,0,.41-4.98-.5-6.87-.91-1.88-2.44-2.75-1.7-2.83.75-.07,1.62.41,2.61,1.62.99,1.21,1.32,1.81,1.32,1.81,0,0-.08-3.32-1.94-4.64-1.86-1.32-3.36.39-3.28,1.33.08.94.62,1.58-.14,1.93-.76.36-1.73-1.54-1.73-1.54,0,0-.37.52-.1,1.33.27.81.16,1.35-.23,1.67-.39.32-1.01.47-1.81-.49-.8-.95-1.09-1.78-.74-2.81.35-1.03,1.77-1.95,1.77-1.95,0,0-2.22.79-2.76,2.78-.53,1.99,1.59,3.47,2.53,3.73.95.26,1.83.13,1.94-.6.1-.73.21-1.24.58-1.35.37-.11,1.54-.24,2.18.68.64.92.22,3.14-1.93,3.82-2.15.68-6.66-1.09-6.29-4.6.29-2.71,2.33-5.3,5.46-5.49,0,0-1.85-.34-3.15.66-1.3,1-1.38,1.52-2.14,1.95-.76.43-1.38.43-1.83.13-.45-.3.19-1.33.62-1.39.43-.06,1.11.23,2.02-.45.9-.67.88-1.63,2.63-2.97,1.75-1.33,2.63.11,2.63.11,0,0-.76-.06-1.48.45-.72.51-1.03,1.09-1.03,1.09,0,0,4.79-3.16,9.13,1.49,4.34,4.64,0,13.54-2.15,17.32-2.16,3.78-3.01,6.67-3.11,7.89-.1,1.22.14,1.82.14,1.86s.74-4.06,2.1-6.59c1.36-2.53,2.77-5.47,4.09-8.19,1.32-2.72.87-5.02,1.28-5.25.41-.22.91.46,1.32,1.81.41,1.36-.13,4.34-1.32,6.04-1.2,1.7-2.15,3.09-3.64,5.51-1.49,2.41-1.99,4.3-1.99,4.3,0,0,1.66-3.24,3.85-5.24,2.19-2,1.53-2.98,2.28-2.83.75.15.5,1.58.5,1.58,0,0,.99-1.74,1.86-3.21.87-1.47,1.2-3.2,1.45-3.05.25.15,1.53,1.47.58,3.32-.95,1.85-2.07,3.17-6.2,8.98-4.13,5.81-4.59,8.26-4.55,8.22.04-.04,1.78-2.45,4.63-5.43,2.85-2.98,4.3-4.15,4.3-4.15,0,0-2.22,1.39-3.54,2.59-1.32,1.2-2.98,2.98-2.98,2.98,0,0,1.63-2.94,3.83-5.48,2.2-2.53,3.79-5.41,4.24-6.19.45-.79,1.05-.09,1.09,1.07.04,1.16-.21,1.84-.78,2.59-.58.75-1.22,1.63-1.22,1.63,0,0,.68-.55,1.81-.38,1.13.17,2.26,1.01,1.69,1.28-.58.26-1.9.35-4.46,2.54-2.57,2.19-4.55,3.4-6.91,7.58-2.36,4.19-.87,7.88-.87,7.88,0,0-.74-4.22,1.2-6.53,1.94-2.3,3.6-3.51,4.71-3.4,1.12.11,1.53.04,1.24.3-.29.27-4.55,2.79-5.46,5.36-.91,2.56,0,4.83,0,4.83,0,0-.91-3.32,1.99-6.41,2.89-3.09,4.09-3.81,4.84-3.81s3.02-.12,2.73.6c-.29.71-3.68,2.53-3.68,2.53,0,0,1.37.34,1.08,1.51-.29,1.17-1.16,1.58-1.24,1.58s.12-1.62-1.61-1.17c-1.74.45-3.02,5.54-2.32,8.75.7,3.21,3.27,4.79,3.27,4.79,0,0-.62-3.05.04-3.81.66-.75,1.9-.38,2.03-.27.12.12.08,1.44,1.12,2.91,1.04,1.47,2.07,2.26,2.07,2.26,0,0-.34-1.02-.33-1.96.01-.94.04-1.26.31-1.39.26-.13.79.2.84.31.05.1-.64,1.38,1.88,2.77,2.51,1.39,6.57-.1,9.42-3.91,2.85-3.81,1.01-8.2-.61-9.98-1.63-1.78-3.42-2.06-3.42-2.06,0,0,3.07,2.23,3.83,3.75.76,1.52-1.42,3.55-1.87,3.1-.45-.45.71-4.12-2.73-5.82-3.43-1.7-5.25-.19-6.16.49-.91.68-1.45,2.3-1.45,2.3,0,0,.83-1.51,2.65-2.34,1.82-.83,4.96,1.06,4.63,1.66-.33.6-1.61,1.02-1.98.68-.37-.34-2.4-.83-3.89.76-1.49,1.58-1.03,4.56,1.2,5.69,2.23,1.13,5.62-.22,4.42-2.53Z"/>
      <g>
        <path class="cls-1" d="M40.13,645.85s-1.16-.3-1.9.98c-.74,1.28,1.12,3.21,3.02,2,1.9-1.21,2.94-3.28,1.24-5.96-1.7-2.68-4.76-3.58-7.9-3.66-3.14-.08-6.13-.57-7.59-1.71-1.46-1.15-1.69-1.96-1.95-1.75-.27.21-1.09.88-.86,2.1.23,1.22,1.28,1.84,1.28,1.84,0,0-1.55.02-2.26-.56-.72-.58-.97-.99-.97-.99,0,0-.7.7-.68,1.28.02.57.4.86.4.86,0,0-1.67.54-3.15.28-1.48-.27-1.87-.51-1.94-.27-.06.25-.02.4.49,1.02.51.62.91.67.91.67,0,0-3.91,2.52-1.42,5.28,1.88,2.08,4.45,1.1,4.9-.28.46-1.4-1.38-2.5-2.4-1.17-.29.38-.21.82-.21.82,0,0-1.46-1.11-.17-2.58,1.28-1.47,2.83-.92,4.15-1.22,1.32-.3,2.69-1.25,2.69-1.25,0,0-.33.38-.29,1.1.04.71.7,1.32.7,1.39s.79-1.25,3.56-2.19c2.77-.94,7.36-.98,9.39.94,2.03,1.93.99,3.02.99,3.02Z"/>
        <path class="cls-1" d="M3.69,612.62s.33,1.06-1.08,1.74c-1.41.68-3.52-1.02-2.19-2.75,1.32-1.73,3.6-2.68,6.53-1.13,2.94,1.55,3.93,4.34,4.01,7.21.08,2.86.62,5.59,1.88,6.93,1.25,1.33,2.14,1.54,1.91,1.78-.22.25-.97,1-2.3.79-1.34-.21-2.02-1.17-2.02-1.17,0,0-.02,1.41.62,2.07.64.66,1.09.88,1.09.88,0,0-.77.64-1.41.62-.63-.02-.95-.36-.95-.36,0,0-.59,1.52-.3,2.87.29,1.35.56,1.71.29,1.77-.27.06-.43.02-1.11-.45-.68-.47-.74-.83-.74-.83,0,0-2.76,3.57-5.78,1.29-2.28-1.71-1.2-4.05.31-4.46,1.53-.42,2.74,1.26,1.28,2.19-.41.26-.91.19-.91.19,0,0,1.22,1.33,2.83.16,1.61-1.17,1.01-2.58,1.34-3.79.33-1.21,1.37-2.45,1.37-2.45,0,0-.42.3-1.2.26-.78-.04-1.45-.64-1.53-.64s1.36-.71,2.4-3.24c1.03-2.53,1.08-6.72-1.03-8.56-2.11-1.85-3.31-.91-3.31-.91Z"/>
        <path class="cls-1" d="M11.39,635.47s.27-2.23,2.02-3c1.75-.77,2.96.45,3.71-.15.74-.6.08-1.43.08-1.43,0,0,.78-.68.31-.99-.47-.32-3.13-.08-4.78.98-1.65,1.05-1.91,3.81-1.34,4.6Z"/>
        <path class="cls-1" d="M14.93,638.7s2.45-.24,3.29-1.84c.84-1.6-.49-2.7.17-3.38.66-.68,1.56-.08,1.56-.08,0,0,.74-.71,1.09-.28.35.43.08,2.85-1.07,4.35-1.15,1.5-4.18,1.75-5.04,1.22Z"/>
        <path class="cls-1" d="M9.1,639.74s-2.06-.6-2.67-1.96c-.62-1.35.43-2.61,1.79-2.53,1.36.08,2.45,2.12,2.45,2.12,0,0,.16-.79,1.36-1.77,1.81-1.47,4.38.88,2.76,2.52-1.07,1.09-1.93,1.24-1.93,1.24,0,0,2.24.99,2.33,2.23.08,1.24-1.3,2.2-2.78,1.63-1.48-.56-2.14-2.44-2.14-2.44,1.69.47,2.68-.78,2.39-1.88-.15-.57-.79-1.17-1.4-1.34-1.23-.33-2.68.58-2.15,2.16Z"/>
        <path class="cls-1" d="M9.92,640.18c.87.8.87,2.09,0,2.89-.87.8-2.3.8-3.17,0-.87-.8-.87-2.09,0-2.89.88-.8,2.3-.8,3.17,0Z"/>
        <path class="cls-1" d="M2.55,641.08s.27.64,1.13,1.27c.85.63,1.01.68,1.01.68,0,0-.51.21-1.15,1.09-.47.65-.61,1.66-.58,2.43.86.02,1.93-.08,2.67-.52.97-.58,1.2-1.05,1.2-1.05,0,0,.05.14.74.92.69.78,1.39,1.03,1.39,1.03,3.39-2.66-2.29-9.02-6.41-5.85Z"/>
        <path class="cls-1" d="M19.78,631.55c.68.63,1.8.63,2.48,0,.69-.63.69-1.64,0-2.26-.68-.63-1.8-.63-2.48,0-.69.63-.69,1.64,0,2.26Z"/>
      </g>
    </g>
  </g>
</svg>